<?xml version="1.0" encoding="UTF-8"?>
<svg width="232px" height="229px" viewBox="0 0 232 229" version="1.1" xmlns="http://www.w3.org/2000/svg" xmlns:xlink="http://www.w3.org/1999/xlink">
    <!-- Generator: Sketch 54.1 (76490) - https://sketchapp.com -->
    <title>Group 36</title>
    <desc>Created with Sketch.</desc>
    <defs>
        <polygon id="path-1" points="0.000602597403 1.962 231.728831 1.962 231.728831 136.71 0.000602597403 136.71"></polygon>
    </defs>
    <g id="Page-1" stroke="none" stroke-width="1" fill="none" fill-rule="evenodd" opacity="0.0587565104">
        <g id="mainpage" transform="translate(-1173.000000, -742.000000)">
            <g id="Group-36" transform="translate(1173.000000, 739.000000)">
                <path d="M81.1855377,123.8115 C82.4479792,123.9615 83.9153039,124.0725 85.5844987,124.1445 C87.2567065,124.2195 89.0946286,124.2555 91.0982649,124.2555 C93.6201351,124.2555 96.1269403,124.1265 98.6156675,123.8685 C101.101382,123.6105 103.475616,123.0555 105.741382,122.2035 C108.007148,121.3545 110.122265,120.1335 112.092758,118.5435 C114.057226,116.9565 115.822836,114.8685 117.380551,112.2795 C119.757797,108.2865 121.408914,104.2035 122.336914,100.0245 C123.264914,95.8485 123.728914,91.2855 123.728914,86.3295 C123.728914,80.4915 123.174525,75.1875 122.059719,70.4175 C120.944914,65.6475 119.106992,61.5825 116.545953,58.2195 C113.984914,54.8565 110.586265,52.2495 106.356031,50.4015 C102.122784,48.5535 96.889226,47.6295 90.6523429,47.6295 C88.7963429,47.6295 87.1060571,47.6685 85.5844987,47.7405 C84.0629403,47.8125 82.5956156,47.8875 81.1855377,47.9625 L81.1855377,123.8115 Z M57.6872519,123.8115 L70.0495377,123.8115 L70.0495377,47.9625 L57.6872519,47.9625 L57.6872519,46.4085 L78.4015377,46.4085 C79.4410182,46.4085 80.4804987,46.3905 81.5199792,46.3545 C82.5594597,46.3155 83.5959273,46.2615 84.6384208,46.1865 C85.6779013,46.1865 86.7143688,46.1715 87.7568623,46.1325 C88.7963429,46.0965 89.8358234,46.0755 90.8753039,46.0755 C93.1019013,46.0755 95.0874597,46.1145 96.8319792,46.1865 C98.5764987,46.2615 100.209538,46.3905 101.734109,46.5765 C103.255668,46.7595 104.701901,47.0175 106.075823,47.3505 C107.449745,47.6835 108.91707,48.1125 110.477797,48.6255 C115.006317,50.1075 118.920187,52.0845 122.225434,54.5595 C125.527668,57.0375 128.239356,59.9025 130.357486,63.1545 C132.472603,66.4065 134.03333,69.9555 135.033642,73.7985 C136.036966,77.6445 136.537122,81.6735 136.537122,85.8855 C136.537122,90.7665 135.940551,95.1465 134.756447,99.0285 C133.566317,102.9075 131.933278,106.3455 129.854317,109.3395 C127.775356,112.3335 125.343875,114.9225 122.559875,117.1035 C119.775875,119.2845 116.786992,121.0395 113.593226,122.3715 C111.812551,123.1845 110.122265,123.8115 108.528395,124.2555 C106.928499,124.6995 105.298473,125.0325 103.626265,125.2515 C101.95707,125.4765 100.119148,125.6235 98.1155117,125.6955 C96.1088623,125.7705 93.8069403,125.8095 91.2097455,125.8095 C90.0949403,125.8095 88.9078234,125.7885 87.6453818,125.7525 C86.3829403,125.7135 85.1204987,125.6595 83.8580571,125.5845 C82.5956156,125.5095 81.3542649,125.4555 80.1279792,125.4195 C78.9016935,125.3805 77.7326545,125.3655 76.6178494,125.3655 L57.6872519,125.3655 L57.6872519,123.8115 Z" id="Fill-1" fill="#1A1919"></path>
                <path d="M162.812779,81.5493 C164.964052,82.2903 166.823065,83.4183 168.380779,84.9303 C169.941506,86.4483 171.279273,88.2963 172.391065,90.4773 C173.502857,92.6583 174.545351,95.1903 175.509506,98.0733 L176.735792,98.0733 L176.735792,78.8883 L150.818078,78.8883 L150.818078,80.4393 L155.018182,80.4393 C158.058286,80.4393 160.658494,80.8113 162.812779,81.5493" id="Fill-3" fill="#1A1919"></path>
                <path d="M145.54987,116.2587 C148.22239,116.2587 150.394753,116.7207 152.066961,117.6447 C153.736156,118.5717 155.073922,119.8077 156.074234,121.3587 C157.077558,122.9127 157.854909,124.6887 158.415325,126.6837 C158.969714,128.6787 159.509039,130.7487 160.027273,132.8937 L161.253558,132.8937 L161.253558,98.4057 L160.027273,98.4057 C159.210753,101.7327 158.376156,104.4477 157.523481,106.5567 C156.667792,108.6627 155.628312,110.3247 154.402026,111.5457 C153.178753,112.7667 151.711429,113.5977 150.006078,114.0417 C148.671325,114.3867 147.047325,114.5577 145.263636,114.6327 L145.263636,116.2587 L145.54987,116.2587 Z" id="Fill-5" fill="#1A1919"></path>
                <path d="M179.741548,133.5585 C179.518587,135.2595 178.99734,137.4015 178.180821,139.9905 C177.364301,142.5795 176.10186,145.0725 174.396509,147.4755 C172.685132,149.8785 170.479626,151.9485 167.767938,153.6825 C165.056249,155.4225 161.660613,156.2895 157.578016,156.2895 L136.529288,156.2895 L136.529288,116.2575 L136.538327,116.2575 L136.538327,114.7065 L136.529288,114.7065 L136.529288,85.9425 L125.390275,85.9425 L125.390275,156.2895 L113.031003,156.2895 L113.031003,157.8435 L180.967834,157.8435 L180.967834,133.5585 L179.741548,133.5585 Z" id="Fill-7" fill="#1A1919"></path>
                <g id="Group-11" transform="translate(0.000000, 1.038000)">
                    <mask id="mask-2" fill="white">
                        <use xlink:href="#path-1"></use>
                    </mask>
                    <g id="Clip-10"></g>
                    <path d="M228.821901,136.71 C228.743564,136.71 228.662213,136.704 228.583875,136.692 C227.76133,136.563 227.200914,135.792 227.330473,134.976 C228.252447,129.18 228.716447,123.243 228.716447,117.327 C228.716447,55.371 178.089226,4.962 115.865018,4.962 C53.6377974,4.962 3.01358961,55.371 3.01358961,117.327 C3.01358961,123.24 3.47758961,129.168 4.39353766,134.946 C4.5230961,135.768 3.95966753,136.533 3.14013506,136.662 C2.33265455,136.782 1.54325195,136.233 1.41369351,135.414 C0.476654545,129.483 0.000602597403,123.396 0.000602597403,117.327 C0.000602597403,53.715 51.9776416,1.962 115.865018,1.962 C179.752395,1.962 231.729434,53.715 231.729434,117.327 C231.729434,123.399 231.250369,129.495 230.307304,135.444 C230.189797,136.182 229.548031,136.71 228.821901,136.71" id="Fill-9" fill="#1A1919" mask="url(#mask-2)"></path>
                </g>
                <path d="M95.4499221,114.5418 C95.1727273,114.5418 94.9075844,114.6558 94.6936623,114.8538 C85.0671688,123.6468 77.3087273,132.1158 71.4605195,140.2128 C74.0095065,139.0368 76.5042597,137.6748 78.9417662,136.2978 C83.3708571,133.7898 87.6191688,131.2458 90.8822338,127.7298 C94.4767273,123.8538 96.2694545,119.2158 95.8084675,114.9978 C95.7753247,114.7128 95.7482078,114.6108 95.7271169,114.5808 C95.6367273,114.5538 95.5403117,114.5418 95.4499221,114.5418 M91.3251429,141.7788 C90.9907013,141.7788 90.6321558,141.9888 90.4272727,142.3308 L90.0988571,142.8618 C89.0021299,144.6138 88.1584935,146.1558 88.9117403,147.2178 C89.3305455,147.8118 90.1651429,148.0758 90.9997403,147.8748 C91.1503896,147.8418 91.295013,147.7968 91.4366234,147.7428 C91.8614545,146.0448 91.997039,144.2748 91.8222857,142.5468 C91.749974,141.8748 91.6656104,141.8508 91.5450909,141.8118 C91.4757922,141.7878 91.4004675,141.7788 91.3251429,141.7788 M112.229247,145.9278 C111.683896,145.9278 111.005974,146.0688 110.499792,146.6688 C109.363896,148.0158 108.764312,149.7258 108.767313,151.3428 C110.246701,150.8148 111.611584,150.1038 112.039429,149.4858 C112.988519,148.1148 113.368156,146.4528 113.151221,146.0448 C113.1,146.0418 112.717351,145.9278 112.229247,145.9278 M60.5173506,171.5658 C59.4808831,171.5658 58.5679481,171.1488 57.7905974,170.3148 C56.6968831,169.1388 56.2479481,167.4438 56.5944416,165.7728 C57.9502857,159.1848 60.8668571,152.2638 65.3230649,145.0548 C62.4245714,145.8408 59.4447273,146.2488 56.3865455,146.0898 C51.852,145.8468 47.5645195,144.3318 43.4216623,142.8648 C40.8576104,141.9588 38.2061818,141.0228 35.5607792,140.4168 C31.5836364,139.5078 20.7308571,140.4738 12.6108571,146.9148 C6.04254545,152.1228 2.71319481,159.6768 2.71319481,169.3548 C2.71319481,170.0178 2.17085714,170.5578 1.50498701,170.5578 C0.84212987,170.5578 0.299792208,170.0178 0.299792208,169.3548 C0.299792208,158.9088 3.93646753,150.7278 11.1103896,145.0368 C20.3873766,137.6808 32.1440519,137.1768 36.1031169,138.0798 C38.8810909,138.7158 41.5988052,139.6758 44.2291429,140.6058 C48.3961039,142.0758 52.3280519,143.4678 56.5161039,143.6928 C60.2341299,143.8848 63.8346494,143.1468 67.3598442,141.8928 C73.5214026,132.7248 82.1023896,123.0978 93.0606234,113.0868 C93.9615065,112.2618 95.2028571,111.9468 96.3116364,112.2528 C97.9868571,112.7298 98.1465455,114.1908 98.2037922,114.7398 C98.7431169,119.6448 96.7183896,124.9758 92.6538701,129.3558 C89.1557922,133.1268 84.7327273,135.7788 80.1288831,138.3828 C76.5283636,140.4228 72.7922597,142.4268 68.9175584,143.8818 C63.7412468,151.7298 60.4058701,159.1998 58.9536104,166.2528 C58.7698182,167.1528 58.9988052,168.0828 59.5562078,168.6828 C60.0804675,169.2438 60.658961,169.4268 62.063013,168.6708 C66.3595325,166.3638 70.640987,161.9208 74.7778182,157.6218 C78.1222338,154.1508 81.2798442,150.8718 84.5188052,148.5438 L85.028,148.3338 L85.5703377,148.2408 L86.181974,148.6338 C86.7845714,149.1258 86.8056623,149.8758 86.8327792,150.7458 C86.8478442,151.3548 86.8659221,152.0448 87.0587532,152.6028 C87.2335065,153.1038 87.6402597,153.4728 88.0711169,153.5178 C88.4296623,153.5388 88.6887792,153.4278 89.2341299,152.6328 C89.7372987,151.9128 90.1681558,151.1418 90.5297143,150.3408 C89.1919481,150.2478 87.7336623,149.7228 86.9412468,148.6008 C85.2087792,146.1528 86.9201558,143.4108 88.050026,141.5958 L88.3603636,141.0948 C89.197974,139.7058 90.8129351,139.0698 92.2651948,139.5198 C93.9886234,140.0568 94.1543377,141.6888 94.2176104,142.3008 C94.317039,143.2458 94.3321039,144.2058 94.2688312,145.1568 C94.6966753,144.6828 95.3685714,144.5358 95.9591169,144.7878 C96.618961,145.0698 96.9714805,145.7538 96.8238442,146.4558 C96.2604156,149.0688 96.1760519,151.8348 96.5767792,154.4838 C98.1103896,152.5668 99.421039,150.4758 100.478597,148.2618 C100.755792,147.6768 101.391532,147.3498 102.033299,147.4038 C102.681091,147.4788 103.208364,147.9648 103.340935,148.6038 C103.407221,148.9158 103.458442,149.2638 103.512675,149.6208 C103.699481,150.9108 103.883273,151.8408 104.48587,152.0418 C104.901662,152.1768 105.582597,152.1438 106.378026,151.9998 C106.188208,149.6328 106.980623,147.1098 108.652831,145.1268 C109.623013,143.9778 111.105403,143.4468 112.678182,143.5848 C113.603169,143.6838 114.844519,144.0948 115.281403,144.9228 C116.191325,146.6298 115.025299,149.4048 114.021974,150.8538 C113.259688,151.9488 111.328364,153.0198 109.267481,153.7158 C109.288571,153.7578 109.309662,153.7998 109.32774,153.8418 C109.604935,154.3938 110.222597,155.3838 111.225922,155.7528 C112.693247,156.2958 114.443792,155.3598 115.652,154.4868 C117.384468,153.2358 118.884935,151.7058 120.475792,150.0858 C122.657195,147.8568 124.913922,145.5558 127.80639,144.0678 C136.101143,139.7988 141.078597,137.9658 154.89013,146.6598 C155.72774,147.1878 156.65574,147.7908 157.668104,148.4508 C171.762857,157.6158 201.094286,176.6958 229.368156,148.4658 C229.841195,147.9948 230.600468,147.9918 231.073506,148.4628 C231.543532,148.9308 231.546545,149.6898 231.076519,150.1578 C201.419688,179.7678 169.834545,159.2298 156.351429,150.4608 C155.351117,149.8098 154.429143,149.2098 153.600571,148.6878 C140.87974,140.6838 136.613351,142.2318 128.912156,146.2008 C126.366182,147.5088 124.344468,149.5758 122.202234,151.7598 C120.611377,153.3828 118.966286,155.0598 117.065091,156.4338 C114.648675,158.1798 112.328675,158.7168 110.391325,158.0028 C109.071636,157.5198 107.929714,156.4188 107.170442,154.9098 C107.074026,154.7208 106.989662,154.5258 106.914338,154.3308 C105.654909,154.5558 104.506961,154.5858 103.717558,154.3158 C102.355688,153.8598 101.753091,152.7348 101.43974,151.6038 C100.487636,153.2658 99.3969351,154.8498 98.1766753,156.3318 C97.6222857,157.0098 96.7334545,157.2948 95.8837922,157.0668 C95.0341299,156.8448 94.4164675,156.1728 94.2688312,155.3208 C93.9163117,153.2598 93.8289351,151.1268 94.0067013,149.0298 C93.834961,149.1618 93.6541818,149.2908 93.4643636,149.4078 C92.9431169,151.0398 92.1898701,152.5938 91.2227013,153.9918 C90.7858182,154.6248 89.7824935,156.1278 87.812,155.9028 C86.4531429,155.7558 85.263013,154.7658 84.7809351,153.3828 C84.5790649,152.7918 84.4947013,152.1738 84.4585455,151.6188 C81.8734026,153.7218 79.2611429,156.4368 76.5193247,159.2838 C72.2499221,163.7178 67.8358961,168.2988 63.2049351,170.7858 C62.2347532,171.3048 61.3398961,171.5658 60.5173506,171.5658" id="Fill-12" fill="#1A1919"></path>
                <path d="M35.8376727,177.3018 L26.0123221,184.8078 C26.5847896,185.5488 27.1452052,186.0348 27.6995948,186.2598 C28.2479584,186.4848 28.9981922,186.3798 29.9472831,185.9568 C30.893361,185.5248 31.8876468,184.9098 32.9301403,184.1148 C34.0569974,183.2538 34.8976208,182.4978 35.4459844,181.8558 C36.000374,181.2108 36.3589195,180.6528 36.5306597,180.1878 C36.7024,179.7228 36.7385558,179.2788 36.6391273,178.8618 C36.5336727,178.4448 36.2715429,177.9228 35.8376727,177.3018 M33.7135169,173.7468 L34.0991792,173.4498 C34.1714909,173.3928 34.2739325,173.4498 34.4065039,173.6208 L36.6361143,176.5098 C37.8955429,178.1388 38.5071792,179.8578 38.4800623,181.6548 C38.4529455,183.4548 37.4375688,185.1198 35.4369455,186.6468 C34.4065039,187.4388 33.2886857,188.0208 32.0925299,188.4048 C30.8873351,188.7858 29.748426,188.7978 28.6637506,188.4468 C27.5760623,188.0928 26.3558026,187.0338 24.9939325,185.2698 L22.791439,182.4108 C22.6889974,182.2788 22.6799584,182.1798 22.7613091,182.1138 L23.1439584,181.8288 C23.252426,181.7418 23.4241662,181.7568 23.6561662,181.8738 C24.0026597,182.0448 24.3039584,182.0328 24.5540364,181.8438 L33.3670234,175.1088 C33.6201143,174.9138 33.7044779,174.6498 33.6351792,174.3198 C33.5688935,174.0228 33.5990234,173.8368 33.7135169,173.7468" id="Fill-14" fill="#1A1919"></path>
                <path d="M42.7961662,204.4248 L35.7548156,197.8668 C35.5891013,197.7138 35.5619844,197.5818 35.664426,197.4738 L35.9476468,197.1738 C36.0350234,197.0778 36.2459325,197.0778 36.580374,197.1768 C36.8756468,197.2548 37.1287377,197.1828 37.3366338,196.9638 L44.929361,188.8818 C45.1523221,188.6448 45.1914909,188.3508 45.0468675,187.9938 C44.9504519,187.7598 44.9504519,187.5888 45.0468675,187.4868 L45.3572052,187.1538 C45.4385558,187.0728 45.5620883,187.1058 45.7247896,187.2558 L51.0095688,192.1788 C51.1059844,192.2658 51.2927896,192.4278 51.5699844,192.6648 C51.8230753,192.8718 51.9827636,193.0068 52.0430234,193.0638 C52.2689974,193.2768 52.3443221,193.4238 52.2689974,193.5048 L50.3828675,195.5088 C50.283439,195.6138 50.2081143,195.6618 50.1568935,195.6528 C50.1086857,195.6468 50.0122701,195.5778 49.8676468,195.4428 L49.4880104,195.0888 C49.3222961,194.9358 49.2891532,194.7828 49.3915948,194.6358 C49.6476987,194.2128 49.7983481,193.7808 49.8405299,193.3518 C49.8827117,192.9138 49.6115429,192.4218 49.0179844,191.8698 L47.725413,190.6668 L44.0977766,194.5278 L44.5678026,194.9688 C44.8660883,195.2418 45.1011013,195.3948 45.2788675,195.4218 C45.4596468,195.4488 45.8212052,195.3408 46.3575169,195.1008 C46.5292571,195.0198 46.6316987,194.9868 46.6678545,194.9898 C46.7009974,194.9958 46.7672831,195.0468 46.8727377,195.1458 L47.3216727,195.5658 C47.5024519,195.7308 47.5355948,195.8688 47.4301403,195.9858 L45.0107117,198.5568 C44.9112831,198.6648 44.7756987,198.6438 44.6129974,198.4878 L44.1399584,198.0498 C44.0375169,197.9568 43.9832831,197.8698 43.9742442,197.8008 C43.9621922,197.7288 44.007387,197.5698 44.1068156,197.3298 C44.2845818,196.8888 44.3388156,196.5678 44.2574649,196.3638 C44.1821403,196.1598 44.016426,195.9408 43.7633351,195.7038 L43.3535688,195.3228 L39.2950753,199.6368 L40.6810494,200.9298 C41.1962701,201.4098 41.6271273,201.6588 41.9796468,201.6858 C42.3291532,201.7068 42.9889974,201.4938 43.9682182,201.0498 C44.1881662,200.9478 44.3870234,200.9808 44.5678026,201.1458 L45.0076987,201.5568 C45.179439,201.7188 45.2125818,201.8538 45.1071273,201.9678 L42.7961662,204.4248 Z" id="Fill-16" fill="#1A1919"></path>
                <path d="M57.6288,204.5595 L62.259761,202.8495 C62.4405403,202.7895 62.5670857,202.7025 62.6424104,202.5885 C62.6936312,202.5075 62.6514494,202.3605 62.5188779,202.1355 C62.3802805,201.9045 62.3441247,201.7395 62.4194494,201.6285 L62.6273455,201.3195 C62.7207481,201.1785 62.8683844,201.1755 63.0702545,201.3105 L66.5201247,203.6055 C66.7641766,203.7645 66.8395013,203.9145 66.7430857,204.0555 L66.5351896,204.3705 C66.4719169,204.4665 66.3935792,204.5145 66.3122286,204.5145 C66.2278649,204.5145 66.0500987,204.4785 65.7819429,204.4065 C64.8027221,204.1215 63.9470338,204.1125 63.2148779,204.3735 L59.7439169,205.6125 L58.8731636,213.2265 C58.8068779,213.8025 58.9515013,214.3965 59.3220987,215.0115 C59.4998649,215.3235 59.5420468,215.5425 59.4516571,215.6775 L59.2829299,215.9325 C59.1835013,216.0825 59.011761,216.0765 58.7677091,215.9175 L54.8809558,213.3345 C54.6308779,213.1665 54.5585662,213.0075 54.6640208,212.8545 L54.8206961,212.6115 C54.9140987,212.4765 55.070774,212.4195 55.2937351,212.4405 C55.6884364,212.4885 55.9264623,212.4585 55.998774,212.3475 C56.0499948,212.2755 56.0771117,212.1795 56.0891636,212.0595 L56.7821506,205.8255 L53.681787,210.4515 C53.5070338,210.7155 53.5190857,211.0155 53.7209558,211.3545 C53.8625662,211.5795 53.8926961,211.7505 53.8173714,211.8675 L53.5823584,212.2155 C53.5040208,212.3355 53.3624104,212.3265 53.1605403,212.1915 L49.505787,209.7645 C49.3340468,209.6505 49.282826,209.5395 49.3611636,209.4315 L49.6022026,209.0655 C49.6805403,208.9455 49.8522805,208.9095 50.1144104,208.9575 C50.5030857,209.0175 50.7863065,208.9155 50.9670857,208.6455 L57.1316571,199.4415 C57.3094234,199.1805 57.2973714,198.8805 57.0864623,198.5475 C56.9478649,198.3225 56.9207481,198.1485 56.9990857,198.0285 L57.2250597,197.6865 C57.3094234,197.5695 57.4480208,197.5755 57.6498909,197.7105 L61.3046442,200.1345 C61.4733714,200.2485 61.5245922,200.3625 61.4552935,200.4705 L61.2112416,200.8305 C61.1329039,200.9505 60.9581506,200.9895 60.6960208,200.9445 C60.3073455,200.8815 60.0271377,200.9835 59.8493714,201.2475 L57.6288,204.5595 Z" id="Fill-18" fill="#1A1919"></path>
                <path d="M74.9595013,213.2694 L71.6723325,217.0674 L74.3448519,218.2374 L74.9595013,213.2694 Z M75.2879169,210.1344 L75.4265143,209.5014 C75.4686961,209.2974 75.495813,209.1834 75.5048519,209.1594 C75.5289558,209.0994 75.6163325,209.0814 75.7639688,209.0994 L78.2436571,209.3814 C78.285839,209.3844 78.3250078,209.3964 78.3671896,209.4144 C78.4877091,209.4654 78.5419429,209.5524 78.5329039,209.6694 L76.893839,222.7944 C76.8576831,223.0314 76.8697351,223.2144 76.9179429,223.3464 C76.9691636,223.4754 77.0987221,223.6494 77.3096312,223.8684 C77.4723325,224.0334 77.5325922,224.1684 77.4873974,224.2704 L77.3186701,224.6484 C77.2614234,224.7864 77.1499429,224.8164 76.9842286,224.7444 L72.6786701,222.8544 C72.4526961,222.7554 72.3653195,222.6354 72.4255792,222.5004 L72.5912935,222.1224 C72.6485403,221.9904 72.8383584,221.9454 73.1547221,221.9694 C73.5433974,221.9994 73.7844364,221.9124 73.874826,221.7084 C73.8989299,221.6484 73.9170078,221.5794 73.9350857,221.4954 L74.1881766,219.4734 L70.8226701,217.9974 L69.5210597,219.4794 C69.463813,219.5454 69.4276571,219.5934 69.4125922,219.6264 C69.3372675,219.8004 69.4457351,220.0704 69.7410078,220.4454 C69.9248,220.6914 69.9971117,220.8624 69.9519169,220.9644 L69.7862026,221.3424 C69.7229299,221.4774 69.5692675,221.4924 69.3191896,221.3844 L66.6255792,220.2024 C66.3272935,220.0734 66.206774,219.9384 66.2700468,219.8004 L66.4658909,219.3534 C66.5171117,219.2334 66.6526961,219.1794 66.8756571,219.1914 C67.2914494,219.2004 67.6319169,219.0624 67.8940468,218.7684 L75.2879169,210.1344 Z" id="Fill-20" fill="#1A1919"></path>
                <path d="M104.156551,221.8182 C105.443096,221.1072 106.145122,220.2792 106.268655,219.3492 C106.386161,218.4732 106.02159,217.9782 105.186992,217.8702 C104.39759,217.7652 103.945642,218.1372 103.834161,218.9832 C103.743771,219.6492 103.852239,220.5942 104.156551,221.8182 M101.842577,224.4162 C100.995927,224.9532 100.528914,225.5442 100.444551,226.1922 C100.348135,226.9092 100.53494,227.6442 100.99894,228.4002 C101.459927,229.1532 102.07759,229.5792 102.839875,229.6782 C103.334005,229.7472 103.810057,229.6392 104.271044,229.3782 C103.463564,228.3852 102.65307,226.7322 101.842577,224.4162 M101.459927,223.1232 C101.053174,221.5992 100.905538,220.4232 101.010992,219.6072 C101.131512,218.6862 101.577434,217.9632 102.336706,217.4442 C103.102005,216.9252 104.081226,216.7452 105.271356,216.8982 C106.325901,217.0362 107.163512,217.3962 107.796239,217.9842 C108.428966,218.5692 108.703148,219.2082 108.612758,219.9072 C108.525382,220.5432 108.157797,221.0892 107.503979,221.5422 C106.856187,221.9982 105.831771,222.4992 104.436758,223.0362 C104.958005,224.7702 105.593745,226.3362 106.346992,227.7342 C107.03094,226.9782 107.419616,226.2552 107.510005,225.5682 C107.540135,225.3312 107.461797,225.1332 107.26294,224.9742 C107.067096,224.8152 106.844135,224.7072 106.594057,224.6562 C106.380135,224.6112 106.283719,224.5272 106.301797,224.4102 L106.36507,223.8912 C106.383148,223.7682 106.479564,223.7202 106.65733,223.7412 L110.77307,224.2782 C110.990005,224.3052 111.086421,224.3922 111.06533,224.5422 L111.002057,225.0222 C110.986992,225.1662 110.806213,225.2562 110.471771,225.2832 C110.068031,225.3282 109.787823,225.4182 109.631148,225.5622 C109.480499,225.7062 109.272603,226.0062 109.025538,226.4712 C108.450057,227.5212 107.820343,228.3852 107.133382,229.0632 C107.805278,230.0922 108.612758,230.6682 109.564862,230.7912 C109.721538,230.8122 109.917382,230.8302 110.152395,230.8422 L110.058992,231.5622 C109.314784,231.9582 108.582629,232.1052 107.856499,232.0092 C106.886317,231.8832 105.973382,231.3642 105.105642,230.4462 C103.78294,231.0372 102.535564,231.2592 101.372551,231.1092 C100.128187,230.9472 99.1549922,230.4882 98.4589922,229.7322 C97.7629922,228.9762 97.4857974,228.0942 97.6153558,227.0862 C97.7087584,226.3722 98.0130701,225.7392 98.5192519,225.1872 C99.0254338,224.6382 100.007668,223.9482 101.459927,223.1232" id="Fill-22" fill="#1A1919"></path>
                <path d="M140.144571,230.3436 L130.599429,231.6936 C130.376468,231.7266 130.252935,231.6666 130.231844,231.5226 L130.174597,231.1146 C130.156519,230.9856 130.289091,230.8206 130.572312,230.6226 C130.82239,230.4426 130.924831,230.2026 130.882649,229.9026 L129.318909,218.9496 C129.276727,218.6286 129.065818,218.4096 128.701247,218.2986 C128.454182,218.2296 128.318597,218.1216 128.297506,217.9776 L128.237247,217.5336 C128.219169,217.4166 128.32161,217.3416 128.544571,217.3116 L135.706442,216.2976 C135.839013,216.2796 136.083065,216.2376 136.44161,216.1656 C136.764,216.1026 136.96587,216.0636 137.053247,216.0516 C137.357558,216.0066 137.52026,216.0426 137.535325,216.1566 L137.924,218.8716 C137.945091,219.0156 137.936052,219.1026 137.896883,219.1356 C137.857714,219.1686 137.743221,219.1986 137.55039,219.2286 L137.035169,219.3006 C136.812208,219.3336 136.67361,219.2676 136.619377,219.0966 C136.447636,218.6286 136.203584,218.2446 135.890234,217.9386 C135.576883,217.6326 135.022494,217.5336 134.224052,217.6506 L132.467481,217.8996 L133.211688,223.1346 L133.856468,223.0416 C134.257195,222.9876 134.522338,222.9006 134.657922,222.7776 C134.790494,222.6516 134.932104,222.3036 135.073714,221.7366 C135.127948,221.5566 135.167117,221.4546 135.188208,221.4306 C135.215325,221.4066 135.299688,221.3886 135.438286,221.3676 L136.049922,221.2806 C136.290961,221.2476 136.423532,221.3046 136.444623,221.4576 L136.944779,224.9466 C136.962857,225.0966 136.863429,225.1836 136.640468,225.2166 L135.998701,225.3066 C135.857091,225.3276 135.757662,225.3156 135.69439,225.2796 C135.63413,225.2406 135.540727,225.1086 135.411169,224.8806 C135.185195,224.4666 134.962234,224.2236 134.754338,224.1546 C134.546442,224.0886 134.269247,224.0796 133.925766,224.1306 L133.368364,224.2056 L134.202961,230.0616 L136.083065,229.7946 C136.782078,229.6986 137.249091,229.5186 137.487117,229.2636 C137.725143,229.0056 137.972208,228.3576 138.234338,227.3226 C138.294597,227.0886 138.445247,226.9506 138.686286,226.9146 L139.28587,226.8336 C139.520883,226.7976 139.644416,226.8636 139.668519,227.0166 L140.144571,230.3436 Z" id="Fill-24" fill="#1A1919"></path>
                <path d="M152.484862,220.8837 L152.352291,214.1097 C152.355304,213.9987 152.346265,213.9057 152.322161,213.8337 C152.243823,213.5847 151.981694,213.4497 151.532758,213.4407 C151.189278,213.4227 150.996447,213.3447 150.951252,213.2067 L150.812655,212.7657 C150.76746,212.6157 150.866888,212.5017 151.119979,212.4237 L154.295668,211.4217 C154.563823,211.3377 154.720499,211.3677 154.771719,211.5177 L154.91333,211.9617 C154.958525,212.1087 154.871148,212.2677 154.648187,212.4297 C154.265538,212.7087 154.075719,213.0657 154.081745,213.4857 L154.383044,226.5237 C154.38907,226.7247 154.289642,226.8567 154.078732,226.9227 L153.533382,227.0937 C153.328499,227.1597 153.171823,227.1087 153.054317,226.9407 L145.74481,216.1917 C145.473642,215.8047 145.097018,215.5887 144.608914,215.5407 C144.343771,215.5137 144.190109,215.4327 144.144914,215.2947 L144.015356,214.8837 C143.973174,214.7457 144.066577,214.6437 144.298577,214.5717 L148.459512,213.2577 C148.673434,213.1947 148.806005,213.2307 148.854213,213.3807 L148.99281,213.8247 C149.031979,213.9387 148.947616,214.0737 148.754784,214.2357 C148.486629,214.4577 148.3872,214.6767 148.450473,214.8747 C148.474577,214.9527 148.516758,215.0457 148.577018,215.1417 L152.484862,220.8837 Z" id="Fill-26" fill="#1A1919"></path>
                <path d="M175.688478,217.4619 L167.089413,221.8059 C166.887543,221.9019 166.751958,221.8899 166.685673,221.7579 L166.498868,221.3919 C166.441621,221.2749 166.510919,221.0769 166.718816,220.7949 C166.896582,220.5459 166.91466,220.2849 166.776062,220.0149 L161.753413,210.1479 C161.60879,209.8569 161.340634,209.7219 160.957984,209.7309 C160.701881,209.7429 160.542192,209.6859 160.472894,209.5569 L160.271023,209.1549 C160.21679,209.0499 160.292114,208.9449 160.490971,208.8459 L166.94479,205.5879 C167.062296,205.5279 167.279231,205.4079 167.595595,205.2279 C167.881829,205.0659 168.062608,204.9639 168.134919,204.9249 C168.412114,204.7839 168.574816,204.7659 168.626036,204.8679 L169.873413,207.3129 C169.939699,207.4419 169.96079,207.5259 169.936686,207.5709 C169.912582,207.6159 169.813153,207.6819 169.632374,207.7749 L169.168374,208.0059 C168.969517,208.1079 168.815855,208.0869 168.713413,207.9459 C168.400062,207.5559 168.04453,207.2709 167.649829,207.0819 C167.255127,206.8959 166.694712,206.9829 165.974608,207.3459 L164.395803,208.1439 L166.797153,212.8599 L167.372634,212.5689 C167.731179,212.3859 167.957153,212.2179 168.04453,212.0559 C168.131906,211.8999 168.149984,211.5249 168.10479,210.9399 C168.092738,210.7539 168.098764,210.6429 168.113829,210.6129 C168.131906,210.5829 168.204218,210.5349 168.327751,210.4749 L168.879127,210.1959 C169.096062,210.0849 169.240686,210.0999 169.312997,210.2379 L170.912894,213.3819 C170.982192,213.5169 170.909881,213.6339 170.711023,213.7329 L170.13253,214.0239 C170.008997,214.0869 169.909569,214.1109 169.84027,214.0929 C169.767958,214.0779 169.635387,213.9849 169.439543,213.8079 C169.093049,213.4899 168.803803,213.3339 168.586868,213.3369 C168.363906,213.3369 168.098764,213.4149 167.791439,213.5709 L167.28827,213.8259 L169.975855,219.0999 L171.669153,218.2479 C172.295855,217.9299 172.681517,217.6119 172.82614,217.2909 C172.967751,216.9699 172.991855,216.2769 172.901465,215.2119 C172.883387,214.9719 172.985829,214.7949 173.202764,214.6869 L173.742088,214.4109 C173.952997,214.3089 174.091595,214.3239 174.160894,214.4649 L175.688478,217.4619 Z" id="Fill-28" fill="#1A1919"></path>
                <path d="M182.329403,211.2978 L175.857506,202.3068 C175.670701,202.0488 175.384468,201.9588 174.998805,202.0308 C174.739688,202.0908 174.567948,202.0578 174.480571,201.9318 L174.239532,201.5988 C174.155169,201.4848 174.212416,201.3558 174.411273,201.2118 L177.981662,198.6648 C178.147377,198.5448 178.270909,198.5388 178.349247,198.6468 L178.599325,198.9948 C178.680675,199.1118 178.656571,199.2858 178.524,199.5168 C178.334182,199.8618 178.331169,200.1618 178.508935,200.4138 L185.348416,209.9118 L186.32161,209.2188 C186.894078,208.8108 187.252623,208.3758 187.40026,207.9168 C187.544883,207.4548 187.493662,206.8848 187.237558,206.2128 C187.141143,205.9488 187.092935,205.7898 187.095948,205.7388 C187.098961,205.6878 187.156208,205.6218 187.264675,205.5498 L187.797974,205.1628 C188.00587,205.0188 188.150494,204.9978 188.228831,205.1088 L190.18426,207.8328 L182.895844,213.0288 C182.645766,213.2088 182.464987,213.2238 182.356519,213.0708 L182.148623,212.7828 C182.06426,212.6658 182.103429,212.4858 182.263117,212.2398 C182.49813,211.8738 182.516208,211.5618 182.329403,211.2978" id="Fill-30" fill="#1A1919"></path>
                <path d="M196.217465,193.7928 L199.534764,197.1888 C199.760738,197.4198 200.059023,197.4708 200.435647,197.3298 C200.679699,197.2428 200.851439,197.2518 200.950868,197.3538 L201.243127,197.6538 C201.345569,197.7588 201.3064,197.8968 201.13466,198.0648 L197.983075,201.1098 C197.832426,201.2538 197.711906,201.2778 197.621517,201.1848 L197.314192,200.8668 C197.217777,200.7708 197.217777,200.5968 197.317205,200.3478 C197.45279,199.9788 197.410608,199.6818 197.19066,199.4538 L193.873361,196.0518 L187.431595,193.4718 C187.042919,193.3248 186.669309,193.3458 186.310764,193.5228 C186.111906,193.6278 185.961257,193.6278 185.855803,193.5228 L185.527387,193.1868 C185.430971,193.0878 185.449049,192.9768 185.578608,192.8538 L188.83866,189.7008 C189.025465,189.5178 189.176114,189.4818 189.290608,189.6018 L189.606971,189.9228 C189.685309,190.0038 189.649153,190.1568 189.50453,190.3848 C189.278556,190.7388 189.233361,190.9848 189.362919,191.1168 C189.405101,191.1648 189.468374,191.2038 189.546712,191.2308 L194.198764,193.0578 L192.619958,188.7978 C192.553673,188.6388 192.478348,188.5098 192.375906,188.4048 C192.210192,188.2338 191.932997,188.2518 191.544322,188.4528 C191.318348,188.5728 191.167699,188.5938 191.095387,188.5128 L190.745881,188.1558 C190.643439,188.0538 190.670556,187.9278 190.827231,187.7778 L193.343075,185.3478 C193.535906,185.1588 193.683543,185.1108 193.776945,185.2098 L194.120426,185.5608 C194.213829,185.6568 194.192738,185.8308 194.05414,186.0798 C193.79201,186.5718 193.728738,187.0008 193.855283,187.3608 L196.217465,193.7928 Z" id="Fill-32" fill="#1A1919"></path>
                <path d="M208.698764,178.7139 L203.733361,175.0869 C203.474244,174.8979 203.172945,174.9009 202.832478,175.0899 C202.603491,175.2219 202.425725,175.2459 202.305205,175.1559 L201.970764,174.9099 C201.85627,174.8259 201.865309,174.6879 202.012945,174.4929 L203.893049,171.9369 C204.013569,171.7749 204.128062,171.7269 204.23653,171.8049 L204.586036,172.0599 C204.70053,172.1469 204.736686,172.3149 204.685465,172.5699 C204.607127,172.9629 204.691491,173.2509 204.944582,173.4339 L215.119439,180.8709 C215.28214,180.9879 215.28214,181.1529 215.119439,181.3749 L214.754868,181.8759 C214.583127,182.0979 214.387283,182.1999 214.158296,182.1699 L202.461881,180.8319 L209.488166,185.9679 C209.753309,186.1599 210.054608,186.1569 210.395075,185.9649 C210.627075,185.8359 210.795803,185.8119 210.913309,185.8959 L211.25679,186.1479 C211.371283,186.2319 211.359231,186.3699 211.211595,186.5649 L209.355595,189.0879 C209.235075,189.2529 209.120582,189.2949 209.012114,189.2199 L208.656582,188.9589 C208.545101,188.8779 208.514971,188.7069 208.572218,188.4429 C208.64453,188.0559 208.55414,187.7709 208.298036,187.5849 L199.343439,181.0389 C199.084322,180.8499 198.783023,180.8529 198.442556,181.0419 C198.213569,181.1739 198.035803,181.1979 197.915283,181.1109 L197.583855,180.8649 C197.463335,180.7809 197.4784,180.6429 197.623023,180.4449 L199.382608,178.0599 C199.509153,177.8889 199.608582,177.7809 199.680894,177.7419 C199.753205,177.6999 199.861673,177.6909 200.015335,177.7089 L208.698764,178.7139 Z" id="Fill-34" fill="#1A1919"></path>
            </g>
        </g>
    </g>
</svg>