<?xml version="1.0" encoding="UTF-8"?>
<svg width="400px" height="331px" viewBox="0 0 400 331" version="1.1" xmlns="http://www.w3.org/2000/svg" xmlns:xlink="http://www.w3.org/1999/xlink">
    <!-- Generator: Sketch 54.1 (76490) - https://sketchapp.com -->
    <title>Deka&amp;Evelyn</title>
    <desc>Created with Sketch.</desc>
    <g id="Page-1" stroke="none" stroke-width="1" fill="none" fill-rule="evenodd">
        <path d="M93.6992188,95 L94.5195312,92.4707031 C98.9856994,92.4707031 102.369455,91.5478608 104.670898,89.7021484 C106.972342,87.8564361 108.874992,84.4043222 110.378906,79.3457031 L127.195312,20.8984375 C128.289068,17.0702934 128.835938,13.9257936 128.835938,11.4648438 C128.835938,9.3684791 128.197923,7.81901543 126.921875,6.81640625 C125.645827,5.81379707 122.387396,5.15299639 117.146484,4.83398438 L117.966797,2.3046875 L149.685547,2.3046875 C166.410891,2.3046875 178.4762,5.68844272 185.881836,12.4560547 C193.287472,19.2236667 196.990234,28.7141316 196.990234,40.9277344 C196.990234,49.5410587 195.281267,56.7642937 191.863281,62.5976562 C185.164029,73.9909424 177.211635,82.2395578 168.005859,87.34375 C158.800084,92.4479422 146.974031,95 132.527344,95 L93.6992188,95 Z M151.599609,7.7734375 L131.228516,78.046875 C130.27148,81.2825683 129.792969,83.6067638 129.792969,85.0195312 C129.792969,86.2955793 130.317052,87.3209597 131.365234,88.0957031 C132.732429,89.1438854 134.760403,89.6679688 137.449219,89.6679688 C143.875032,89.6679688 149.617162,87.6627805 154.675781,83.6523438 C161.147168,78.5025784 166.080387,71.5755644 169.475586,62.8710938 C172.870785,54.1666231 174.568359,45.5306418 174.568359,36.9628906 C174.568359,30.764943 173.588551,25.3646063 171.628906,20.7617188 C169.669261,16.1588312 166.638692,12.6497517 162.537109,10.234375 C159.666001,8.5937418 156.020204,7.7734375 151.599609,7.7734375 Z M221.736328,69.3652344 C221.32617,72.3274888 221.121094,74.7656154 221.121094,76.6796875 C221.121094,80.0976733 222.112295,82.832021 224.094727,84.8828125 C226.077158,86.933604 228.731754,87.9589844 232.058594,87.9589844 C235.248714,87.9589844 238.450179,87.1842525 241.663086,85.6347656 C244.875993,84.0852787 248.601541,81.3737173 252.839844,77.5 L254.890625,79.3457031 C249.649713,85.6803702 244.545598,90.1920438 239.578125,92.8808594 C234.610652,95.5696749 229.119171,96.9140625 223.103516,96.9140625 C215.4928,96.9140625 210.229181,95.0911641 207.3125,91.4453125 C204.395819,87.7994609 202.9375,83.5840083 202.9375,78.7988281 C202.9375,71.3248324 205.113585,63.8509488 209.46582,56.3769531 C213.818056,48.9029574 219.742476,42.9101788 227.239258,38.3984375 C234.73604,33.8866962 242.266889,31.6308594 249.832031,31.6308594 C253.660175,31.6308594 256.554027,32.5423086 258.513672,34.3652344 C260.473317,36.1881602 261.453125,38.4895694 261.453125,41.2695312 C261.453125,44.5963708 260.496103,47.8320155 258.582031,50.9765625 C255.938789,55.2604381 252.611999,58.712552 248.601562,61.3330078 C244.591126,63.9534636 240.102238,65.9472588 235.134766,67.3144531 C231.807926,68.225916 227.341825,68.9095029 221.736328,69.3652344 Z M222.351562,65.8105469 C226.361999,65.218096 229.47232,64.4091848 231.682617,63.3837891 C233.892915,62.3583933 236.057607,60.7177847 238.176758,58.4619141 C240.295909,56.2060434 242.130201,53.3577646 243.679688,49.9169922 C245.229174,46.4762198 246.003906,43.2519682 246.003906,40.2441406 C246.003906,38.9680926 245.65072,37.9654984 244.944336,37.2363281 C244.237952,36.5071578 243.337896,36.1425781 242.244141,36.1425781 C240.05663,36.1425781 237.595717,37.6692556 234.861328,40.7226562 C229.848282,46.2825799 225.678402,54.6451265 222.351562,65.8105469 Z M307.595703,0.185546875 L288.728516,64.8535156 L304.382812,50.3613281 L309.578125,45.7128906 C311.082039,44.1634037 312.130205,42.8418023 312.722656,41.7480469 C313.087241,41.0644497 313.269531,40.4264353 313.269531,39.8339844 C313.269531,38.8769483 312.813807,38.0794303 311.902344,37.4414062 C310.990881,36.8033822 308.780617,36.3704438 305.271484,36.1425781 L306.023438,33.5449219 L333.845703,33.5449219 L333.162109,36.1425781 C329.880843,36.9173216 327.214854,37.8059846 325.164062,38.8085938 C323.569002,39.5833372 321.609387,40.8593661 319.285156,42.6367188 C315.821597,45.3255343 313.337898,47.3990812 311.833984,48.8574219 L308.826172,51.6601562 L312.996094,70.5273438 C314.591154,77.8190469 315.776038,82.0344995 316.550781,83.1738281 C317.052086,83.8574253 317.644528,84.1992188 318.328125,84.1992188 C319.923185,84.1992188 321.814442,82.3307479 324.001953,78.59375 C324.320965,78.0924454 324.753904,77.3860723 325.300781,76.4746094 L327.830078,78.046875 C324.412092,84.4271152 320.561219,89.2805823 316.277344,92.6074219 C313.406236,94.840506 310.808605,95.9570312 308.484375,95.9570312 C306.160145,95.9570312 304.223315,95.1253338 302.673828,93.4619141 C301.124341,91.7984943 299.574878,87.4349312 298.025391,80.3710938 L294.607422,64.8535156 L287.087891,71.5527344 L280.251953,95 L262.820312,95 L285.515625,17.8222656 C286.472661,14.5409992 286.951172,12.3307349 286.951172,11.1914062 C286.951172,10.1432239 286.72331,9.28874028 286.267578,8.62792969 C285.811847,7.96711909 285.185225,7.47721514 284.387695,7.15820312 C283.590165,6.83919111 282.006522,6.6796875 279.636719,6.6796875 L280.251953,4.15039062 L303.494141,0.185546875 L307.595703,0.185546875 Z M399.060547,32.5878906 L385.798828,78.046875 L384.431641,83.5839844 C384.294921,84.2675815 384.226562,84.7688786 384.226562,85.0878906 C384.226562,85.6347684 384.420245,86.1132792 384.807617,86.5234375 C385.194989,86.9335958 385.593748,87.1386719 386.003906,87.1386719 C386.960942,87.1386719 388.282544,86.4095125 389.96875,84.9511719 C390.652347,84.358721 392.292956,82.2623878 394.890625,78.6621094 L397.283203,79.8925781 C394.04751,85.8170869 390.595396,90.1350776 386.926758,92.8466797 C383.25812,95.5582818 379.304709,96.9140625 375.066406,96.9140625 C372.468737,96.9140625 370.486335,96.2418687 369.119141,94.8974609 C367.751946,93.5530532 367.068359,91.855479 367.068359,89.8046875 C367.068359,88.0273349 367.797519,84.7233314 369.255859,79.8925781 L370.896484,74.3554688 C365.61,83.4245245 360.52867,89.8502415 355.652344,93.6328125 C352.826809,95.8203234 349.819026,96.9140625 346.628906,96.9140625 C342.436177,96.9140625 339.405608,95.1937021 337.537109,91.7529297 C335.66861,88.3121573 334.734375,84.427105 334.734375,80.0976562 C334.734375,73.6718429 336.693991,66.3004973 340.613281,57.9833984 C344.532572,49.6662996 349.68226,42.9785409 356.0625,37.9199219 C361.303412,33.7271926 366.225237,31.6308594 370.828125,31.6308594 C373.380221,31.6308594 375.430982,32.3714119 376.980469,33.8525391 C378.529956,35.3336663 379.669267,38.0338346 380.398438,41.953125 L382.859375,33.5449219 L399.060547,32.5878906 Z M377.185547,45.5761719 C377.185547,41.8847472 376.615891,39.2187582 375.476562,37.578125 C374.656246,36.4387964 373.539721,35.8691406 372.126953,35.8691406 C370.714186,35.8691406 369.255867,36.5527275 367.751953,37.9199219 C364.698552,40.7454568 361.405942,46.4761938 357.874023,55.1123047 C354.342105,63.7484156 352.576172,71.2109061 352.576172,77.5 C352.576172,79.9153767 352.974931,81.6585233 353.772461,82.7294922 C354.569991,83.8004611 355.447261,84.3359375 356.404297,84.3359375 C358.455088,84.3359375 360.528635,83.1510535 362.625,80.78125 C365.632828,77.4088373 368.344389,73.2845296 370.759766,68.4082031 C375.043641,59.840452 377.185547,52.229851 377.185547,45.5761719 Z M333.640625,158.867188 C333.321613,156.406238 333.070964,154.18458 332.888672,152.202148 C332.706379,150.219717 332.615234,148.47657 332.615234,146.972656 C332.615234,137.858027 335.440727,130.281606 341.091797,124.243164 C346.742867,118.204722 353.419232,115.185547 361.121094,115.185547 C366.042993,115.185547 369.996404,116.575507 372.981445,119.355469 C375.966486,122.135431 377.458984,125.46222 377.458984,129.335938 C377.458984,134.212264 376.000666,138.40493 373.083984,141.914062 C368.754536,147.200547 361.827522,151.871725 352.302734,155.927734 C355.356135,165.72596 357.452468,172.060533 358.591797,174.931641 C359.731125,177.802749 361.257803,180.924462 363.171875,184.296875 C365.769544,181.425767 367.638015,178.634454 368.777344,175.922852 C369.916672,173.211249 370.486328,170.989592 370.486328,169.257812 C370.486328,167.799472 370.05339,166.523443 369.1875,165.429688 C368.32161,164.335932 366.908864,163.538414 364.949219,163.037109 L365.769531,160.576172 L392.019531,160.576172 L390.994141,163.037109 C388.533191,163.62956 386.459644,164.632154 384.773438,166.044922 C383.087231,167.457689 379.965518,171.217417 375.408203,177.324219 C372.17251,181.699241 368.959651,185.550114 365.769531,188.876953 C369.415383,193.935572 372.742172,197.421865 375.75,199.335938 C377.664072,200.611986 379.85155,201.25 382.3125,201.25 C383.725267,201.25 384.955724,201.022138 386.003906,200.566406 C387.052089,200.110675 388.328117,199.244798 389.832031,197.96875 L392.019531,197.96875 C389.83202,202.662784 386.938169,206.19465 383.337891,208.564453 C379.737612,210.934257 375.658877,212.119141 371.101562,212.119141 C367.273418,212.119141 363.832698,211.355802 360.779297,209.829102 C357.725896,208.302401 354.490251,205.716164 351.072266,202.070312 C346.378232,205.397152 341.650089,207.903637 336.887695,209.589844 C332.125302,211.27605 327.3288,212.119141 322.498047,212.119141 C315.479783,212.119141 309.897156,210.159525 305.75,206.240234 C301.602844,202.320944 299.529297,197.718125 299.529297,192.431641 C299.529297,188.238911 300.41796,184.50197 302.195312,181.220703 C303.972665,177.939437 307.345027,174.430357 312.3125,170.693359 C317.279973,166.956362 324.389277,163.014344 333.640625,158.867188 Z M351.072266,150.800781 C354.854837,148.111966 357.611971,145.354832 359.34375,142.529297 C361.759127,138.65558 362.966797,134.531272 362.966797,130.15625 C362.966797,126.874984 362.28321,124.345712 360.916016,122.568359 C359.82226,121.246738 358.4323,120.585938 356.746094,120.585938 C354.695302,120.585938 353.07748,121.406242 351.892578,123.046875 C350.160799,125.507825 349.294922,129.313125 349.294922,134.462891 C349.294922,136.787121 349.443032,139.304999 349.739258,142.016602 C350.035483,144.728204 350.479815,147.656234 351.072266,150.800781 Z M334.666016,163.994141 C329.425104,166.865249 325.676769,169.838852 323.420898,172.915039 C321.165028,175.991226 320.037109,179.671203 320.037109,183.955078 C320.037109,189.19599 321.666325,193.605125 324.924805,197.182617 C328.183285,200.760109 331.817688,202.548828 335.828125,202.548828 C337.559904,202.548828 339.473948,202.161462 341.570312,201.386719 C343.666677,200.611975 345.9453,199.472664 348.40625,197.96875 C345.626288,193.776021 342.948906,188.489615 340.374023,182.109375 C337.799141,175.729135 335.896491,169.690784 334.666016,163.994141 Z M58.3574219,212.431641 L48.0351562,248.388672 L51.1796875,248.388672 C59.4739998,248.388672 65.523744,247.294933 69.3291016,245.107422 C73.1344591,242.919911 76.3587107,239.046252 79.0019531,233.486328 L81.53125,233.486328 L71.140625,269.580078 L68.7480469,269.580078 C69.1582052,267.164701 69.3632812,265.205086 69.3632812,263.701172 C69.3632812,261.194649 68.6227288,259.143888 67.1416016,257.548828 C65.6604744,255.953768 63.7350379,254.814457 61.3652344,254.130859 C59.8157475,253.675128 56.602889,253.447266 51.7265625,253.447266 L46.3945312,253.447266 L37.5078125,284.550781 C36.733069,287.28517 36.3457031,289.313144 36.3457031,290.634766 C36.3457031,291.682948 36.8470002,292.526038 37.8496094,293.164062 C39.30795,294.075525 42.0650839,294.53125 46.1210938,294.53125 C53.9141015,294.53125 61.2512677,292.879248 68.1328125,289.575195 C75.0143573,286.271142 81.1894258,281.269565 86.6582031,274.570312 L89.4609375,274.570312 L79.8222656,300 L0.525390625,300 L1.34570312,297.470703 C5.99416387,297.470703 9.38931221,296.593433 11.53125,294.838867 C13.6731878,293.084301 15.6100174,289.222035 17.3417969,283.251953 L34.7734375,223.574219 C35.7304735,220.247379 36.2089844,217.626963 36.2089844,215.712891 C36.2089844,213.981111 35.5937562,212.648117 34.3632812,211.713867 C33.1328063,210.779618 30.3301,210.152996 25.9550781,209.833984 L26.7070312,207.304688 L100.603516,207.304688 L94.65625,230.478516 L92.1953125,230.478516 C92.0130199,225.921201 91.3066468,222.708343 90.0761719,220.839844 C88.1620998,217.923162 85.6214351,215.79265 82.4541016,214.448242 C79.286768,213.103834 74.148473,212.431641 67.0390625,212.431641 L58.3574219,212.431641 Z M118.103516,301.914062 L115.642578,301.914062 C115.779298,298.177065 115.847656,295.351572 115.847656,293.4375 C115.847656,288.242162 115.448897,280.734099 114.651367,270.913086 C113.853837,261.092073 112.953781,254.541032 111.951172,251.259766 C111.176428,248.844389 110.151048,247.089849 108.875,245.996094 C108.00911,245.266923 106.892585,244.902344 105.525391,244.902344 C104.750647,244.902344 103.816412,244.993489 102.722656,245.175781 L102.722656,242.714844 L125.486328,236.630859 C130.043643,249.072328 132.253907,264.999903 132.117188,284.414062 C138.81644,278.033822 143.430651,272.861348 145.959961,268.896484 C148.48927,264.931621 149.753906,261.627617 149.753906,258.984375 C149.753906,256.88801 148.967781,254.757498 147.395508,252.592773 C145.823234,250.428049 144.843426,248.889979 144.456055,247.978516 C144.068683,247.067053 143.875,246.064459 143.875,244.970703 C143.875,242.6009 144.649732,240.618498 146.199219,239.023438 C147.748706,237.428377 149.708321,236.630859 152.078125,236.630859 C154.584648,236.630859 156.521478,237.428377 157.888672,239.023438 C159.802744,241.256522 160.759766,243.899724 160.759766,246.953125 C160.759766,250.097672 160.201503,253.185206 159.084961,256.21582 C157.968419,259.246434 156.054376,262.823873 153.342773,266.948242 C150.631171,271.072612 147.611996,274.820947 144.285156,278.193359 C138.178355,284.391307 129.451229,292.298129 118.103516,301.914062 Z M182.839844,274.365234 C182.429685,277.327489 182.224609,279.765615 182.224609,281.679688 C182.224609,285.097673 183.21581,287.832021 185.198242,289.882812 C187.180674,291.933604 189.83527,292.958984 193.162109,292.958984 C196.352229,292.958984 199.553695,292.184253 202.766602,290.634766 C205.979508,289.085279 209.705057,286.373717 213.943359,282.5 L215.994141,284.345703 C210.753229,290.68037 205.649113,295.192044 200.681641,297.880859 C195.714168,300.569675 190.222686,301.914062 184.207031,301.914062 C176.596316,301.914062 171.332697,300.091164 168.416016,296.445312 C165.499334,292.799461 164.041016,288.584008 164.041016,283.798828 C164.041016,276.324832 166.217101,268.850949 170.569336,261.376953 C174.921571,253.902957 180.845991,247.910179 188.342773,243.398438 C195.839556,238.886696 203.370405,236.630859 210.935547,236.630859 C214.763691,236.630859 217.657542,237.542309 219.617188,239.365234 C221.576833,241.18816 222.556641,243.489569 222.556641,246.269531 C222.556641,249.596371 221.599619,252.832016 219.685547,255.976562 C217.042304,260.260438 213.715515,263.712552 209.705078,266.333008 C205.694641,268.953464 201.205754,270.947259 196.238281,272.314453 C192.911442,273.225916 188.445341,273.909503 182.839844,274.365234 Z M183.455078,270.810547 C187.465515,270.218096 190.575835,269.409185 192.786133,268.383789 C194.99643,267.358393 197.161122,265.717785 199.280273,263.461914 C201.399425,261.206043 203.233716,258.357765 204.783203,254.916992 C206.33269,251.47622 207.107422,248.251968 207.107422,245.244141 C207.107422,243.968093 206.754235,242.965498 206.047852,242.236328 C205.341468,241.507158 204.441412,241.142578 203.347656,241.142578 C201.160145,241.142578 198.699232,242.669256 195.964844,245.722656 C190.951798,251.28258 186.781918,259.645126 183.455078,270.810547 Z M267.400391,205.185547 L244.773438,282.158203 C243.451816,286.715518 242.791016,289.563796 242.791016,290.703125 C242.791016,291.295576 242.984699,291.796873 243.37207,292.207031 C243.759442,292.61719 244.180987,292.822266 244.636719,292.822266 C245.457035,292.822266 246.231767,292.503258 246.960938,291.865234 C249.148448,290.087882 251.586575,287.080099 254.275391,282.841797 L256.941406,284.072266 C252.611958,290.999384 248.350932,295.943996 244.158203,298.90625 C241.287095,300.911468 238.23374,301.914062 234.998047,301.914062 C231.990219,301.914062 229.597665,301.105151 227.820312,299.487305 C226.04296,297.869458 225.154297,295.921235 225.154297,293.642578 C225.154297,291.956372 225.701166,289.24481 226.794922,285.507812 L245.251953,222.480469 C246.254562,219.01691 246.755859,216.7155 246.755859,215.576172 C246.755859,214.482416 246.277349,213.61654 245.320312,212.978516 C244.044264,212.067053 242.107435,211.679687 239.509766,211.816406 L240.261719,209.21875 L263.298828,205.185547 L267.400391,205.185547 Z M265.554688,242.783203 L286.609375,236.630859 C288.295581,238.727224 289.480465,240.709626 290.164062,242.578125 C291.394537,245.813818 292.260414,250.279919 292.761719,255.976562 C293.718755,267.187556 294.379555,279.150327 294.744141,291.865234 C299.620467,285.439421 305.203094,276.940157 311.492188,266.367188 C313.40626,263.177067 314.363281,260.169285 314.363281,257.34375 C314.363281,255.566397 313.258149,253.880216 311.047852,252.285156 C308.837554,250.690096 307.458987,249.448247 306.912109,248.55957 C306.365232,247.670894 306.091797,246.520189 306.091797,245.107422 C306.091797,242.828765 306.923494,240.846363 308.586914,239.160156 C310.250334,237.47395 312.266915,236.630859 314.636719,236.630859 C317.143242,236.630859 319.319327,237.587881 321.165039,239.501953 C323.010751,241.416025 323.933594,243.671862 323.933594,246.269531 C323.933594,249.322932 323.07911,252.866191 321.370117,256.899414 C319.661124,260.932637 315.662141,267.848258 309.373047,277.646484 C301.3066,290.179099 293.399778,301.025345 285.652344,310.185547 C280.684871,316.018909 276.674494,320.222969 273.621094,322.797852 C270.567693,325.372734 267.400407,327.412102 264.119141,328.916016 C262.159495,329.781905 260.222666,330.214844 258.308594,330.214844 C255.710925,330.214844 253.489267,329.303395 251.643555,327.480469 C249.797842,325.657543 248.875,323.492851 248.875,320.986328 C248.875,318.479805 249.706697,316.360686 251.370117,314.628906 C253.033537,312.897127 254.98176,312.03125 257.214844,312.03125 C259.994806,312.03125 262.546863,313.489569 264.871094,316.40625 C266.420581,318.365895 267.69661,319.345703 268.699219,319.345703 C269.747401,319.345703 270.772781,319.049482 271.775391,318.457031 C273.142585,317.727861 275.056628,316.04168 277.517578,313.398438 C277.791017,307.701794 277.927734,303.395197 277.927734,300.478516 C277.927734,296.559225 277.745445,291.044957 277.380859,283.935547 L276.21875,257.890625 C275.808592,253.105445 274.783211,249.664724 273.142578,247.568359 C271.86653,246.018872 270.203135,245.244141 268.152344,245.244141 C267.3776,245.244141 266.511724,245.312499 265.554688,245.449219 L265.554688,242.783203 Z M361.53125,236.630859 L353.054688,265.957031 C358.751331,257.38928 363.012356,251.533219 365.837891,248.388672 C369.985047,243.831357 373.562485,240.73243 376.570312,239.091797 C379.57814,237.451164 382.403633,236.630859 385.046875,236.630859 C387.416679,236.630859 389.444653,237.508129 391.130859,239.262695 C392.817066,241.017261 393.660156,243.307278 393.660156,246.132812 C393.660156,248.684909 393.113287,251.783836 392.019531,255.429688 L383.269531,284.619141 C382.540361,287.171237 382.175781,288.834632 382.175781,289.609375 C382.175781,290.065106 382.346678,290.475259 382.688477,290.839844 C383.030275,291.204429 383.383462,291.386719 383.748047,291.386719 C384.203778,291.386719 384.682289,291.204429 385.183594,290.839844 C386.778654,289.518223 388.396476,287.649752 390.037109,285.234375 C390.447268,284.596351 391.108068,283.639329 392.019531,282.363281 L394.617188,283.935547 C387.917935,295.192114 380.87699,300.820312 373.494141,300.820312 C370.668606,300.820312 368.458341,300.091153 366.863281,298.632812 C365.268221,297.174472 364.470703,295.351573 364.470703,293.164062 C364.470703,291.24999 365.017573,288.401712 366.111328,284.619141 L374.65625,255.429688 C375.248701,253.515615 375.544922,252.102869 375.544922,251.191406 C375.544922,250.690102 375.339846,250.24577 374.929688,249.858398 C374.519529,249.471027 374.041018,249.277344 373.494141,249.277344 C371.762361,249.277344 369.666028,250.462228 367.205078,252.832031 C360.915984,258.847686 354.832061,267.802675 348.953125,279.697266 L343.347656,300 L325.916016,300 L338.699219,256.113281 C339.929694,251.783833 340.544922,248.707691 340.544922,246.884766 C340.544922,246.110022 340.362632,245.460615 339.998047,244.936523 C339.633462,244.412432 339.04102,244.00228 338.220703,243.706055 C337.400387,243.409829 335.850923,243.261719 333.572266,243.261719 L334.324219,240.664062 L357.361328,236.630859 L361.53125,236.630859 Z" id="Deka&amp;Evelyn" fill="#FFFFFF" fill-rule="nonzero"></path>
    </g>
</svg>