<?xml version="1.0" encoding="UTF-8"?>
<svg width="30px" height="30px" viewBox="0 0 30 30" version="1.1" xmlns="http://www.w3.org/2000/svg" xmlns:xlink="http://www.w3.org/1999/xlink">
    <!-- Generator: Sketch 55.2 (78181) - https://sketchapp.com -->
    <title>Group 7</title>
    <desc>Created with Sketch.</desc>
    <g id="Page-1" stroke="none" stroke-width="1" fill="none" fill-rule="evenodd">
        <g id="Group-7">
            <circle id="Oval-Copy-9" fill="#C29898" cx="15" cy="15" r="15"></circle>
            <path d="M15,5.25 C16.3802152,5.25 17.6790304,5.51041406 18.8964844,6.03125 C20.1139384,6.55208594 21.1751257,7.26496943 22.0800781,8.16992188 C22.9850306,9.07487432 23.6979141,10.1360616 24.21875,11.3535156 C24.7395859,12.5709696 25,13.8697848 25,15.25 C25,16.6302152 24.7395859,17.9290304 24.21875,19.1464844 C23.6979141,20.3639384 22.9850306,21.4251257 22.0800781,22.3300781 C21.1751257,23.2350306 20.1139384,23.9479141 18.8964844,24.46875 C17.6790304,24.9895859 16.3802152,25.25 15,25.25 C13.6197848,25.25 12.3209696,24.9895859 11.1035156,24.46875 C9.88606162,23.9479141 8.82487432,23.2350306 7.91992188,22.3300781 C7.01496943,21.4251257 6.30208594,20.3639384 5.78125,19.1464844 C5.26041406,17.9290304 5,16.6302152 5,15.25 C5,13.8697848 5.26041406,12.5709696 5.78125,11.3535156 C6.30208594,10.1360616 7.01496943,9.07487432 7.91992188,8.16992188 C8.82487432,7.26496943 9.88606162,6.55208594 11.1035156,6.03125 C12.3209696,5.51041406 13.6197848,5.25 15,5.25 Z M15,24.0195312 C16.2109436,24.0195312 17.3469999,23.7884138 18.4082031,23.3261719 C19.4694063,22.86393 20.3938763,22.2356811 21.1816406,21.4414062 C21.969405,20.6471314 22.5943987,19.7194063 23.0566406,18.6582031 C23.5188825,17.5969999 23.75,16.4609436 23.75,15.25 C23.75,14.0390564 23.5188825,12.9030001 23.0566406,11.8417969 C22.5943987,10.7805937 21.969405,9.85612373 21.1816406,9.06835938 C20.3938763,8.28059502 19.4694063,7.65560127 18.4082031,7.19335938 C17.3469999,6.73111748 16.2109436,6.5 15,6.5 C13.7890564,6.5 12.6530001,6.73111748 11.5917969,7.19335938 C10.5305937,7.65560127 9.60612373,8.28059502 8.81835938,9.06835938 C8.03059502,9.85612373 7.40560127,10.7805937 6.94335938,11.8417969 C6.48111748,12.9030001 6.25,14.0390564 6.25,15.25 C6.25,16.4609436 6.48111748,17.5969999 6.94335938,18.6582031 C7.40560127,19.7194063 8.03059502,20.6471314 8.81835938,21.4414062 C9.60612373,22.2356811 10.5305937,22.86393 11.5917969,23.3261719 C12.6530001,23.7884138 13.7890564,24.0195312 15,24.0195312 Z M15.390625,11.4804688 C15.520834,11.3502598 15.6705721,11.2851562 15.8398438,11.2851562 C16.0091154,11.2851562 16.1588535,11.3502598 16.2890625,11.4804688 L19.9804688,15.2695312 L16.2890625,19.0585938 C16.223958,19.1106773 16.1523441,19.1529946 16.0742188,19.1855469 C15.9960934,19.2180991 15.9179691,19.234375 15.8398438,19.234375 C15.7617184,19.234375 15.6835941,19.2180991 15.6054688,19.1855469 C15.5273434,19.1529946 15.4557295,19.1106773 15.390625,19.0585938 C15.2734369,18.9283848 15.2148438,18.7786467 15.2148438,18.609375 C15.2148438,18.4401033 15.2734369,18.2903652 15.390625,18.1601562 L17.6953125,15.875 L10.625,15.875 C10.4427074,15.875 10.2929693,15.8131517 10.1757812,15.6894531 C10.0585932,15.5657546 10,15.4192717 10,15.25 C10,15.0677074 10.0585932,14.9179693 10.1757812,14.8007812 C10.2929693,14.6835932 10.4427074,14.625 10.625,14.625 L17.65625,14.625 L15.390625,12.359375 C15.2734369,12.2421869 15.2148438,12.095704 15.2148438,11.9199219 C15.2148438,11.7441397 15.2734369,11.5976568 15.390625,11.4804688 Z" id="î¹" fill="#E0E0E0" fill-rule="nonzero" transform="translate(15.000000, 15.250000) rotate(-270.000000) translate(-15.000000, -15.250000) "></path>
        </g>
    </g>
</svg>