<?xml version="1.0" encoding="UTF-8"?>
<svg width="30px" height="30px" viewBox="0 0 30 30" version="1.1" xmlns="http://www.w3.org/2000/svg" xmlns:xlink="http://www.w3.org/1999/xlink">
    <!-- Generator: Sketch 55.2 (78181) - https://sketchapp.com -->
    <title>Group 9</title>
    <desc>Created with Sketch.</desc>
    <g id="Page-1" stroke="none" stroke-width="1" fill="none" fill-rule="evenodd">
        <g id="Group-9">
            <circle id="Oval-Copy-9" fill="#C29898" transform="translate(15.000000, 15.000000) rotate(-180.000000) translate(-15.000000, -15.000000) " cx="15" cy="15" r="15"></circle>
            <path d="M15,4.75 C16.3802152,4.75 17.6790304,5.01041406 18.8964844,5.53125 C20.1139384,6.05208594 21.1751257,6.76496943 22.0800781,7.66992188 C22.9850306,8.57487432 23.6979141,9.63606162 24.21875,10.8535156 C24.7395859,12.0709696 25,13.3697848 25,14.75 C25,16.1302152 24.7395859,17.4290304 24.21875,18.6464844 C23.6979141,19.8639384 22.9850306,20.9251257 22.0800781,21.8300781 C21.1751257,22.7350306 20.1139384,23.4479141 18.8964844,23.96875 C17.6790304,24.4895859 16.3802152,24.75 15,24.75 C13.6197848,24.75 12.3209696,24.4895859 11.1035156,23.96875 C9.88606162,23.4479141 8.82487432,22.7350306 7.91992188,21.8300781 C7.01496943,20.9251257 6.30208594,19.8639384 5.78125,18.6464844 C5.26041406,17.4290304 5,16.1302152 5,14.75 C5,13.3697848 5.26041406,12.0709696 5.78125,10.8535156 C6.30208594,9.63606162 7.01496943,8.57487432 7.91992188,7.66992188 C8.82487432,6.76496943 9.88606162,6.05208594 11.1035156,5.53125 C12.3209696,5.01041406 13.6197848,4.75 15,4.75 Z M15,23.5195312 C16.2109436,23.5195312 17.3469999,23.2884138 18.4082031,22.8261719 C19.4694063,22.36393 20.3938763,21.7356811 21.1816406,20.9414062 C21.969405,20.1471314 22.5943987,19.2194063 23.0566406,18.1582031 C23.5188825,17.0969999 23.75,15.9609436 23.75,14.75 C23.75,13.5390564 23.5188825,12.4030001 23.0566406,11.3417969 C22.5943987,10.2805937 21.969405,9.35612373 21.1816406,8.56835938 C20.3938763,7.78059502 19.4694063,7.15560127 18.4082031,6.69335938 C17.3469999,6.23111748 16.2109436,6 15,6 C13.7890564,6 12.6530001,6.23111748 11.5917969,6.69335938 C10.5305937,7.15560127 9.60612373,7.78059502 8.81835938,8.56835938 C8.03059502,9.35612373 7.40560127,10.2805937 6.94335938,11.3417969 C6.48111748,12.4030001 6.25,13.5390564 6.25,14.75 C6.25,15.9609436 6.48111748,17.0969999 6.94335938,18.1582031 C7.40560127,19.2194063 8.03059502,20.1471314 8.81835938,20.9414062 C9.60612373,21.7356811 10.5305937,22.36393 11.5917969,22.8261719 C12.6530001,23.2884138 13.7890564,23.5195312 15,23.5195312 Z" id="" fill="#E0E0E0" fill-rule="nonzero" transform="translate(15.000000, 14.750000) rotate(-450.000000) translate(-15.000000, -14.750000) "></path>
            <path d="M19.2142979,15.0535667 L19.2142979,18.5357137 C19.2142979,18.7896203 19.0039182,19 18.7500116,19 L15.964294,19 L15.964294,16.2142824 L14.1071489,16.2142824 L14.1071489,19 L11.3214313,19 C11.0675248,19 10.8571451,18.7896203 10.8571451,18.5357137 L10.8571451,15.0535667 C10.8571451,15.0390578 10.8643995,15.0245488 10.8643995,15.0100399 L15.0357215,11.5714197 L19.2070434,15.0100399 C19.2142979,15.0245488 19.2142979,15.0390578 19.2142979,15.0535667 Z M20.8320454,14.5530081 L20.382268,15.0898391 C20.3459957,15.1333659 20.2879599,15.1623838 20.2299241,15.1696383 C20.2226696,15.1696383 20.2154152,15.1696383 20.2081607,15.1696383 C20.1501249,15.1696383 20.0993436,15.1551293 20.0558168,15.118857 L15.0357215,10.9330261 L10.0156262,15.118857 C9.9648449,15.1551293 9.90680912,15.1768928 9.84151886,15.1696383 C9.78348308,15.1623838 9.72544729,15.1333659 9.68917493,15.0898391 L9.23939761,14.5530081 C9.1595984,14.4586999 9.17410735,14.306356 9.2684155,14.2265568 L14.4843815,9.88112752 C14.7890694,9.62722097 15.2823736,9.62722097 15.5870614,9.88112752 L17.3571528,11.36104 L17.3571528,9.94641778 C17.3571528,9.81583727 17.4587154,9.71427464 17.589296,9.71427464 L18.9821548,9.71427464 C19.1127353,9.71427464 19.2142979,9.81583727 19.2142979,9.94641778 L19.2142979,12.9062427 L20.8030275,14.2265568 C20.8973356,14.306356 20.9118446,14.4586999 20.8320454,14.5530081 Z" id="" fill="#E0E0E0" fill-rule="nonzero"></path>
        </g>
    </g>
</svg>