<?xml version="1.0" encoding="UTF-8"?>
<svg width="28px" height="66px" viewBox="0 0 28 66" version="1.1" xmlns="http://www.w3.org/2000/svg" xmlns:xlink="http://www.w3.org/1999/xlink">
    <!-- Generator: Sketch 55.2 (78181) - https://sketchapp.com -->
    <title>info.</title>
    <desc>Created with Sketch.</desc>
    <g id="Page-1" stroke="none" stroke-width="1" fill="none" fill-rule="evenodd">
        <path d="M-0.172,32.248 C-0.12399976,32.3500005 -0.12699973,32.4579994 -0.181,32.572 C-0.23500027,32.6860006 -0.3219994,32.7699997 -0.442,32.824 C-0.47200015,32.8360001 -0.49599991,32.8465 -0.514,32.8555 C-0.53200009,32.8645 -0.55599985,32.872 -0.586,32.878 L-0.577,32.869 C-0.59500009,32.875 -0.62199982,32.8825 -0.658,32.8915 C-0.69400018,32.9005 -0.74799964,32.9169999 -0.82,32.941 C-0.89200036,32.9650001 -0.9879994,32.9979998 -1.108,33.04 C-1.2280006,33.0820002 -1.38699901,33.1389996 -1.585,33.211 C-1.84900132,33.3070005 -2.18349798,33.4314992 -2.5885,33.5845 C-2.99350202,33.7375008 -3.50499691,33.9279989 -4.123,34.156 C-4.74100309,34.3840011 -5.47149579,34.6494985 -6.3145,34.9525 C-7.15750422,35.2555015 -8.15799421,35.5839982 -9.316,35.938 C-10.4860058,36.2860017 -11.5539952,36.560499 -12.52,36.7615 C-13.4860048,36.962501 -14.3769959,37.0719999 -15.193,37.09 C-15.601002,37.096 -15.9894982,37.0705003 -16.3585,37.0135 C-16.7275018,36.9564997 -17.0649985,36.8410009 -17.371,36.667 C-17.5270008,36.5769995 -17.6679994,36.4735006 -17.794,36.3565 C-17.9200006,36.2394994 -18.0219996,36.1120007 -18.1,35.974 C-18.1840004,35.8359993 -18.2469998,35.6935007 -18.289,35.5465 C-18.3310002,35.3994993 -18.3579999,35.2660006 -18.37,35.146 C-18.3880001,34.8879987 -18.3790001,34.6540011 -18.343,34.444 C-18.3069998,34.233999 -18.2680002,34.0420009 -18.226,33.868 C-18.1659997,33.6579989 -18.1150002,33.4945006 -18.073,33.3775 C-18.0309998,33.2604994 -17.9920002,33.1600004 -17.956,33.076 C-17.8899997,32.9019991 -17.8285003,32.7610005 -17.7715,32.653 C-17.7144997,32.5449995 -17.6710002,32.4670002 -17.641,32.419 C-17.5689996,32.2989994 -17.4715006,32.2195002 -17.3485,32.1805 C-17.2254994,32.1414998 -17.1160005,32.1549997 -17.02,32.221 C-16.9359996,32.2870003 -16.8820001,32.3754994 -16.858,32.4865 C-16.8339999,32.5975006 -16.8489997,32.7039995 -16.903,32.806 C-16.9270001,32.8600003 -16.9405,32.89 -16.9435,32.896 C-16.9465,32.902 -16.9539999,32.9109999 -16.966,32.923 C-16.9840001,32.9530001 -17.0064999,32.9889998 -17.0335,33.031 C-17.0605001,33.0730002 -17.0949998,33.1269997 -17.137,33.193 C-17.1790002,33.2530003 -17.2179998,33.3189996 -17.254,33.391 L-17.38,33.643 C-17.4280002,33.7510005 -17.4774997,33.8739993 -17.5285,34.012 C-17.5795003,34.1500007 -17.6259998,34.3059991 -17.668,34.48 C-17.6860001,34.5640004 -17.7009999,34.6539995 -17.713,34.75 C-17.7250001,34.8460005 -17.731,34.9479995 -17.731,35.056 C-17.725,35.1640005 -17.7115001,35.2719995 -17.6905,35.38 C-17.6694999,35.4880005 -17.6290003,35.5899995 -17.569,35.686 C-17.5089997,35.7880005 -17.4295005,35.8854995 -17.3305,35.9785 C-17.2314995,36.0715005 -17.1130007,36.1539996 -16.975,36.226 C-16.8309993,36.2980004 -16.6750008,36.3564998 -16.507,36.4015 C-16.3389992,36.4465002 -16.159001,36.4809999 -15.967,36.505 C-15.7089987,36.5410002 -15.4360014,36.559 -15.148,36.559 C-14.8479985,36.559 -14.5315017,36.5425002 -14.1985,36.5095 C-13.8654983,36.4764998 -13.5100019,36.4300003 -13.132,36.37 C-12.5919973,36.2799995 -12.0100031,36.1570008 -11.386,36.001 C-10.7619969,35.8449992 -10.1200033,35.671001 -9.46,35.479 C-8.96799754,35.3289993 -8.4925023,35.1775008 -8.0335,35.0245 C-7.5744977,34.8714992 -7.13950205,34.7200008 -6.7285,34.57 C-6.31749795,34.4199993 -5.93500177,34.2775007 -5.581,34.1425 C-5.22699823,34.0074993 -4.91200138,33.8860005 -4.636,33.778 C-4.08999727,33.5619989 -3.61450202,33.3670009 -3.2095,33.193 C-2.80449798,33.0189991 -2.47600126,32.8750006 -2.224,32.761 L-2.233,32.761 C-1.9329985,32.6229993 -1.70500078,32.5135004 -1.549,32.4325 C-1.39299922,32.3514996 -1.26700048,32.2870002 -1.171,32.239 C-1.09899964,32.2029998 -1.03450029,32.1715001 -0.9775,32.1445 C-0.920499715,32.1174999 -0.85600036,32.0890001 -0.784,32.059 C-0.65799937,32.0109998 -0.536500585,32.0049998 -0.4195,32.041 C-0.302499415,32.0770002 -0.22000024,32.1459995 -0.172,32.248 Z M-13.915,27.613 C-14.0110005,27.6250001 -14.1009996,27.6355 -14.185,27.6445 C-14.2690004,27.6535 -14.3529996,27.6639999 -14.437,27.676 C-14.7730017,27.7180002 -15.0549989,27.7494999 -15.283,27.7705 C-15.5110011,27.7915001 -15.6969993,27.802 -15.841,27.802 C-16.0630011,27.802 -16.2159996,27.7720003 -16.3,27.712 C-16.3840004,27.6519997 -16.4319999,27.5530007 -16.444,27.415 C-16.4560001,27.2949994 -16.4350003,27.1930004 -16.381,27.109 C-16.3269997,27.0249996 -16.2640004,26.983 -16.192,26.983 L-16.1515,26.983 C-16.1364999,26.983 -16.1140002,26.9889999 -16.084,27.001 L-16.102,26.992 C-16.0599998,27.0040001 -15.9745006,27.0159999 -15.8455,27.028 C-15.7164994,27.0400001 -15.4870017,27.046 -15.157,27.046 C-14.8989987,27.046 -14.570502,27.0400001 -14.1715,27.028 C-13.772498,27.0159999 -13.273003,26.9920002 -12.673,26.956 C-12.1869976,26.9259999 -11.7925015,26.8960001 -11.4895,26.866 C-11.1864985,26.8359999 -10.9465009,26.8075001 -10.7695,26.7805 C-10.5924991,26.7534999 -10.4620004,26.7295001 -10.378,26.7085 C-10.2939996,26.6874999 -10.2310002,26.6680001 -10.189,26.65 C-10.1289997,26.6319999 -10.0750002,26.62 -10.027,26.614 C-9.99099982,26.6019999 -9.95050023,26.5900001 -9.9055,26.578 C-9.86049977,26.5659999 -9.81850019,26.5645 -9.7795,26.5735 C-9.74049981,26.5825 -9.70600015,26.6049998 -9.676,26.641 C-9.64599985,26.6770002 -9.62800003,26.7369996 -9.622,26.821 C-9.61599997,26.9290005 -9.64749966,27.0144997 -9.7165,27.0775 C-9.78550034,27.1405003 -9.89199928,27.1914998 -10.036,27.2305 C-10.1800007,27.2695002 -10.3614989,27.3009999 -10.5805,27.325 C-10.7995011,27.3490001 -11.0559985,27.3699999 -11.35,27.388 C-11.6680016,27.4120001 -12.0414979,27.4389998 -12.4705,27.469 C-12.8995021,27.4990002 -13.3809973,27.5469997 -13.915,27.613 Z M20.717,32.338 C20.8550007,32.2299995 20.9974993,32.1715 21.1445,32.1625 C21.2915007,32.1535 21.4009996,32.1939995 21.473,32.284 C21.5390003,32.3740005 21.5450003,32.4909993 21.491,32.635 C21.4369997,32.7790007 21.3470006,32.9019995 21.221,33.004 C21.2089999,33.0160001 21.1895001,33.0309999 21.1625,33.049 C21.1354999,33.0670001 21.1100001,33.0819999 21.086,33.094 C21.0619999,33.1060001 21.0335002,33.1224999 21.0005,33.1435 C20.9674998,33.1645001 20.9255003,33.1899999 20.8745,33.22 C20.8234997,33.2500002 20.7620004,33.2889998 20.69,33.337 L20.42,33.517 C20.3899998,33.5350001 20.3585002,33.5544999 20.3255,33.5755 C20.2924998,33.5965001 20.2610001,33.6189999 20.231,33.643 C19.8949983,33.8650011 19.4180031,34.1649981 18.8,34.543 C18.601999,34.6630006 18.3830012,34.7904993 18.143,34.9255 C17.9029988,35.0605007 17.6390014,35.1999993 17.351,35.344 C17.0689986,35.4820007 16.7525018,35.6289992 16.4015,35.785 C16.0504982,35.9410008 15.674002,36.0879993 15.272,36.226 C15.0559989,36.2980004 14.8265012,36.3699996 14.5835,36.442 C14.3404988,36.5140004 14.0840013,36.5814997 13.814,36.6445 C13.5439987,36.7075003 13.2650014,36.7584998 12.977,36.7975 C12.6889986,36.8365002 12.3920015,36.859 12.086,36.865 C11.7799985,36.871 11.4545017,36.8500002 11.1095,36.802 C10.7644983,36.7539998 10.4240017,36.6760005 10.088,36.568 C9.74599829,36.4539994 9.40250172,36.301001 9.0575,36.109 C8.71249828,35.916999 8.3900015,35.6860013 8.09,35.416 C7.71199811,35.0739983 7.41500108,34.7485015 7.199,34.4395 C6.98299892,34.1304985 6.79700078,33.8470013 6.641,33.589 C6.49099925,33.3369987 6.36500051,33.0940012 6.263,32.86 C6.24499991,32.866 6.22400012,32.8749999 6.2,32.887 C5.96599883,32.9950005 5.70350146,33.1209993 5.4125,33.265 C5.12149855,33.4090007 4.79300183,33.5889989 4.427,33.805 C4.15099862,33.9670008 3.8330018,34.1604989 3.473,34.3855 C3.1129982,34.6105011 2.72600207,34.8579987 2.312,35.128 C2.16199925,35.2240005 2.0075008,35.3229995 1.8485,35.425 C1.6894992,35.5270005 1.52300087,35.6319995 1.349,35.74 C1.00099826,35.950001 0.66200165,36.1479991 0.332,36.334 C0.00199835,36.5200009 -0.32199841,36.6819993 -0.64,36.82 C-0.80800084,36.8920004 -0.97599916,36.9564997 -1.144,37.0135 C-1.31200084,37.0705003 -1.47399922,37.1139999 -1.63,37.144 C-1.76800069,37.1740001 -1.91799919,37.189 -2.08,37.189 C-2.29000105,37.189 -2.48199913,37.1590003 -2.656,37.099 C-2.66800006,37.093 -2.68299991,37.087 -2.701,37.081 C-2.71900009,37.075 -2.73399994,37.069 -2.746,37.063 C-2.75800006,37.057 -2.76699997,37.054 -2.773,37.054 C-2.77900003,37.054 -2.78799994,37.051 -2.8,37.045 L-2.746,37.054 C-2.75800006,37.048 -2.77299991,37.045 -2.791,37.045 L-2.89,36.991 C-2.96800039,36.9309997 -3.01599991,36.8830002 -3.034,36.847 C-3.08200024,36.7629996 -3.106,36.6940003 -3.106,36.64 L-3.106,36.424 C-3.09399994,36.3339996 -3.07900009,36.2530004 -3.061,36.181 C-3.04299991,36.1089996 -3.01900015,36.0400003 -2.989,35.974 L-2.989,35.983 C-2.94099976,35.8509993 -2.89300024,35.7295006 -2.845,35.6185 C-2.79699976,35.5074994 -2.74900024,35.4010005 -2.701,35.299 C-2.50299901,34.896998 -2.31700087,34.5520014 -2.143,34.264 C-1.81899838,33.6939971 -1.57300084,33.2725014 -1.405,32.9995 C-1.23699916,32.7264986 -1.13200021,32.5570003 -1.09,32.491 C-0.99399952,32.3469993 -0.875500705,32.2435003 -0.7345,32.1805 C-0.593499295,32.1174997 -0.47800045,32.1189997 -0.388,32.185 C-0.29199952,32.2510003 -0.242500015,32.3559993 -0.2395,32.5 C-0.236499985,32.6440007 -0.28599949,32.7939992 -0.388,32.95 L-0.388,32.941 C-0.40000006,32.9710002 -0.419499865,33.0039998 -0.4465,33.04 C-0.473500135,33.0760002 -0.49899988,33.1089999 -0.523,33.139 C-0.5830003,33.2170004 -0.66699946,33.3339992 -0.775,33.49 C-0.88300054,33.6460008 -1.03899898,33.8799984 -1.243,34.192 C-1.26700012,34.2160001 -1.28649993,34.2429999 -1.3015,34.273 L-1.342,34.354 C-1.40800033,34.4560005 -1.47849963,34.5654994 -1.5535,34.6825 C-1.62850038,34.7995006 -1.70799958,34.9299993 -1.792,35.074 C-1.84600027,35.1640005 -1.89999973,35.2569995 -1.954,35.353 C-2.00800027,35.4490005 -2.06199973,35.5509995 -2.116,35.659 C-2.1760003,35.7730006 -2.23299973,35.8884994 -2.287,36.0055 C-2.34100027,36.1225006 -2.38899979,36.2409994 -2.431,36.361 L-2.431,36.352 C-2.44900009,36.4060003 -2.458,36.4539998 -2.458,36.496 C-2.43399988,36.5080001 -2.41900003,36.514 -2.413,36.514 L-2.422,36.514 C-2.39199985,36.5260001 -2.35900018,36.535 -2.323,36.541 C-2.28699982,36.547 -2.24500024,36.553 -2.197,36.559 C-2.05299928,36.5710001 -1.89850083,36.5635001 -1.7335,36.5365 C-1.56849917,36.5094999 -1.40200084,36.4690003 -1.234,36.415 C-1.07799922,36.3669998 -0.90400096,36.3010004 -0.712,36.217 C-0.51999904,36.1329996 -0.323501005,36.0400005 -0.1225,35.938 C0.078501005,35.8359995 0.282498965,35.7280006 0.4895,35.614 C0.696501035,35.4999994 0.89299907,35.3890005 1.079,35.281 C1.36700144,35.1069991 1.64299868,34.9360008 1.907,34.768 C2.17100132,34.5999992 2.41699886,34.4440007 2.645,34.3 C2.71700036,34.2519998 2.79349959,34.2055002 2.8745,34.1605 C2.9555004,34.1154998 3.02899967,34.0690002 3.095,34.021 C3.67100288,33.6609982 4.17499784,33.3550013 4.607,33.103 C4.81100102,32.9829994 5.01049902,32.8660006 5.2055,32.752 C5.40050097,32.6379994 5.57899919,32.5390004 5.741,32.455 L6.101,32.275 L6.101,32.221 C6.11300006,32.227 6.12349996,32.2315 6.1325,32.2345 C6.14150005,32.2375 6.15199994,32.242 6.164,32.248 L6.272,32.194 C6.29600012,32.1819999 6.31099997,32.173 6.317,32.167 L6.731,32.383 C6.74900009,32.4190002 6.76549992,32.4534998 6.7805,32.4865 C6.79550007,32.5195002 6.81199991,32.5509999 6.83,32.581 C6.97400072,32.8450013 7.12249923,33.0909989 7.2755,33.319 C7.42850076,33.5470011 7.60999895,33.7899987 7.82,34.048 C7.92200051,34.1740006 8.0329994,34.3029993 8.153,34.435 C8.2730006,34.5670007 8.40799925,34.7019993 8.558,34.84 C8.71400078,34.9780007 8.88649906,35.1189993 9.0755,35.263 C9.26450095,35.4070007 9.48499874,35.5449993 9.737,35.677 C10.0730017,35.8510009 10.3894985,35.9799996 10.6865,36.064 C10.9835015,36.1480004 11.2639987,36.2049999 11.528,36.235 C11.7980014,36.2710002 12.0439989,36.289 12.266,36.289 C12.3680005,36.289 12.4759994,36.286 12.59,36.28 C12.7040006,36.274 12.8119995,36.2650001 12.914,36.253 C13.2920019,36.2049998 13.6684981,36.1345005 14.0435,36.0415 C14.4185019,35.9484995 14.803998,35.8330007 15.2,35.695 C15.8720034,35.4429987 16.4479976,35.1850013 16.928,34.921 C17.4080024,34.6569987 17.8189983,34.423001 18.161,34.219 L18.152,34.219 C18.5000017,33.9969989 18.7894988,33.8035008 19.0205,33.6385 C19.2515012,33.4734992 19.4479992,33.3310006 19.61,33.211 L20.015,32.896 C20.1230005,32.8119996 20.2159996,32.7370003 20.294,32.671 C20.3660004,32.6109997 20.4334997,32.5555003 20.4965,32.5045 C20.5595003,32.4534997 20.6329996,32.3980003 20.717,32.338 Z M19.961,45.937 L19.961,45.91 C19.955,45.916 19.952,45.9309999 19.952,45.955 C19.952,45.9910002 19.949,46.0209999 19.943,46.045 C19.9129999,46.1710006 19.8755002,46.2909994 19.8305,46.405 C19.7854998,46.5190006 19.7360003,46.6164996 19.682,46.6975 C19.6279997,46.7785004 19.5710003,46.8384998 19.511,46.8775 C19.4509997,46.9165002 19.3940003,46.9300001 19.34,46.918 C19.2559996,46.8939999 19.1900002,46.8310005 19.142,46.729 C19.0939998,46.6269995 19.07,46.4980008 19.07,46.342 C19.07,46.2759997 19.073,46.2040004 19.079,46.126 C19.085,46.0479996 19.0999999,45.9610005 19.124,45.865 L19.115,45.874 C19.1270001,45.8139997 19.1419999,45.7450004 19.16,45.667 C19.1780001,45.5889996 19.2034998,45.4825007 19.2365,45.3475 C19.2695002,45.2124993 19.3114997,45.0385011 19.3625,44.8255 C19.4135003,44.6124989 19.4779996,44.3410016 19.556,44.011 L19.547,44.029 C19.6070003,43.6149979 19.6774996,43.0855032 19.7585,42.4405 C19.8395004,41.7954968 19.9339995,40.9870049 20.042,40.015 C20.1860007,38.7549937 20.2984996,37.6900043 20.3795,36.82 C20.4605004,35.9499957 20.5234998,35.2315028 20.5685,34.6645 C20.6135002,34.0974972 20.6434999,33.6595015 20.6585,33.3505 C20.6735001,33.0414985 20.684,32.8240006 20.69,32.698 C20.69,32.6619998 20.6915,32.6275002 20.6945,32.5945 C20.6975,32.5614998 20.699,32.5390001 20.699,32.527 C20.7170001,32.4249995 20.7694996,32.3425003 20.8565,32.2795 C20.9435004,32.2164997 21.0469994,32.1939999 21.167,32.212 C21.2750005,32.2240001 21.3649996,32.2674996 21.437,32.3425 C21.5090004,32.4175004 21.542,32.5059995 21.536,32.608 L21.536,32.626 C21.53,32.6380001 21.527,32.6544999 21.527,32.6755 C21.527,32.6965001 21.524,32.7159999 21.518,32.734 C21.5059999,32.7820002 21.4895001,32.8569995 21.4685,32.959 C21.4474999,33.0610005 21.4190002,33.215499 21.383,33.4225 C21.3469998,33.629501 21.3020003,33.9024983 21.248,34.2415 C21.1939997,34.5805017 21.1325003,35.0109974 21.0635,35.533 C20.9944997,36.0550026 20.9150004,36.6834963 20.825,37.4185 C20.7349995,38.1535037 20.6360005,39.0159951 20.528,40.006 C20.5760002,39.8379992 20.6224998,39.6670009 20.6675,39.493 C20.7125002,39.319 20.7589998,39.1390009 20.807,38.953 C20.9390007,38.4609975 21.0814992,37.9300029 21.2345,37.36 C21.3875008,36.7899971 21.5554991,36.1795033 21.7385,35.5285 C21.9215009,34.8774967 22.1254989,34.1845037 22.3505,33.4495 C22.5755011,32.7144963 22.8229987,31.9360041 23.093,31.114 C23.3450013,30.3519962 23.5894988,29.6440033 23.8265,28.99 C24.0635012,28.3359967 24.2929989,27.7315028 24.515,27.1765 C24.7370011,26.6214972 24.951499,26.1115023 25.1585,25.6465 C25.365501,25.1814977 25.564999,24.7540019 25.757,24.364 C26.153002,23.571996 26.5279982,22.9030027 26.882,22.357 C27.2360018,21.8109973 27.6019981,21.337002 27.98,20.935 C28.178001,20.730999 28.3864989,20.5465008 28.6055,20.3815 C28.8245011,20.2164992 29.0689987,20.0830005 29.339,19.981 L29.33,19.99 C29.4140004,19.9539998 29.4904997,19.9255001 29.5595,19.9045 C29.6285003,19.8834999 29.6959997,19.8670001 29.762,19.855 L29.753,19.864 C29.8010002,19.8519999 29.8429998,19.843 29.879,19.837 L29.987,19.819 L30.068,19.819 C30.1160002,19.819 30.1759996,19.8339999 30.248,19.864 C30.3140003,19.8940002 30.3634998,19.9374997 30.3965,19.9945 C30.4295002,20.0515003 30.4519999,20.1009998 30.464,20.143 L30.455,20.134 C30.4730001,20.2000003 30.482,20.2599997 30.482,20.314 C30.482,20.3680003 30.479,20.4129998 30.473,20.449 C30.467,20.4790002 30.461,20.5149998 30.455,20.557 C30.449,20.5990002 30.4400001,20.6469997 30.428,20.701 L30.428,20.692 C30.4159999,20.7520003 30.4010001,20.8119997 30.383,20.872 L30.302,21.142 C30.1999995,21.4240014 30.0845006,21.7179985 29.9555,22.024 C29.8264994,22.3300015 29.6810008,22.6554983 29.519,23.0005 C29.3569992,23.3455017 29.174001,23.715998 28.97,24.112 C28.765999,24.508002 28.5440012,24.9339977 28.304,25.39 C27.8539977,26.2360042 27.4505018,26.9799968 27.0935,27.622 C26.7364982,28.2640032 26.4140014,28.8489974 26.126,29.377 C26.0059994,29.5990011 25.8830006,29.8179989 25.757,30.034 C25.6309994,30.2500011 25.5170005,30.453999 25.415,30.646 C25.2589992,30.9280014 25.1090007,31.1964987 24.965,31.4515 C24.8209993,31.7065013 24.6770007,31.9629987 24.533,32.221 C24.3589991,32.5450016 24.173001,32.8809983 23.975,33.229 C23.776999,33.5770017 23.5730011,33.9399981 23.363,34.318 C23.3870001,34.324 23.4109999,34.327 23.435,34.327 L23.507,34.327 C23.6570007,34.3450001 23.8039993,34.3585 23.948,34.3675 C24.0920007,34.3765 24.2329993,34.3869999 24.371,34.399 C24.4970006,34.405 24.6184994,34.4095 24.7355,34.4125 C24.8525006,34.4155 24.9709994,34.417 25.091,34.417 C25.2350007,34.417 25.3729993,34.4155 25.505,34.4125 C25.6370007,34.4095 25.7689993,34.405 25.901,34.399 C26.3690023,34.3809999 26.8099979,34.3495002 27.224,34.3045 C27.6380021,34.2594998 28.0249982,34.2040003 28.385,34.138 C29.0750034,34.0179994 29.6584976,33.8875007 30.1355,33.7465 C30.6125024,33.6054993 31.0159984,33.4750006 31.346,33.355 C31.6880017,33.2349994 31.959499,33.1285005 32.1605,33.0355 C32.361501,32.9424995 32.5399992,32.8600004 32.696,32.788 C32.8520008,32.7159996 32.9959993,32.6485003 33.128,32.5855 C33.2600007,32.5224997 33.4039992,32.4490004 33.56,32.365 C33.8000012,32.2449994 34.021999,32.1745001 34.226,32.1535 C34.430001,32.1324999 34.5589997,32.1759995 34.613,32.284 C34.6370001,32.3320002 34.6385001,32.3904997 34.6175,32.4595 C34.5964999,32.5285003 34.5560003,32.6019996 34.496,32.68 C34.4359997,32.7580004 34.3580005,32.8344996 34.262,32.9095 C34.1659995,32.9845004 34.0580006,33.0519997 33.938,33.112 C33.8719997,33.1480002 33.8150002,33.1764999 33.767,33.1975 C33.7189998,33.2185001 33.6500004,33.2469998 33.56,33.283 L33.569,33.274 C33.5389998,33.2860001 33.5030002,33.3009999 33.461,33.319 C33.4189998,33.3370001 33.3740002,33.3549999 33.326,33.373 L33.335,33.373 C33.2329995,33.4150002 33.1085007,33.4644997 32.9615,33.5215 C32.8144993,33.5785003 32.6330011,33.6489996 32.417,33.733 C32.0869984,33.8530006 31.6565027,33.9954992 31.1255,34.1605 C30.5944973,34.3255008 29.9390039,34.4829993 29.159,34.633 C28.762998,34.7050004 28.3235024,34.7709997 27.8405,34.831 C27.3574976,34.8910003 26.8340028,34.9329999 26.27,34.957 C26.1379993,34.963 26.0030007,34.9675 25.865,34.9705 C25.7269993,34.9735 25.5890007,34.975 25.451,34.975 C25.1269984,34.975 24.7910017,34.9660001 24.443,34.948 C24.2809992,34.9359999 24.1145009,34.9240001 23.9435,34.912 C23.7724991,34.8999999 23.6000009,34.8850001 23.426,34.867 L23.237,34.84 C23.1829997,34.8279999 23.1110005,34.8145001 23.021,34.7995 C22.9309996,34.7844999 22.8560003,34.7710001 22.796,34.759 C22.7659998,34.6989997 22.7450001,34.6540002 22.733,34.624 C22.7209999,34.5939999 22.7135,34.5745 22.7105,34.5655 C22.7075,34.5565 22.7045,34.5505 22.7015,34.5475 C22.6985,34.5445 22.694,34.5370001 22.688,34.525 L22.724,34.381 L22.769,34.282 L22.85,34.147 C22.8740001,34.1109998 22.8964999,34.0750002 22.9175,34.039 C22.9385001,34.0029998 22.9609999,33.9640002 22.985,33.922 C23.387002,33.2259965 23.8039978,32.477504 24.236,31.6765 C24.6680022,30.875496 25.1269976,30.0070047 25.613,29.071 C26.0990024,28.1409954 26.6119973,27.1540052 27.152,26.11 C27.6920027,25.0659948 28.2469971,23.944006 28.817,22.744 C28.9910009,22.3659981 29.1499993,22.0135016 29.294,21.6865 C29.4380007,21.3594984 29.5609995,21.0520014 29.663,20.764 L29.663,20.773 C29.6750001,20.7429999 29.684,20.7130001 29.69,20.683 C29.696,20.6529999 29.7049999,20.6230002 29.717,20.593 C29.6629997,20.6050001 29.6120002,20.6184999 29.564,20.6335 C29.5159998,20.6485001 29.4710002,20.6649999 29.429,20.683 C29.2489991,20.7670004 29.0750008,20.8734994 28.907,21.0025 C28.7389992,21.1315006 28.5770008,21.2679993 28.421,21.412 L28.421,21.403 C28.2769993,21.5470007 28.1360007,21.6984992 27.998,21.8575 C27.8599993,22.0165008 27.7220007,22.1889991 27.584,22.375 C27.3139987,22.7470019 27.0395014,23.1714976 26.7605,23.6485 C26.4814986,24.1255024 26.1770016,24.7089966 25.847,25.399 C25.6849992,25.7470017 25.5155009,26.124998 25.3385,26.533 C25.1614991,26.941002 24.9800009,27.3849976 24.794,27.865 C24.6079991,28.3450024 24.416001,28.8684972 24.218,29.4355 C24.019999,30.0025028 23.816001,30.6159967 23.606,31.276 C23.1739978,32.6320068 22.8035015,33.8739944 22.4945,35.002 C22.1854985,36.1300056 21.9140012,37.1589953 21.68,38.089 C21.4519989,39.0070046 21.2555008,39.8394963 21.0905,40.5865 C20.9254992,41.3335037 20.7800006,41.9889972 20.654,42.553 C20.5099993,43.2190033 20.3900005,43.7889976 20.294,44.263 C20.1979995,44.7370024 20.1230003,45.1089986 20.069,45.379 L19.961,45.937 Z M35.29844,34.50052 C35.29988,34.49764 35.3024,34.4953 35.306,34.4935 C35.312,34.4905 35.315,34.486 35.315,34.48 L35.522,34.282 L35.594,34.264 C35.7140006,34.2519999 35.8384994,34.2445 35.9675,34.2415 C36.0965006,34.2385 36.2209994,34.237 36.341,34.237 C36.4130004,34.237 36.4849996,34.2385 36.557,34.2415 C36.6290004,34.2445 36.7069996,34.246 36.791,34.246 L37.0925,34.246 C37.1975005,34.246 37.3099994,34.249 37.43,34.255 C37.5740007,34.261 37.741999,34.2655 37.934,34.2685 C38.126001,34.2715 38.320999,34.273 38.519,34.273 C39.0170025,34.267 39.4369983,34.2445002 39.779,34.2055 C40.1210017,34.1664998 40.4269986,34.1230002 40.697,34.075 C40.9910015,34.0209997 41.2534988,33.9670003 41.4845,33.913 C41.7155012,33.8589997 41.9599987,33.7990003 42.218,33.733 C42.608002,33.6249995 42.9874982,33.5065006 43.3565,33.3775 C43.7255018,33.2484994 44.0299988,33.1360005 44.27,33.04 C44.4800011,32.9559996 44.6584993,32.8810003 44.8055,32.815 C44.9525007,32.7489997 45.0829994,32.6890003 45.197,32.635 C45.2090001,32.629 45.2224999,32.623 45.2375,32.617 C45.2525001,32.611 45.2779998,32.5990001 45.314,32.581 C45.4340006,32.5209997 45.5329996,32.4700002 45.611,32.428 C45.6890004,32.3859998 45.7579997,32.3500002 45.818,32.32 L45.809,32.329 C45.8690003,32.2989998 45.9229998,32.2705001 45.971,32.2435 C46.0190002,32.2164999 46.0759997,32.1880001 46.142,32.158 C46.2620006,32.1099998 46.3804994,32.1039998 46.4975,32.14 C46.6145006,32.1760002 46.6969998,32.2449995 46.745,32.347 C46.7930002,32.4490005 46.7930002,32.5569994 46.745,32.671 C46.6969998,32.7850006 46.6130006,32.8689997 46.493,32.923 C46.4749999,32.929 46.4540001,32.935 46.43,32.941 C46.4059999,32.947 46.3880001,32.953 46.376,32.959 C46.3459998,32.9710001 46.3010003,32.9844999 46.241,32.9995 C46.1809997,33.0145001 46.0670008,33.0519997 45.899,33.112 C45.7789994,33.1600002 45.620001,33.2184997 45.422,33.2875 C45.223999,33.3565003 44.9870014,33.4389995 44.711,33.535 C44.4229986,33.6310005 44.082502,33.7404994 43.6895,33.8635 C43.296498,33.9865006 42.8300027,34.1169993 42.29,34.255 C42.2239997,34.2730001 42.1505004,34.2924999 42.0695,34.3135 C41.9884996,34.3345001 41.9120004,34.3539999 41.84,34.372 C41.6119989,34.4320003 41.3630013,34.4949997 41.093,34.561 C40.8229987,34.6270003 40.5440014,34.6869997 40.256,34.741 C39.8719981,34.8130004 39.4520023,34.8759997 38.996,34.93 C38.5399977,34.9840003 38.0600025,35.0050001 37.556,34.993 C37.2319984,34.987 36.9530012,34.9780001 36.719,34.966 C36.4849988,34.9539999 36.2780009,34.9420001 36.098,34.93 C36.0139996,34.924 35.9435003,34.921 35.8865,34.921 C35.8294997,34.921 35.7800002,34.9150001 35.738,34.903 L35.738,34.912 L35.657,35.02 C35.6449999,35.0380001 35.6315001,35.0544999 35.6165,35.0695 C35.6014999,35.0845001 35.5880001,35.1009999 35.576,35.119 C35.5579999,35.1430001 35.5370001,35.1669999 35.513,35.191 C35.4889999,35.2150001 35.4680001,35.2389999 35.45,35.263 C35.3479995,35.3830006 35.2310007,35.5164993 35.099,35.6635 C34.9669993,35.8105007 34.8140009,35.9649992 34.64,36.127 C34.5379995,36.2290005 34.4135007,36.3384994 34.2665,36.4555 C34.1194993,36.5725006 33.9620008,36.6819995 33.794,36.784 C33.7099996,36.8380003 33.6110006,36.8919997 33.497,36.946 C33.3829994,37.0000003 33.2690006,37.0449998 33.155,37.081 C33.0289994,37.1290002 32.8940007,37.156 32.75,37.162 C32.7259999,37.168 32.7020001,37.171 32.678,37.171 L32.624,37.171 C32.5879998,37.171 32.5580001,37.168 32.534,37.162 L32.507,37.162 C32.3989995,37.156 32.3000004,37.1290002 32.21,37.081 L32.219,37.081 C32.0449991,36.9969996 31.9085005,36.8815007 31.8095,36.7345 C31.7104995,36.5874993 31.6400002,36.4390007 31.598,36.289 C31.5559998,36.1509993 31.5290001,36.0190006 31.517,35.893 C31.5049999,35.7669994 31.496,35.6440006 31.49,35.524 C31.49,35.3979994 31.4945,35.2780006 31.5035,35.164 C31.5125,35.0499994 31.5229999,34.9420005 31.535,34.84 C31.5470001,34.7439995 31.5634999,34.6450005 31.5845,34.543 C31.6055001,34.4409995 31.6309998,34.3390005 31.661,34.237 L31.661,34.246 C31.7150003,34.047999 31.7824996,33.8680008 31.8635,33.706 C31.9445004,33.5439992 32.0359995,33.3970007 32.138,33.265 C32.2400005,33.1329993 32.3449995,33.0175005 32.453,32.9185 C32.5610005,32.8194995 32.6659995,32.7340004 32.768,32.662 L32.759,32.671 C32.963001,32.5269993 33.1474992,32.4205003 33.3125,32.3515 C33.4775008,32.2824997 33.6169994,32.2300002 33.731,32.194 C33.8510006,32.1579998 33.9424997,32.1325001 34.0055,32.1175 C34.0685003,32.1024999 34.1149999,32.092 34.145,32.086 C34.2830007,32.0619999 34.4074994,32.0904996 34.5185,32.1715 C34.6295006,32.2525004 34.685,32.3529994 34.685,32.473 C34.685,32.5870006 34.6475004,32.6844996 34.5725,32.7655 C34.4974996,32.8465004 34.4030006,32.8989999 34.289,32.923 C34.2769999,32.923 34.2590001,32.9245 34.235,32.9275 C34.2109999,32.9305 34.1930001,32.932 34.181,32.932 C34.175,32.938 34.1570002,32.941 34.127,32.941 C34.0969998,32.941 34.0670002,32.944 34.037,32.95 C34.0249999,32.95 34.016,32.9515 34.01,32.9545 C34.004,32.9575 33.9950001,32.959 33.983,32.959 C33.8389993,32.9890002 33.6530011,33.0459996 33.425,33.13 C33.3469996,33.1600001 33.2645004,33.2004997 33.1775,33.2515 C33.0904996,33.3025003 33.0050004,33.3639996 32.921,33.436 C32.8309996,33.5080004 32.7395005,33.5979995 32.6465,33.706 C32.5534995,33.8140005 32.4710004,33.9459992 32.399,34.102 C32.3149996,34.2580008 32.2505002,34.434999 32.2055,34.633 C32.1604998,34.831001 32.1260001,35.0499988 32.102,35.29 C32.0839999,35.4160006 32.075,35.5329995 32.075,35.641 C32.075,35.7730007 32.0869999,35.8989994 32.111,36.019 C32.1290001,36.1330006 32.1634997,36.2439995 32.2145,36.352 C32.2655003,36.4600005 32.3449995,36.5409997 32.453,36.595 L32.444,36.595 C32.5040003,36.6250002 32.5789995,36.64 32.669,36.64 C32.8010007,36.64 32.9419992,36.6100003 33.092,36.55 C33.2120006,36.5079998 33.3199995,36.4615003 33.416,36.4105 C33.5120005,36.3594997 33.6019996,36.3070003 33.686,36.253 C33.8420008,36.1509995 33.9874993,36.0340007 34.1225,35.902 C34.2575007,35.7699993 34.3819994,35.6440006 34.496,35.524 C34.6160006,35.3919993 34.7164996,35.2750005 34.7975,35.173 C34.8785004,35.0709995 34.9519997,34.9750005 35.018,34.885 C35.0660002,34.8249997 35.1049999,34.7710002 35.135,34.723 C35.1650001,34.6749998 35.1919999,34.6300002 35.216,34.588 L35.288,34.48 L35.279,34.489 C35.285,34.4769999 35.291,34.4665 35.297,34.4575 C35.303,34.4485 35.309,34.4380001 35.315,34.426 L35.29844,34.50052 L35.29844,34.50052 Z M45.701,37 C45.6349997,36.9399997 45.5930001,36.8665004 45.575,36.7795 C45.5569999,36.6924996 45.5495,36.6085004 45.5525,36.5275 C45.5555,36.4464996 45.5659999,36.3745003 45.584,36.3115 C45.6020001,36.2484997 45.6199999,36.2080001 45.638,36.19 L45.638,36.199 C45.6560001,36.1809999 45.7024996,36.169 45.7775,36.163 C45.8525004,36.157 45.9379995,36.1585 46.034,36.1675 C46.1300005,36.1765 46.2259995,36.1974998 46.322,36.2305 C46.4180005,36.2635002 46.4959997,36.3099997 46.556,36.37 C46.6160003,36.4300003 46.6505,36.4974996 46.6595,36.5725 C46.6685,36.6475004 46.6655001,36.7194997 46.6505,36.7885 C46.6354999,36.8575003 46.6130002,36.9189997 46.583,36.973 C46.5529998,37.0270003 46.5290001,37.0629999 46.511,37.081 C46.4929999,37.0990001 46.4510003,37.1154999 46.385,37.1305 C46.3189997,37.1455001 46.2440004,37.153 46.16,37.153 C46.0759996,37.153 45.9920004,37.1425001 45.908,37.1215 C45.8239996,37.1004999 45.7550003,37.0600003 45.701,37 Z" id="info." fill="#FFFFFF" fill-rule="nonzero" transform="translate(14.201000, 33.370618) rotate(-90.000000) translate(-14.201000, -33.370618) "></path>
    </g>
</svg>