<?xml version="1.0" encoding="UTF-8"?>
<svg width="196px" height="56px" viewBox="0 0 196 56" version="1.1" xmlns="http://www.w3.org/2000/svg" xmlns:xlink="http://www.w3.org/1999/xlink">
    <!-- Generator: Sketch 55.2 (78181) - https://sketchapp.com -->
    <title>Group 4 Copy</title>
    <desc>Created with Sketch.</desc>
    <defs>
        <polygon id="path-1" points="0 0 17 0 17 19 0 19"></polygon>
        <polygon id="path-3" points="0 0 17 0 17 19 0 19"></polygon>
    </defs>
    <g id="Page-1" stroke="none" stroke-width="1" fill="none" fill-rule="evenodd">
        <g id="Group-4-Copy">
            <path d="M66.648,5.792 L66.648,7.332 L43.184,7.332 L43.184,5.792 L54.832,5.792 C53.6,4.532 51.696,2.824 50.52,1.844 L51.024,0.948 C52.872,1.564 55.588,2.852 57.268,4.084 L55.952,5.792 L66.648,5.792 Z M52.508,9.292 C49.456,12.988 46.824,14.78 43.464,16.516 L42.96,15.648 C45.704,13.632 48.14,10.944 49.96,7.724 L52.508,9.292 Z M57.688,8.844 L58.22,7.948 C61.16,9.18 64.436,11.252 67.04,13.52 L64.912,15.788 C62.476,12.932 59.816,10.468 57.688,8.844 Z M67.46,24.048 L65.864,27.268 C61.664,26.148 58.248,24.636 55.364,22.116 C52.144,24.86 48.252,26.344 43.184,27.296 L42.82,26.372 C47.608,24.916 51.108,23.152 53.796,20.52 C52.116,18.672 50.632,16.376 49.316,13.464 L50.184,12.932 C51.948,15.508 53.572,17.44 55.224,18.924 C56.652,17.132 57.828,15.032 58.836,12.428 L61.58,13.716 C60.208,16.432 58.752,18.644 57.128,20.408 C59.928,22.312 63.092,23.236 67.46,24.048 Z M76.7245,6.632 C75.5205,5.204 73.9525,3.468 72.6085,2.152 L73.1405,1.312 C74.5965,1.928 77.0605,3.328 78.5165,4.588 L76.7245,6.632 Z M82.4085,17.132 L82.4085,22.508 L80.0005,22.48 L80.0005,8.284 L87.5605,8.284 C86.3565,7.444 84.8445,6.436 83.3605,5.568 L83.6965,4.588 C85.2645,5.008 86.7485,5.484 88.0925,6.044 C89.0445,5.26 89.6605,4.644 90.2765,3.944 L80.0845,4.028 L80.0845,2.796 L90.5845,2.712 L91.3685,2.264 L93.9445,4 C92.2085,5.344 90.9205,6.044 89.4085,6.632 L90.0525,6.968 L89.1845,8.284 L94.6165,8.284 L94.6165,19.736 C94.6165,22.76 91.5925,22.844 89.0165,20.94 L89.2685,19.988 C91.9005,20.632 92.2085,20.324 92.2085,19.008 L92.2085,17.104 L88.4845,17.104 L88.4845,22.284 L86.1325,22.284 L86.1325,17.132 L82.4085,17.132 Z M77.3405,10.132 L75.5205,12.204 C74.5965,11 72.7205,8.872 71.5445,7.612 L72.1045,6.772 C73.5325,7.472 75.8285,8.816 77.3405,10.132 Z M86.1325,9.544 L82.4085,9.544 L82.4085,12.036 L86.1325,12.036 L86.1325,9.544 Z M92.2085,12.036 L92.2085,9.544 L88.4845,9.544 L88.4845,12.036 L92.2085,12.036 Z M82.4085,15.9 L86.1325,15.9 L86.1325,13.24 L82.4085,13.24 L82.4085,15.9 Z M88.4845,15.9 L92.2085,15.9 L92.2085,13.24 L88.4845,13.24 L88.4845,15.9 Z M84.7325,24.188 C88.3725,24.272 93.2445,23.852 96.4645,23.404 L95.7645,26.232 C92.7685,26.484 87.1405,26.568 84.5925,26.428 C80.3085,26.176 78.4605,25.756 76.4725,22.396 C75.4925,24.188 74.1765,26.12 72.7205,27.604 L71.0125,25.868 C72.4405,24.776 74.0925,23.32 75.0445,22.06 L75.0445,15.676 L71.3485,15.676 L71.3485,14.388 L77.6205,14.388 L77.6205,21.836 C79.2725,24.16 81.0645,24.104 84.7325,24.188 Z M111.469,4.532 C110.517,6.044 109.285,7.304 107.773,8.396 L107.101,7.696 C108.697,5.876 109.621,4 110.405,1.06 L112.813,1.704 C112.617,2.292 112.393,2.824 112.141,3.356 L120.513,3.356 L120.989,2.964 L123.425,4.336 C122.445,5.82 120.989,7.136 119.421,8.116 L118.693,7.5 C119.505,6.38 119.897,5.68 120.373,4.532 L116.733,4.532 C116.593,5.148 116.285,6.072 116.089,6.52 C118.497,9.348 121.493,9.684 124.349,9.852 L123.005,12.456 C120.597,12.036 117.545,10.944 115.445,7.472 C113.625,10.216 110.461,11.644 106.737,12.008 L106.457,11.056 C110.825,10.02 113.037,7.892 113.933,4.532 L111.469,4.532 Z M107.073,3.748 L105.645,5.988 C103.797,4.644 102.369,3.608 101.053,2.824 L101.389,1.872 C102.789,2.124 105.057,2.684 107.073,3.748 Z M107.045,7.136 C105.617,9.18 104.077,11.112 101.753,13.156 L100.269,11.112 C102.593,9.656 104.497,8.228 106.317,6.52 L107.045,7.136 Z M103.657,22.508 L103.657,12.316 L121.045,12.344 L121.045,22.508 L103.657,22.508 Z M106.121,13.576 L106.121,15.312 L118.581,15.312 L118.581,13.576 L106.121,13.576 Z M106.121,16.488 L106.121,18.14 L118.581,18.14 L118.581,16.488 L106.121,16.488 Z M106.121,19.316 L106.121,21.248 L118.581,21.248 L118.581,19.316 L106.121,19.316 Z M100.045,26.792 C103.741,25.784 106.513,24.552 109.033,22.76 L111.581,24.384 C109.425,25.616 104.553,27.212 100.353,27.772 L100.045,26.792 Z M113.205,23.88 L113.457,22.9 C116.481,23.236 120.737,23.936 123.957,25.196 L122.585,27.688 C120.065,26.344 116.145,24.916 113.205,23.88 Z M138.8775,6.212 L138.8495,7.472 L128.3775,7.472 L128.3775,6.212 L133.5295,6.212 C132.7455,4.672 131.7655,2.992 131.0375,1.872 L131.8215,1.256 C133.2215,2.236 134.8175,3.776 135.7975,5.092 L134.2015,6.212 L138.8775,6.212 Z M153.1855,19.428 C155.0895,26.372 153.0175,27.828 151.1415,27.044 C148.1455,25.784 147.9215,19.568 147.9215,10.272 L147.9215,4.364 L144.0855,4.364 L144.0855,13.044 L147.3055,13.044 L147.3055,14.304 L144.0855,14.304 L144.0855,27.38 L141.5655,27.38 L141.5655,14.304 L138.5415,14.304 L138.5415,13.044 L141.5655,13.044 L141.5655,4.364 L138.5135,4.364 L138.5135,3.104 L150.4695,3.104 L150.3855,10.3 C150.2735,19.176 150.9455,23.572 151.5615,24.02 C152.1495,24.44 152.2335,23.544 152.1775,19.428 L153.1855,19.428 Z M129.6095,11.616 L129.6095,10.44 L137.9535,10.44 L137.9535,11.616 L129.6095,11.616 Z M137.8695,14.052 L137.8695,15.228 L129.6095,15.228 L129.6095,14.052 L137.8695,14.052 Z M129.7215,27.268 L129.7215,18.112 L137.9535,18.112 L137.9535,26.848 L135.7415,26.848 L135.7415,25.308 L131.8775,25.308 L131.8775,27.268 L129.7215,27.268 Z M131.8775,19.344 L131.8775,24.076 L135.7135,24.076 L135.7135,19.344 L131.8775,19.344 Z" id="交通資訊" fill="#696969" fill-rule="nonzero"></path>
            <path d="M7.496,51.04 C7.496,51.04 7.712,50.608 7.832,50.896 C8.072,51.46 8.744,51.868 9.368,51.868 C12.44,51.868 14.852,48.34 14.852,43.432 C14.852,41.836 14.108,40.672 12.896,39.844 C10.196,40.588 7.268,41.164 3.536,41.164 C2.252,41.164 0.644,40.732 0.644,39.664 C0.644,38.284 3.2,37.756 4.904,37.756 C8.06,37.756 11.024,38.236 12.956,39.46 C14,39.172 14.996,38.86 16.004,38.548 C19.64,37.42 23.3,36.28 28.532,36.28 C32.696,36.28 33.908,37.72 33.908,39.256 C33.908,40.408 33.044,41.56 32.06,41.74 C32.06,41.74 31.736,41.752 31.988,41.38 C32.828,41.224 33.548,40.24 33.548,39.256 C33.548,37.912 32.408,36.64 28.532,36.64 C23.324,36.64 19.7,37.768 16.1,38.884 C15.188,39.172 14.276,39.46 13.34,39.724 C14.504,40.6 15.212,41.812 15.212,43.432 C15.212,48.556 12.632,52.228 9.368,52.228 C8.6,52.228 7.784,51.724 7.496,51.04 Z M3.536,40.804 C7.1,40.804 9.908,40.288 12.488,39.592 C10.616,38.524 7.844,38.116 4.904,38.116 C3.344,38.116 1.004,38.548 1.004,39.664 C1.004,40.468 2.42,40.804 3.536,40.804 Z M29.9,48.832 C29.9,48.832 30.116,48.676 30.092,49.144 C28.028,50.476 26.576,50.668 25.46,50.668 C23.84,50.668 23.348,50.152 23.324,49.48 C23.324,49.024 23.492,48.592 23.732,48.22 C23.552,48.244 23.36,48.256 23.228,48.256 C22.892,48.256 22.436,48.208 22.148,48.028 C21.716,48.328 20.948,48.832 20.408,49.132 C20.408,49.132 20.132,49.312 20.228,48.82 C20.732,48.556 21.476,48.052 21.896,47.752 C21.86,47.692 21.848,47.62 21.848,47.536 C21.848,47.212 22.076,46.876 22.388,46.876 C22.664,46.876 22.772,47.02 22.772,47.224 C22.772,47.488 22.64,47.632 22.448,47.788 C22.664,47.872 22.988,47.896 23.228,47.896 C23.396,47.896 23.684,47.848 24.08,47.752 C24.284,47.704 24.332,47.788 24.32,48.076 C23.996,48.52 23.684,48.94 23.684,49.468 C23.708,49.936 24.116,50.308 25.46,50.308 C26.504,50.308 27.98,50.164 29.9,48.832 Z M22.388,47.236 C22.268,47.236 22.208,47.368 22.208,47.512 C22.28,47.452 22.412,47.344 22.412,47.26 C22.412,47.248 22.4,47.236 22.388,47.236 Z M31.964,48.088 C31.964,48.088 32.348,47.836 32.324,48.136 C32.324,48.136 31.94,50.512 34.04,50.512 C35.024,50.512 37.052,50.26 39.068,48.832 C39.272,48.688 39.272,49.132 39.272,49.132 C37.076,50.596 35.072,50.872 34.04,50.872 C32.432,50.872 32.036,49.744 31.952,48.916 C31.46,49.708 30.716,50.368 30.152,50.368 C29.756,50.368 29.552,50.152 29.552,49.72 C29.552,48.772 31.412,47.128 32.336,47.128 C32.672,47.128 32.852,47.26 32.912,47.512 C32.876,47.596 32.588,47.824 32.552,47.584 C32.54,47.524 32.468,47.488 32.336,47.488 C31.412,47.488 29.912,48.916 29.912,49.72 C29.912,49.9 29.996,50.008 30.152,50.008 C30.74,50.008 31.592,49.036 31.964,48.088 Z M38.84,55.012 C38.756,54.112 38.708,53.272 38.708,52.48 C38.708,52.216 38.72,51.976 38.732,51.724 C38.192,51.796 37.628,51.832 37.04,51.868 C37.04,51.868 36.68,51.868 37.016,51.508 C37.616,51.472 38.192,51.424 38.744,51.364 C38.996,46.408 40.952,43.996 42.26,43.996 C42.764,43.996 43.016,44.296 43.016,44.776 C43.016,46.492 40.868,48.232 39.356,49.084 C39.224,49.756 39.14,50.5 39.092,51.316 C41.648,50.968 43.724,50.26 45.884,48.832 C45.884,48.832 46.088,48.664 46.088,49.132 C43.76,50.584 41.696,51.34 39.08,51.688 C39.068,51.94 39.068,52.204 39.068,52.48 C39.068,53.248 39.116,54.088 39.2,54.988 C38.852,55.3 38.84,55.012 38.84,55.012 Z M42.26,44.356 C41.336,44.356 40.064,45.76 39.44,48.628 C40.856,47.776 42.656,46.24 42.656,44.776 C42.656,44.512 42.524,44.356 42.26,44.356 Z M45.656,55.012 C45.572,54.112 45.524,53.272 45.524,52.48 C45.524,52.216 45.536,51.976 45.548,51.724 C45.008,51.796 44.444,51.832 43.856,51.868 C43.856,51.868 43.496,51.868 43.832,51.508 C44.432,51.472 45.008,51.424 45.56,51.364 C45.812,46.408 47.768,43.996 49.076,43.996 C49.58,43.996 49.832,44.296 49.832,44.776 C49.832,46.492 47.684,48.232 46.172,49.084 C46.04,49.756 45.956,50.5 45.908,51.316 C48.464,50.968 50.54,50.26 52.7,48.832 C52.7,48.832 52.904,48.664 52.904,49.132 C50.576,50.584 48.512,51.34 45.896,51.688 C45.884,51.94 45.884,52.204 45.884,52.48 C45.884,53.248 45.932,54.088 46.016,54.988 C45.668,55.3 45.656,55.012 45.656,55.012 Z M49.076,44.356 C48.152,44.356 46.88,45.76 46.256,48.628 C47.672,47.776 49.472,46.24 49.472,44.776 C49.472,44.512 49.34,44.356 49.076,44.356 Z M60.116,49.144 C58.424,50.224 56.312,50.752 54.644,50.752 C53.228,50.752 52.532,50.284 52.556,49.312 C52.556,49.156 52.58,49.048 52.616,48.892 C52.82,48.688 53.072,48.712 52.976,48.904 C52.94,49.036 52.916,49.168 52.916,49.312 C52.892,50.044 53.468,50.392 54.644,50.392 C56.252,50.392 58.292,49.96 59.924,48.832 C60.164,48.7 60.116,49.144 60.116,49.144 Z M52.82,46.948 C53.42,46.948 53.72,46.396 53.036,46.396 C52.988,46.588 52.472,46.924 52.82,46.948 Z M67.928,48.832 C67.928,48.832 68.192,48.7 68.12,49.144 C66.44,50.128 63.668,50.98 61.532,50.98 C60.368,50.98 59.612,50.692 59.612,49.672 C59.612,48.532 61.52,47.44 62.384,47.44 C63.2,47.44 63.26,47.968 63.092,48.292 C63.092,48.292 62.852,48.496 62.78,48.124 C62.84,48.004 62.78,47.8 62.384,47.8 C61.64,47.8 59.972,48.724 59.972,49.672 C59.972,50.404 60.584,50.62 61.532,50.62 C63.608,50.62 66.296,49.792 67.928,48.832 Z M89.408,40.708 C85.376,40.768 82.46,42.016 82.46,43.648 C82.46,44.596 83.3,45.112 84.344,45.256 C84.596,45.604 84.368,45.628 84.296,45.616 C83.084,45.448 82.1,44.824 82.1,43.648 C82.1,41.764 85.292,40.348 89.672,40.348 C89.864,40.348 89.852,40.54 89.78,40.648 C88.424,45.748 86.852,52.384 80.792,52.384 C77.804,52.384 76.436,50.872 76.436,48.652 C76.436,46.864 78.176,45.76 79.748,45.76 C80.072,46.096 79.748,46.12 79.748,46.12 C78.344,46.12 76.796,47.08 76.796,48.652 C76.796,50.656 78.044,52.024 80.792,52.024 C86.564,52.024 88.076,45.676 89.408,40.708 Z M103.532237,49.132 C101.324,50.632 98.576,51.184 96.968,51.184 C94.496,51.184 94.748,49.912 94.76,48.916 C94.76,48.448 94.772,48.064 94.388,48.064 C93.908,48.064 92.888,48.748 92.168,49.396 C91.484,50.008 90.848,50.584 90.404,50.584 C90.056,50.584 89.936,50.356 89.936,50.032 C89.936,49.636 90.176,49.048 90.284,48.844 C90.284,48.844 90.5,48.616 90.608,49.012 C90.524,49.192 90.296,49.684 90.296,50.032 C90.296,50.14 90.32,50.224 90.404,50.224 C90.704,50.224 91.316,49.684 91.928,49.132 C92.672,48.46 93.8,47.704 94.388,47.704 C95.132,47.704 95.12,48.256 95.12,48.916 C95.108,49.744 94.856,50.824 96.968,50.824 C98.528,50.824 101.396,50.248 103.328,48.832 C103.544,48.688 103.532237,49.132 103.532237,49.132 Z M103.1,55.012 C103.016,54.112 102.968,53.272 102.968,52.48 C102.968,52.216 102.98,51.976 102.992,51.724 C102.452,51.796 101.888,51.832 101.3,51.868 C101.3,51.868 100.94,51.868 101.276,51.508 C101.876,51.472 102.452,51.424 103.004,51.364 C103.256,46.408 105.212,43.996 106.52,43.996 C107.024,43.996 107.276,44.296 107.276,44.776 C107.276,46.492 105.128,48.232 103.616,49.084 C103.484,49.756 103.4,50.5 103.352,51.316 C105.908,50.968 107.984,50.26 110.144,48.832 C110.144,48.832 110.348,48.664 110.348,49.132 C108.02,50.584 105.956,51.34 103.34,51.688 C103.328,51.94 103.328,52.204 103.328,52.48 C103.328,53.248 103.376,54.088 103.46,54.988 C103.112,55.3 103.1,55.012 103.1,55.012 Z M106.52,44.356 C105.596,44.356 104.324,45.76 103.7,48.628 C105.116,47.776 106.916,46.24 106.916,44.776 C106.916,44.512 106.784,44.356 106.52,44.356 Z M118.52,49.144 C116.672,50.344 114.812,50.8 113.144,50.8 C112.592,50.8 112.136,50.716 111.776,50.548 C111.44,50.656 111.08,50.716 110.732,50.716 C110.072,50.716 109.82,50.308 109.82,49.828 C109.82,49.504 109.94,49.156 110.108,48.868 C110.336,48.58 110.42,49.06 110.42,49.06 C110.276,49.3 110.18,49.576 110.18,49.828 C110.18,50.116 110.336,50.356 110.732,50.356 C110.948,50.356 111.164,50.332 111.38,50.284 C111.092,50.02 110.936,49.66 110.948,49.228 C110.948,48.388 111.536,47.176 112.616,47.176 C113.228,47.176 113.54,47.752 113.54,48.148 C113.54,49.204 112.988,49.924 112.256,50.332 C112.508,50.404 112.808,50.44 113.144,50.44 C114.752,50.44 116.612,50.056 118.328,48.832 C118.556,48.7 118.52,49.144 118.52,49.144 Z M113.18,48.148 C113.18,47.896 112.988,47.536 112.616,47.536 C111.776,47.536 111.308,48.532 111.308,49.228 C111.296,49.612 111.476,49.936 111.824,50.14 C112.58,49.828 113.18,49.168 113.18,48.148 Z M128.024,48.832 C128.024,48.832 128.24,48.676 128.216,49.144 C126.152,50.476 124.7,50.668 123.584,50.668 C121.964,50.668 121.472,50.152 121.448,49.48 C121.448,49.024 121.616,48.592 121.856,48.22 C121.676,48.244 121.484,48.256 121.352,48.256 C121.016,48.256 120.56,48.208 120.272,48.028 C119.84,48.328 119.072,48.832 118.532,49.132 C118.532,49.132 118.256,49.312 118.352,48.82 C118.856,48.556 119.6,48.052 120.02,47.752 C119.984,47.692 119.972,47.62 119.972,47.536 C119.972,47.212 120.2,46.876 120.512,46.876 C120.788,46.876 120.896,47.02 120.896,47.224 C120.896,47.488 120.764,47.632 120.572,47.788 C120.788,47.872 121.112,47.896 121.352,47.896 C121.52,47.896 121.808,47.848 122.204,47.752 C122.408,47.704 122.456,47.788 122.444,48.076 C122.12,48.52 121.808,48.94 121.808,49.468 C121.832,49.936 122.24,50.308 123.584,50.308 C124.628,50.308 126.104,50.164 128.024,48.832 Z M120.512,47.236 C120.392,47.236 120.332,47.368 120.332,47.512 C120.404,47.452 120.536,47.344 120.536,47.26 C120.536,47.248 120.524,47.236 120.512,47.236 Z M146.612,48.832 C146.612,48.832 146.828,48.664 146.804,49.144 C144.68,50.548 141.98,51.184 140.252,51.184 C137.78,51.184 137.792,49.936 137.804,48.928 C137.804,48.448 137.816,48.064 137.432,48.064 C136.112,48.064 134.432,49.648 133.196,49.648 C132.704,49.648 132.584,49.348 132.584,48.94 C132.584,48.712 132.836,47.704 132.38,47.704 C131.372,47.704 128.588,49.564 127.988,50.248 C127.988,50.248 127.808,50.548 127.628,50.224 C127.676,49.684 127.76,49.336 127.988,48.892 C128.216,48.556 128.312,49.06 128.312,49.06 C128.192,49.264 128.12,49.456 128.072,49.684 C129.08,48.832 131.432,47.344 132.38,47.344 C133.232,47.344 132.992,48.388 132.944,48.94 C132.944,49.132 132.992,49.288 133.196,49.288 C134.336,49.288 136.04,47.704 137.432,47.704 C138.176,47.704 138.164,48.256 138.164,48.928 C138.152,49.768 138.14,50.824 140.252,50.824 C141.944,50.824 144.476,50.332 146.612,48.832 Z M148.676,48.088 C148.676,48.088 149.06,47.836 149.036,48.136 C149.036,48.136 148.652,50.512 150.752,50.512 C151.736,50.512 153.764,50.26 155.78,48.832 C155.984,48.688 155.984,49.132 155.984,49.132 C153.788,50.596 151.784,50.872 150.752,50.872 C149.144,50.872 148.748,49.744 148.664,48.916 C148.172,49.708 147.428,50.368 146.864,50.368 C146.468,50.368 146.264,50.152 146.264,49.72 C146.264,48.772 148.124,47.128 149.048,47.128 C149.384,47.128 149.564,47.26 149.624,47.512 C149.588,47.596 149.3,47.824 149.264,47.584 C149.252,47.524 149.18,47.488 149.048,47.488 C148.124,47.488 146.624,48.916 146.624,49.72 C146.624,49.9 146.708,50.008 146.864,50.008 C147.452,50.008 148.304,49.036 148.676,48.088 Z M167.276,45.232 C164.708,45.64 162.212,45.892 159.74,46.024 C159.248,47.176 158.816,48.4 158.816,49.36 C158.816,50.572 159.752,50.788 160.688,50.788 C162.584,50.788 164.84,50.176 166.832,48.832 C166.976,48.736 167.036,48.988 167.024,49.144 C164.864,50.5 162.644,51.148 160.688,51.148 C159.404,51.148 158.456,50.704 158.456,49.36 C158.456,48.52 158.756,47.488 159.14,46.516 C158.324,47.488 157.292,48.316 155.996,49.132 C155.996,49.132 155.696,49.312 155.804,48.82 C157.184,47.98 158.228,47.104 159.044,46.06 C156.668,46.168 154.328,46.168 151.988,46.096 C151.988,46.096 151.628,46.084 151.988,45.736 C154.424,45.808 156.848,45.796 159.32,45.676 C159.788,45.004 160.148,44.26 160.508,43.516 C160.94,43.384 160.82,43.684 160.82,43.684 C160.508,44.32 160.208,44.968 159.908,45.652 C162.308,45.52 164.732,45.268 167.228,44.872 C167.612,45.16 167.276,45.232 167.276,45.232 Z M174.236,49.144 C172.544,50.224 170.432,50.752 168.764,50.752 C167.348,50.752 166.652,50.284 166.676,49.312 C166.676,49.156 166.7,49.048 166.736,48.892 C166.94,48.688 167.192,48.712 167.096,48.904 C167.06,49.036 167.036,49.168 167.036,49.312 C167.012,50.044 167.588,50.392 168.764,50.392 C170.372,50.392 172.412,49.96 174.044,48.832 C174.284,48.7 174.236,49.144 174.236,49.144 Z M166.94,46.948 C167.54,46.948 167.84,46.396 167.156,46.396 C167.108,46.588 166.592,46.924 166.94,46.948 Z M182.432,49.144 C180.584,50.344 178.724,50.8 177.056,50.8 C176.504,50.8 176.048,50.716 175.688,50.548 C175.352,50.656 174.992,50.716 174.644,50.716 C173.984,50.716 173.732,50.308 173.732,49.828 C173.732,49.504 173.852,49.156 174.02,48.868 C174.248,48.58 174.332,49.06 174.332,49.06 C174.188,49.3 174.092,49.576 174.092,49.828 C174.092,50.116 174.248,50.356 174.644,50.356 C174.86,50.356 175.076,50.332 175.292,50.284 C175.004,50.02 174.848,49.66 174.86,49.228 C174.86,48.388 175.448,47.176 176.528,47.176 C177.14,47.176 177.452,47.752 177.452,48.148 C177.452,49.204 176.9,49.924 176.168,50.332 C176.42,50.404 176.72,50.44 177.056,50.44 C178.664,50.44 180.524,50.056 182.24,48.832 C182.468,48.7 182.432,49.144 182.432,49.144 Z M177.092,48.148 C177.092,47.896 176.9,47.536 176.528,47.536 C175.688,47.536 175.22,48.532 175.22,49.228 C175.208,49.612 175.388,49.936 175.736,50.14 C176.492,49.828 177.092,49.168 177.092,48.148 Z M195.464237,49.132 C193.256,50.632 190.508,51.184 188.9,51.184 C186.428,51.184 186.68,49.912 186.692,48.916 C186.692,48.448 186.704,48.064 186.32,48.064 C185.84,48.064 184.82,48.748 184.1,49.396 C183.416,50.008 182.78,50.584 182.336,50.584 C181.988,50.584 181.868,50.356 181.868,50.032 C181.868,49.636 182.108,49.048 182.216,48.844 C182.216,48.844 182.432,48.616 182.54,49.012 C182.456,49.192 182.228,49.684 182.228,50.032 C182.228,50.14 182.252,50.224 182.336,50.224 C182.636,50.224 183.248,49.684 183.86,49.132 C184.604,48.46 185.732,47.704 186.32,47.704 C187.064,47.704 187.052,48.256 187.052,48.916 C187.04,49.744 186.788,50.824 188.9,50.824 C190.46,50.824 193.328,50.248 195.26,48.832 C195.476,48.688 195.464237,49.132 195.464237,49.132 Z" id="TrafficInformation" fill="#696969" fill-rule="nonzero"></path>
            <g id="Group-3" transform="translate(179.000000, 6.000000)">
                <mask id="mask-2" fill="white">
                    <use xlink:href="#path-1"></use>
                </mask>
                <g id="Clip-2"></g>
                <path d="M9.78812224,19 C10.9811752,19 11.9486059,18.0347594 11.9486059,16.8429144 C11.9486059,16.7199198 11.9378938,16.5989305 11.9178088,16.4812834 C12.1025914,16.5213904 12.294069,16.5427807 12.4909026,16.5427807 C13.9838926,16.5427807 15.193683,15.3355615 15.193683,13.8449198 C15.193683,13.3509358 15.0597826,12.8877005 14.8274653,12.4899733 C16.0888075,12.078877 17,10.8963904 17,9.5 C17,8.10360963 16.0888075,6.92112299 14.8274653,6.50935829 C15.0597826,6.11163102 15.193683,5.64906417 15.193683,5.15508021 C15.193683,3.66510695 13.9838926,2.4565508 12.4909026,2.4565508 C12.294069,2.4565508 12.1025914,2.47794118 11.9178088,2.51804813 C11.9378938,2.40040107 11.9486059,2.27941176 11.9486059,2.15708556 C11.9486059,0.965240642 10.9811752,0 9.78812224,0 C9.00279616,0 8.31521739,0.419117647 7.93694865,1.04612299 C6.8008034,2.50601604 2.6117281,7.77606952 0,9.5 C2.6117281,11.2239305 6.8008034,16.493984 7.93694865,17.9545455 C8.31521739,18.5808824 9.00212665,19 9.78812224,19" id="Fill-1" fill="#C29898" mask="url(#mask-2)"></path>
            </g>
            <g id="Group-3-Copy" transform="translate(10.500000, 14.500000) rotate(-180.000000) translate(-10.500000, -14.500000) translate(2.000000, 5.000000)">
                <mask id="mask-4" fill="white">
                    <use xlink:href="#path-3"></use>
                </mask>
                <g id="Clip-2"></g>
                <path d="M9.78812224,19 C10.9811752,19 11.9486059,18.0347594 11.9486059,16.8429144 C11.9486059,16.7199198 11.9378938,16.5989305 11.9178088,16.4812834 C12.1025914,16.5213904 12.294069,16.5427807 12.4909026,16.5427807 C13.9838926,16.5427807 15.193683,15.3355615 15.193683,13.8449198 C15.193683,13.3509358 15.0597826,12.8877005 14.8274653,12.4899733 C16.0888075,12.078877 17,10.8963904 17,9.5 C17,8.10360963 16.0888075,6.92112299 14.8274653,6.50935829 C15.0597826,6.11163102 15.193683,5.64906417 15.193683,5.15508021 C15.193683,3.66510695 13.9838926,2.4565508 12.4909026,2.4565508 C12.294069,2.4565508 12.1025914,2.47794118 11.9178088,2.51804813 C11.9378938,2.40040107 11.9486059,2.27941176 11.9486059,2.15708556 C11.9486059,0.965240642 10.9811752,0 9.78812224,0 C9.00279616,0 8.31521739,0.419117647 7.93694865,1.04612299 C6.8008034,2.50601604 2.6117281,7.77606952 0,9.5 C2.6117281,11.2239305 6.8008034,16.493984 7.93694865,17.9545455 C8.31521739,18.5808824 9.00212665,19 9.78812224,19" id="Fill-1" fill="#C29898" mask="url(#mask-4)"></path>
            </g>
        </g>
    </g>
</svg>