<?xml version="1.0" encoding="UTF-8"?>
<svg width="250px" height="53px" viewBox="0 0 250 53" version="1.1" xmlns="http://www.w3.org/2000/svg" xmlns:xlink="http://www.w3.org/1999/xlink">
    <!-- Generator: Sketch 55.2 (78181) - https://sketchapp.com -->
    <title>Group 5 Copy</title>
    <desc>Created with Sketch.</desc>
    <defs>
        <polygon id="path-1" points="0 0 17 0 17 19 0 19"></polygon>
        <polygon id="path-3" points="0 0 17 0 17 19 0 19"></polygon>
    </defs>
    <g id="Page-1" stroke="none" stroke-width="1" fill="none" fill-rule="evenodd">
        <g id="Group-5-Copy">
            <path d="M60.812,15.536 L63.332,15.536 L63.332,27.296 L60.812,27.296 L60.812,24.86 L45.328,24.86 L45.328,27.352 L42.808,27.352 L42.808,15.536 L45.328,15.536 L45.328,23.516 L51.712,23.516 L51.712,13.324 L44.04,13.324 L44.04,3.832 L46.504,3.832 L46.504,11.98 L51.712,11.98 L51.712,1.536 L54.344,1.536 L54.344,11.98 L59.608,11.98 L59.608,3.832 L62.072,3.832 L62.072,13.324 L54.344,13.324 L54.344,23.516 L60.812,23.516 L60.812,15.536 Z M84.1045,4.56 L93.9885,4.56 L93.9885,5.82 L74.1925,5.82 L74.1925,11.952 C74.1925,21.248 72.8485,24.496 69.8245,27.492 L69.0405,26.876 C70.9725,23.992 71.7285,21.808 71.7285,11.952 L71.7285,4.56 L83.1525,4.56 C81.8085,3.58 80.2125,2.6 78.9245,1.872 L79.2325,0.92 C81.6685,1.452 83.4885,1.956 85.1685,2.824 L84.1045,4.56 Z M89.1165,6.576 L89.1165,9.152 L93.5685,9.152 L93.5685,10.412 L89.1165,10.412 L89.1165,14.36 L84.8885,14.36 L84.8885,16.88 L92.3645,16.88 L92.3645,22.76 C92.3645,25.392 89.8445,26.204 86.2885,23.488 L86.5965,22.536 C89.6205,23.488 90.0405,23.096 90.0405,21.696 L90.0405,18.14 L84.8885,18.14 L84.8885,27.38 L82.4805,27.38 L82.4805,18.14 L78.0005,18.14 L78.0005,25.728 L75.6485,25.728 L75.6485,16.88 L82.4805,16.88 L82.4805,14.36 L78.3365,14.36 L78.3365,10.412 L74.6685,10.412 L74.6685,9.152 L78.3365,9.152 L78.3365,6.576 L80.6885,6.576 L80.6885,9.152 L86.7645,9.152 L86.7645,6.576 L89.1165,6.576 Z M86.7645,13.1 L86.7645,10.412 L80.6885,10.412 L80.6885,13.1 L86.7645,13.1 Z M122.153,8.984 L122.153,10.244 L98.353,10.244 L98.353,8.984 L105.381,8.984 C104.569,7.668 103.785,6.632 103.169,5.736 L103.337,5.54 L99.809,5.54 L99.809,4.28 L110.029,4.28 C108.685,3.468 107.369,2.712 105.969,1.956 L106.249,1.004 C107.845,1.256 110.085,1.76 112.269,2.684 L111.373,4.28 L120.333,4.28 L120.333,5.54 L115.237,5.54 L116.637,6.156 C115.825,7.22 115.013,8.172 114.117,8.984 L122.153,8.984 Z M104.737,5.54 C105.913,6.296 107.173,7.304 107.957,8.284 L107.033,8.984 L112.465,8.984 C113.081,7.892 113.529,6.828 113.921,5.54 L104.737,5.54 Z M118.037,11.728 L118.037,18.532 L101.909,18.532 L101.909,11.728 L118.037,11.728 Z M115.573,14.528 L115.573,12.904 L104.373,12.904 L104.373,14.528 L115.573,14.528 Z M115.573,17.356 L115.573,15.648 L104.373,15.648 L104.373,17.356 L115.573,17.356 Z M112.073,23.376 C110.841,22.06 109.357,20.688 108.321,19.736 L108.797,18.896 C110.281,19.456 112.129,20.352 113.585,21.416 L112.073,23.376 Z M115.349,20.828 L116.357,20.8 C117.617,24.524 117.449,26.372 114.453,26.596 C112.689,26.736 110.365,26.792 108.349,26.68 C105.549,26.512 104.009,26.148 104.009,23.88 L104.009,19.428 L106.529,19.428 L106.529,22.676 C106.529,23.992 106.893,24.44 108.545,24.496 C110.701,24.58 112.633,24.552 113.949,24.412 C115.209,24.272 115.461,23.964 115.349,20.828 Z M118.233,19.624 C119.745,20.716 121.509,22.368 122.741,24.16 L120.557,25.784 C119.577,23.74 118.709,22.088 117.477,20.268 L118.233,19.624 Z M97.597,24.72 C99.585,23.516 100.817,22.34 101.629,19.876 L102.637,20.128 C102.329,22.872 101.209,25.364 99.725,26.792 L97.597,24.72 Z M143.9895,7.136 C144.2135,6.1 144.4095,4.756 144.5215,3.804 L140.1255,3.804 L140.1255,2.544 L151.3255,2.544 L151.3255,3.804 L147.2375,3.804 C146.5655,5.036 145.8095,6.324 145.2495,7.136 L149.7575,7.136 L149.7575,21.164 L140.7135,21.164 L140.7135,7.136 L143.9895,7.136 Z M139.4255,16.768 L136.5135,16.768 L136.5135,25.308 C136.5135,27.408 133.9095,28.08 131.0535,25.84 L131.3615,24.944 C133.8535,25.56 134.2175,25.364 134.2175,24.244 L134.2175,16.768 L131.3055,16.768 L131.3055,7.584 L134.4695,7.584 C134.5815,6.352 134.6375,5.12 134.6375,3.888 L130.2135,3.888 L130.2135,12.596 C130.2135,20.296 128.7855,25 127.0215,27.408 L126.1815,26.876 C127.1895,24.412 127.8055,22.704 127.8055,12.876 L127.8055,2.628 L139.5375,2.628 L139.5375,3.888 L137.2135,3.888 C136.8215,5.092 136.2615,6.38 135.6735,7.584 L139.4255,7.584 L139.4255,16.768 Z M147.4055,11.308 L147.4055,8.396 L143.0655,8.396 L143.0655,11.308 L147.4055,11.308 Z M133.4615,8.844 L133.4615,11.448 L137.2135,11.448 L137.2135,8.844 L133.4615,8.844 Z M147.4055,15.536 L147.4055,12.568 L143.0655,12.568 L143.0655,15.536 L147.4055,15.536 Z M133.4615,12.652 L133.4615,15.508 L137.2135,15.508 L137.2135,12.652 L133.4615,12.652 Z M147.4055,19.904 L147.4055,16.796 L143.0655,16.796 L143.0655,19.904 L147.4055,19.904 Z M131.4735,18.392 L133.6575,19.232 C132.7055,21.612 130.7735,24.972 129.4855,26.26 L128.7575,25.7 C129.5975,24.356 130.9415,21.164 131.4735,18.392 Z M136.8775,18.868 L137.6055,18.448 C138.8935,19.876 140.1255,21.752 140.7975,23.124 L138.6975,24.188 C138.1935,22.424 137.6055,20.688 136.8775,18.868 Z M145.6135,21.696 C147.7975,22.564 149.7855,23.684 151.8295,25.336 L150.1495,27.52 C149.0575,26.232 147.1535,24.216 145.1375,22.536 L145.6135,21.696 Z M136.8775,26.876 C139.5375,25.588 141.4135,23.964 143.2055,21.836 L145.2775,23.404 C142.9255,25.42 140.0135,26.96 137.2695,27.8 L136.8775,26.876 Z M164.482,5.988 L164.482,7.248 L155.074,7.248 L155.074,5.988 L159.47,5.988 C158.546,4.448 157.37,2.768 156.67,1.872 L157.342,1.144 C158.77,1.984 160.618,3.44 161.794,4.784 L160.366,5.988 L164.482,5.988 Z M165.014,2.88 L178.622,2.88 L178.622,24.72 C178.622,27.828 175.738,28.164 171.734,25.476 L172.07,24.552 C175.682,25.504 176.214,25.308 176.214,24.132 L176.214,4.196 L167.422,4.196 L167.422,12.736 C167.478,21.892 165.826,25.336 163.866,27.576 L163.026,26.96 C164.958,23.6 165.014,19.96 165.014,12.736 L165.014,2.88 Z M168.01,11.728 L170.502,11.728 L170.502,9.096 L168.29,9.096 L168.29,7.836 L170.502,7.836 L170.502,4.952 L172.854,4.952 L172.854,7.836 L175.262,7.836 L175.262,9.096 L172.854,9.096 L172.854,11.728 L175.542,11.728 L175.542,12.988 L168.01,13.044 L168.01,11.728 Z M163.782,10.832 L155.97,10.832 L155.97,9.628 L163.782,9.628 L163.782,10.832 Z M163.754,13.352 L163.754,14.528 L155.942,14.528 L155.942,13.352 L163.754,13.352 Z M173.022,22.9 L173.022,21.36 L170.418,21.36 L170.418,23.292 L168.374,23.292 L168.374,15.284 L175.122,15.284 L175.122,22.9 L173.022,22.9 Z M170.418,20.156 L173.022,20.156 L173.022,16.488 L170.418,16.488 L170.418,20.156 Z M163.39,25.588 L161.318,25.588 L161.318,24.468 L158.182,24.468 L158.182,26.512 L156.11,26.512 L156.11,17.384 L163.39,17.384 L163.39,25.588 Z M158.182,23.18 L161.318,23.18 L161.318,18.644 L158.182,18.644 L158.182,23.18 Z M194.7465,7.136 C192.5905,10.86 188.0825,13.996 183.7985,15.592 L183.3785,14.668 C187.1025,12.736 190.6025,9.74 192.4225,6.436 L184.5265,6.436 L184.5265,5.176 L194.7465,5.176 L194.7465,1.2 L197.3785,1.2 L197.3785,5.176 L207.6825,5.176 L207.6825,6.436 L198.4705,6.436 C201.4105,9.88 204.8265,11.168 208.8585,12.428 L207.1225,15.144 C202.7545,13.212 199.2825,10.16 197.3785,6.52 L197.3785,12.82 L194.7465,12.82 L194.7465,7.136 Z M188.6145,23.04 L188.6145,13.744 L203.5665,13.744 L203.5665,23.04 L188.6145,23.04 Z M191.0785,15.004 L191.0785,17.524 L201.1025,17.524 L201.1025,15.004 L191.0785,15.004 Z M191.0785,18.784 L191.0785,21.78 L201.1025,21.78 L201.1025,18.784 L191.0785,18.784 Z M183.8825,26.512 L183.8825,25.252 L208.4105,25.252 L208.4105,26.512 L183.8825,26.512 Z" id="出席意願調查" fill="#696969" fill-rule="nonzero"></path>
            <path d="M47.144,49.264 C47.144,49.264 46.808,49.132 47.24,48.928 C47.48,48.988 47.72,49.012 47.948,49.012 C49.64,49.012 50.9,47.152 51.968,44.872 C50.948,44.356 50.42,43.516 50.42,42.712 C50.42,41.248 51.74,40.06 53.216,40.06 C53.216,40.06 53.66,40.084 53.216,40.42 C51.932,40.42 50.78,41.44 50.78,42.712 C50.78,43.396 51.236,44.104 52.124,44.548 C52.472,43.78 52.808,42.976 53.132,42.184 C53.864,40.372 54.644,38.512 55.592,37.18 C55.112,37.156 54.644,37.132 54.176,37.132 C49.688,37.132 43.028,39.508 43.028,43.192 C43.028,44.692 44.132,45.172 45.164,45.172 C45.5,45.496 45.164,45.532 45.164,45.532 C43.964,45.532 42.668,44.956 42.668,43.192 C42.668,39.292 49.544,36.772 54.176,36.772 C54.728,36.772 55.292,36.796 55.856,36.844 C56.408,36.148 57.008,35.644 57.704,35.44 C58.04,35.68 57.8,35.776 57.8,35.776 C57.224,35.944 56.72,36.34 56.264,36.88 C58.904,37.156 61.316,38.092 61.316,40.6 C61.316,44.044 57.572,45.388 54.392,45.388 C53.576,45.388 52.88,45.256 52.304,45.028 C51.188,47.44 49.904,49.372 47.948,49.372 C47.708,49.372 47.444,49.348 47.144,49.264 Z M60.956,40.6 C60.956,38.272 58.568,37.444 55.988,37.216 C55.04,38.488 54.26,40.408 53.468,42.328 C53.132,43.132 52.808,43.936 52.46,44.704 C52.988,44.908 53.624,45.028 54.392,45.028 C57.404,45.028 60.956,43.78 60.956,40.6 Z M70.988,45.832 C70.988,45.832 71.204,45.676 71.18,46.144 C69.116,47.476 67.664,47.668 66.548,47.668 C64.928,47.668 64.436,47.152 64.412,46.48 C64.412,46.024 64.58,45.592 64.82,45.22 C64.64,45.244 64.448,45.256 64.316,45.256 C63.98,45.256 63.524,45.208 63.236,45.028 C62.804,45.328 62.036,45.832 61.496,46.132 C61.496,46.132 61.22,46.312 61.316,45.82 C61.82,45.556 62.564,45.052 62.984,44.752 C62.948,44.692 62.936,44.62 62.936,44.536 C62.936,44.212 63.164,43.876 63.476,43.876 C63.752,43.876 63.86,44.02 63.86,44.224 C63.86,44.488 63.728,44.632 63.536,44.788 C63.752,44.872 64.076,44.896 64.316,44.896 C64.484,44.896 64.772,44.848 65.168,44.752 C65.372,44.704 65.42,44.788 65.408,45.076 C65.084,45.52 64.772,45.94 64.772,46.468 C64.796,46.936 65.204,47.308 66.548,47.308 C67.592,47.308 69.068,47.164 70.988,45.832 Z M63.476,44.236 C63.356,44.236 63.296,44.368 63.296,44.512 C63.368,44.452 63.5,44.344 63.5,44.26 C63.5,44.248 63.488,44.236 63.476,44.236 Z M78.98,45.82 C78.98,45.82 79.184,45.724 79.148,46.144 C77.636,47.02 74.948,48.124 72.152,48.124 C70.988,48.124 70.556,47.692 70.544,47.056 C70.544,45.832 71.84,44.704 72.98,44.704 C73.472,44.704 73.7,44.98 73.7,45.292 C73.7,46.024 72.788,46.324 72.284,46.324 C71.924,46.324 71.54,46.264 71.18,46.144 C71.012,46.42 70.904,46.732 70.904,47.056 C70.916,47.476 71.24,47.764 72.152,47.764 C74.864,47.764 77.492,46.684 78.98,45.82 Z M72.98,45.064 C72.428,45.064 71.828,45.376 71.42,45.832 C71.708,45.916 71.996,45.964 72.284,45.964 C72.668,45.964 73.34,45.76 73.34,45.292 C73.34,45.172 73.232,45.064 72.98,45.064 Z M88.652,45.856 C88.652,45.856 88.916,45.628 88.88,46.144 C87.08,47.344 85.688,47.656 84.272,47.656 C84.056,47.656 83.852,47.62 83.648,47.56 C83.156,48.304 82.064,48.58 81.284,48.58 C80.108,48.58 79.568,48.016 79.568,47.344 C79.568,46.516 80.324,46.144 81.044,46.144 C81.884,46.144 82.64,46.816 83.468,47.128 C83.516,46.996 83.552,46.84 83.552,46.672 C83.552,45.856 81.584,45.328 81.404,44.464 C80.636,45.124 79.652,45.82 79.148,46.132 C79.148,46.132 78.884,46.3 78.98,45.82 C79.592,45.436 80.936,44.452 81.716,43.672 C82.148,43.696 81.98,43.936 81.98,43.936 L81.86,44.056 C81.788,44.152 81.752,44.248 81.752,44.332 C81.752,45.04 83.912,45.664 83.912,46.672 C83.912,46.888 83.876,47.068 83.816,47.236 C83.96,47.272 84.116,47.296 84.272,47.296 C85.628,47.296 86.984,47.02 88.652,45.856 Z M81.284,48.22 C81.932,48.22 82.844,47.992 83.288,47.44 C82.496,47.104 81.788,46.504 81.044,46.504 C80.492,46.504 79.928,46.756 79.928,47.344 C79.928,47.8 80.348,48.22 81.284,48.22 Z M96.68,45.82 C96.68,45.82 96.884,45.724 96.848,46.144 C95.336,47.02 92.648,48.124 89.852,48.124 C88.688,48.124 88.256,47.692 88.244,47.056 C88.244,45.832 89.54,44.704 90.68,44.704 C91.172,44.704 91.4,44.98 91.4,45.292 C91.4,46.024 90.488,46.324 89.984,46.324 C89.624,46.324 89.24,46.264 88.88,46.144 C88.712,46.42 88.604,46.732 88.604,47.056 C88.616,47.476 88.94,47.764 89.852,47.764 C92.564,47.764 95.192,46.684 96.68,45.82 Z M90.68,45.064 C90.128,45.064 89.528,45.376 89.12,45.832 C89.408,45.916 89.696,45.964 89.984,45.964 C90.368,45.964 91.04,45.76 91.04,45.292 C91.04,45.172 90.932,45.064 90.68,45.064 Z M109.880237,46.132 C107.672,47.632 104.924,48.184 103.316,48.184 C100.844,48.184 101.096,46.912 101.108,45.916 C101.108,45.448 101.12,45.064 100.736,45.064 C100.256,45.064 99.236,45.748 98.516,46.396 C97.832,47.008 97.196,47.584 96.752,47.584 C96.404,47.584 96.284,47.356 96.284,47.032 C96.284,46.636 96.524,46.048 96.632,45.844 C96.632,45.844 96.848,45.616 96.956,46.012 C96.872,46.192 96.644,46.684 96.644,47.032 C96.644,47.14 96.668,47.224 96.752,47.224 C97.052,47.224 97.664,46.684 98.276,46.132 C99.02,45.46 100.148,44.704 100.736,44.704 C101.48,44.704 101.468,45.256 101.468,45.916 C101.456,46.744 101.204,47.824 103.316,47.824 C104.876,47.824 107.744,47.248 109.676,45.832 C109.892,45.688 109.880237,46.132 109.880237,46.132 Z M117.668,45.832 C117.668,45.832 117.932,45.7 117.86,46.144 C116.18,47.128 113.408,47.98 111.272,47.98 C110.108,47.98 109.352,47.692 109.352,46.672 C109.352,45.532 111.26,44.44 112.124,44.44 C112.94,44.44 113,44.968 112.832,45.292 C112.832,45.292 112.592,45.496 112.52,45.124 C112.58,45.004 112.52,44.8 112.124,44.8 C111.38,44.8 109.712,45.724 109.712,46.672 C109.712,47.404 110.324,47.62 111.272,47.62 C113.348,47.62 116.036,46.792 117.668,45.832 Z M125.672,45.82 C125.672,45.82 125.876,45.724 125.84,46.144 C124.328,47.02 121.64,48.124 118.844,48.124 C117.68,48.124 117.248,47.692 117.236,47.056 C117.236,45.832 118.532,44.704 119.672,44.704 C120.164,44.704 120.392,44.98 120.392,45.292 C120.392,46.024 119.48,46.324 118.976,46.324 C118.616,46.324 118.232,46.264 117.872,46.144 C117.704,46.42 117.596,46.732 117.596,47.056 C117.608,47.476 117.932,47.764 118.844,47.764 C121.556,47.764 124.184,46.684 125.672,45.82 Z M119.672,45.064 C119.12,45.064 118.52,45.376 118.112,45.832 C118.4,45.916 118.688,45.964 118.976,45.964 C119.36,45.964 120.032,45.76 120.032,45.292 C120.032,45.172 119.924,45.064 119.672,45.064 Z M145.342802,47.4222827 C146.501232,46.6670353 147.152,45.7209186 147.152,44.728 C147.152,41.668 141.416,42.424 141.416,39.496 C141.416,39.2635995 141.45802,39.044385 141.535164,38.8385693 C140.083625,38.2994868 139.143064,37.426893 138.836,36.736 C139.004,36.316 139.172,36.592 139.172,36.592 C139.447906,37.2204522 140.325873,38.0202227 141.690233,38.5161334 C142.450644,37.2309069 144.628776,36.556 146.132,36.556 C147.644,36.556 148.424,36.964 148.424,37.816 C148.424,39.172 146.132,39.34 144.452,39.34 C143.482516,39.34 142.618118,39.1917126 141.873009,38.9548695 C141.810085,39.1251048 141.776,39.3055399 141.776,39.496 C141.776,42.136 147.512,41.296 147.512,44.728 C147.512,45.7620546 146.885887,46.7487389 145.765916,47.5498257 C146.224333,47.6710263 146.697058,47.74 147.188,47.74 C149.936,47.74 152.276,47.212 154.268,45.832 C154.28,45.832 154.448,45.676 154.46,46.132 C152.408,47.5 150.008,48.1 147.188,48.1 C146.559831,48.1 145.958338,47.9916273 145.377601,47.8078646 C143.777808,48.7965653 141.363627,49.444 138.428,49.444 C135.512,49.444 133.4,47.752 133.4,45.88 C133.4,43.984 134.804,43.06 136.58,43.06 C139.7384,43.06 142.226465,46.3692447 145.342802,47.4222827 L145.342802,47.4222827 Z M142.033785,38.6311746 C142.732422,38.8457469 143.54287,38.98 144.452,38.98 C145.988,38.98 148.064,38.86 148.064,37.816 C148.064,37.204 147.404,36.916 146.132,36.916 C144.748684,36.916 142.74061,37.5091249 142.033785,38.6311746 L142.033785,38.6311746 Z M144.952158,47.6588448 C141.91218,46.4931619 139.419448,43.42 136.58,43.42 C134.996,43.42 133.76,44.224 133.76,45.88 C133.76,47.56 135.728,49.084 138.428,49.084 C141.156809,49.084 143.416672,48.5232328 144.952158,47.6588448 L144.952158,47.6588448 Z M165.068,46.144 C162.752,47.644 160.676,47.908 159.644,47.908 C158.24,47.908 157.76,46.996 157.76,46.216 C157.76,46.084 157.76,45.94 157.784,45.82 C157.232,46.396 156.5,46.96 155.996,46.972 C155.576,46.972 155.432,46.732 155.432,46.384 C155.432,46.096 155.54,45.676 155.696,45.316 C155.264,45.628 154.856,45.904 154.448,46.144 C154.172,46.264 154.28,45.82 154.28,45.82 C154.856,45.46 155.696,44.884 156.224,44.476 C156.476,44.284 156.44,44.764 156.44,44.764 C156.14,45.04 155.792,45.952 155.792,46.384 C155.792,46.516 155.84,46.612 155.996,46.612 C156.548,46.6 157.496,45.688 157.964,45.052 C158.348,44.944 158.3,45.172 158.3,45.172 C158.3,45.172 158.12,45.664 158.12,46.216 C158.12,46.828 158.528,47.548 159.644,47.548 C160.628,47.548 162.536,47.404 164.876,45.832 C165.092,45.724 165.068,46.144 165.068,46.144 Z M174.56,45.832 C174.56,45.832 174.776,45.676 174.752,46.144 C172.688,47.476 171.236,47.668 170.12,47.668 C168.5,47.668 168.008,47.152 167.984,46.48 C167.984,46.024 168.152,45.592 168.392,45.22 C168.212,45.244 168.02,45.256 167.888,45.256 C167.552,45.256 167.096,45.208 166.808,45.028 C166.376,45.328 165.608,45.832 165.068,46.132 C165.068,46.132 164.792,46.312 164.888,45.82 C165.392,45.556 166.136,45.052 166.556,44.752 C166.52,44.692 166.508,44.62 166.508,44.536 C166.508,44.212 166.736,43.876 167.048,43.876 C167.324,43.876 167.432,44.02 167.432,44.224 C167.432,44.488 167.3,44.632 167.108,44.788 C167.324,44.872 167.648,44.896 167.888,44.896 C168.056,44.896 168.344,44.848 168.74,44.752 C168.944,44.704 168.992,44.788 168.98,45.076 C168.656,45.52 168.344,45.94 168.344,46.468 C168.368,46.936 168.776,47.308 170.12,47.308 C171.164,47.308 172.64,47.164 174.56,45.832 Z M167.048,44.236 C166.928,44.236 166.868,44.368 166.868,44.512 C166.94,44.452 167.072,44.344 167.072,44.26 C167.072,44.248 167.06,44.236 167.048,44.236 Z M186.908,45.832 C186.908,45.832 187.088,45.664 187.1,46.132 C186.368,46.612 185.288,47.152 183.296,47.164 C181.508,47.176 180.512,46.732 179.984,46.18 C179.204,47.008 178.04,47.8 177.416,47.8 C176.6,47.8 176.3,46.54 176.24,45.1 C175.736,45.484 175.316,45.784 174.764,46.132 C174.488,46.252 174.596,45.808 174.596,45.808 C175.244,45.4 175.7,45.064 176.384,44.536 C176.66,44.38 176.6,44.824 176.6,44.824 C176.636,46.18 176.768,47.44 177.416,47.44 C177.98,47.44 179.084,46.696 179.78,45.928 C179.528,45.568 179.444,45.184 179.444,44.848 C179.444,44.416 179.648,44.008 180.092,44.008 C180.656,44.008 180.776,44.44 180.776,44.788 C180.776,45.1 180.548,45.508 180.212,45.916 C180.668,46.42 181.568,46.816 183.296,46.804 C185.204,46.792 186.188,46.336 186.908,45.832 Z M179.804,44.848 C179.804,45.1 179.864,45.376 180.02,45.652 C180.26,45.34 180.416,45.028 180.416,44.788 C180.416,44.608 180.332,44.368 180.092,44.368 C179.888,44.368 179.804,44.584 179.804,44.848 Z M194.888,45.82 C194.888,45.82 195.092,45.724 195.056,46.144 C193.544,47.02 190.856,48.124 188.06,48.124 C186.896,48.124 186.464,47.692 186.452,47.056 C186.452,45.832 187.748,44.704 188.888,44.704 C189.38,44.704 189.608,44.98 189.608,45.292 C189.608,46.024 188.696,46.324 188.192,46.324 C187.832,46.324 187.448,46.264 187.088,46.144 C186.92,46.42 186.812,46.732 186.812,47.056 C186.824,47.476 187.148,47.764 188.06,47.764 C190.772,47.764 193.4,46.684 194.888,45.82 Z M188.888,45.064 C188.336,45.064 187.736,45.376 187.328,45.832 C187.616,45.916 187.904,45.964 188.192,45.964 C188.576,45.964 189.248,45.76 189.248,45.292 C189.248,45.172 189.14,45.064 188.888,45.064 Z M201.08,44.896 L201.08,44.908 C200.744,46.252 200.312,47.548 199.844,48.676 C202.148,47.692 204.932,46.828 206.216,45.844 C206.216,45.844 206.444,45.652 206.42,46.144 C204.956,47.2 201.968,48.088 199.664,49.084 C198.788,51.052 197.78,52.42 196.904,52.42 C196.424,52.42 196.184,52.156 196.184,51.736 C196.184,50.596 197.576,49.696 199.364,48.892 C199.76,47.968 200.144,46.924 200.456,45.868 C199.844,46.612 198.908,47.428 198.008,47.428 C196.892,47.428 196.448,46.444 196.64,45.112 C196.064,45.508 195.548,45.832 195.08,46.132 C194.804,46.252 194.912,45.808 194.912,45.808 C195.476,45.46 196.076,45.076 196.82,44.536 C197.096,44.38 197.036,44.824 197.024,44.836 C196.928,45.628 196.772,47.068 198.008,47.068 C199.208,47.068 200.468,45.412 200.744,44.752 C200.888,44.476 201.08,44.896 201.08,44.896 Z M196.904,52.06 C197.612,52.06 198.44,50.92 199.184,49.312 C197.66,50.02 196.544,50.788 196.544,51.736 C196.544,51.94 196.664,52.06 196.904,52.06 Z" id="PresenceSurvey" fill="#696969" fill-rule="nonzero"></path>
            <g id="Group-3-Copy-4" transform="translate(233.000000, 6.000000)">
                <mask id="mask-2" fill="white">
                    <use xlink:href="#path-1"></use>
                </mask>
                <g id="Clip-2"></g>
                <path d="M9.78812224,19 C10.9811752,19 11.9486059,18.0347594 11.9486059,16.8429144 C11.9486059,16.7199198 11.9378938,16.5989305 11.9178088,16.4812834 C12.1025914,16.5213904 12.294069,16.5427807 12.4909026,16.5427807 C13.9838926,16.5427807 15.193683,15.3355615 15.193683,13.8449198 C15.193683,13.3509358 15.0597826,12.8877005 14.8274653,12.4899733 C16.0888075,12.078877 17,10.8963904 17,9.5 C17,8.10360963 16.0888075,6.92112299 14.8274653,6.50935829 C15.0597826,6.11163102 15.193683,5.64906417 15.193683,5.15508021 C15.193683,3.66510695 13.9838926,2.4565508 12.4909026,2.4565508 C12.294069,2.4565508 12.1025914,2.47794118 11.9178088,2.51804813 C11.9378938,2.40040107 11.9486059,2.27941176 11.9486059,2.15708556 C11.9486059,0.965240642 10.9811752,0 9.78812224,0 C9.00279616,0 8.31521739,0.419117647 7.93694865,1.04612299 C6.8008034,2.50601604 2.6117281,7.77606952 0,9.5 C2.6117281,11.2239305 6.8008034,16.493984 7.93694865,17.9545455 C8.31521739,18.5808824 9.00212665,19 9.78812224,19" id="Fill-1" fill="#C29898" mask="url(#mask-2)"></path>
            </g>
            <g id="Group-3-Copy-5" transform="translate(8.500000, 14.500000) rotate(-180.000000) translate(-8.500000, -14.500000) translate(0.000000, 5.000000)">
                <mask id="mask-4" fill="white">
                    <use xlink:href="#path-3"></use>
                </mask>
                <g id="Clip-2"></g>
                <path d="M9.78812224,19 C10.9811752,19 11.9486059,18.0347594 11.9486059,16.8429144 C11.9486059,16.7199198 11.9378938,16.5989305 11.9178088,16.4812834 C12.1025914,16.5213904 12.294069,16.5427807 12.4909026,16.5427807 C13.9838926,16.5427807 15.193683,15.3355615 15.193683,13.8449198 C15.193683,13.3509358 15.0597826,12.8877005 14.8274653,12.4899733 C16.0888075,12.078877 17,10.8963904 17,9.5 C17,8.10360963 16.0888075,6.92112299 14.8274653,6.50935829 C15.0597826,6.11163102 15.193683,5.64906417 15.193683,5.15508021 C15.193683,3.66510695 13.9838926,2.4565508 12.4909026,2.4565508 C12.294069,2.4565508 12.1025914,2.47794118 11.9178088,2.51804813 C11.9378938,2.40040107 11.9486059,2.27941176 11.9486059,2.15708556 C11.9486059,0.965240642 10.9811752,0 9.78812224,0 C9.00279616,0 8.31521739,0.419117647 7.93694865,1.04612299 C6.8008034,2.50601604 2.6117281,7.77606952 0,9.5 C2.6117281,11.2239305 6.8008034,16.493984 7.93694865,17.9545455 C8.31521739,18.5808824 9.00212665,19 9.78812224,19" id="Fill-1" fill="#C29898" mask="url(#mask-4)"></path>
            </g>
        </g>
    </g>
</svg>