<?xml version="1.0" encoding="UTF-8"?>
<svg width="194px" height="55px" viewBox="0 0 194 55" version="1.1" xmlns="http://www.w3.org/2000/svg" xmlns:xlink="http://www.w3.org/1999/xlink">
    <!-- Generator: Sketch 58 (84663) - https://sketch.com -->
    <title>Group 4 Copy</title>
    <desc>Created with Sketch.</desc>
    <defs>
        <polygon id="path-1" points="0 0 17 0 17 19 0 19"></polygon>
        <polygon id="path-3" points="0 0 17 0 17 19 0 19"></polygon>
    </defs>
    <g id="Page-1" stroke="none" stroke-width="1" fill="none" fill-rule="evenodd">
        <g id="Group-4-Copy">
            <path d="M54.26,18.904 L54.26,15.488 L63.724,15.488 L63.724,14.228 L56.388,14.228 C57.76,12.968 59.076,11.372 59.804,10.196 L57.984,9.412 L64.48,9.412 L64.48,8.152 L54.204,8.152 L54.204,4.96 L62.128,4.96 L62.128,3.7 L54.204,3.7 L54.204,0.312 L51.628,0.312 L51.628,3.7 L43.956,3.7 L43.956,4.96 L51.628,4.96 L51.628,8.152 L41.632,8.152 L41.632,9.412 L47.064,9.412 L46.532,9.86 C47.4,11.372 48.184,12.912 48.772,14.228 L42.304,14.228 L42.304,15.488 L51.684,15.488 L51.684,18.904 L40.792,18.904 L40.792,20.164 L51.684,20.164 L51.684,26.492 L54.26,26.492 L54.26,20.164 L65.18,20.164 L65.18,18.904 L54.26,18.904 Z M50.088,14.228 L51.46,13.388 C50.228,11.792 48.996,10.42 47.68,9.412 L56.92,9.412 C56.584,10.784 55.856,12.744 55.016,14.228 L50.088,14.228 Z M76.0125,4.232 C74.9485,2.72 73.6605,1.348 72.1205,0.088 L71.2805,0.676 C72.2325,2.356 73.0725,3.952 73.7725,5.744 L76.0125,4.232 Z M93.4005,2.356 L78.5325,2.356 L78.5325,3.616 L93.4005,3.616 L93.4005,2.356 Z M78.9525,14.284 L78.9525,15.068 C78.0005,14.004 76.8525,13.024 75.6485,12.128 L75.6485,12.1 C76.7965,10.56 77.7205,8.852 78.5885,6.808 L76.3765,5.632 L75.9005,5.996 L69.5725,5.996 L69.5725,7.256 L75.7045,7.256 C74.3885,10.588 72.5685,13.724 68.8165,17.056 L69.3765,17.924 C70.8885,16.888 72.1485,15.88 73.2405,14.844 L73.2405,26.436 L75.6485,26.436 L75.6485,13.948 C76.3205,15.012 76.8805,16.02 77.4405,17.084 L78.9525,15.796 L78.9525,26.38 L81.4165,26.38 L81.4165,24.728 L90.9645,24.728 L90.9645,26.296 L93.4285,26.296 L93.4285,14.284 L78.9525,14.284 Z M91.7765,11.876 L91.7765,5.968 L80.4645,5.968 L80.4645,11.876 L91.7765,11.876 Z M82.8165,7.228 L89.3685,7.228 L89.3685,10.616 L82.8165,10.616 L82.8165,7.228 Z M84.8885,18.792 L81.4165,18.792 L81.4165,15.544 L84.8885,15.544 L84.8885,18.792 Z M90.9645,18.792 L87.2965,18.792 L87.2965,15.544 L90.9645,15.544 L90.9645,18.792 Z M84.8885,23.468 L81.4165,23.468 L81.4165,19.996 L84.8885,19.996 L84.8885,23.468 Z M90.9645,23.468 L87.2965,23.468 L87.2965,19.996 L90.9645,19.996 L90.9645,23.468 Z M115.685,6.92 L115.685,0.536 L113.165,0.536 L113.165,6.92 L107.649,6.92 L107.649,26.184 L110.057,26.184 L110.057,23.552 L118.793,23.552 L118.793,26.128 L121.257,26.128 L121.257,6.92 L115.685,6.92 Z M104.205,0.564 L101.741,0.564 L101.741,6.444 L98.045,6.444 L98.045,7.704 L101.741,7.704 L101.741,13.696 C100.453,14.144 99.109,14.508 97.681,14.9 L98.801,17.504 C99.781,17.056 100.761,16.552 101.741,16.02 L101.741,22.936 C101.741,24.252 101.041,24.392 98.269,23.72 L97.989,24.644 C101.601,27.108 104.205,26.268 104.205,23.832 L104.205,14.592 C105.157,13.976 106.081,13.304 107.005,12.576 L106.557,11.708 C105.773,12.128 104.989,12.464 104.205,12.8 L104.205,7.704 L107.061,7.704 L107.061,6.444 L104.205,6.444 L104.205,0.564 Z M113.165,14.172 L110.057,14.172 L110.057,8.18 L113.165,8.18 L113.165,14.172 Z M118.793,14.172 L115.685,14.172 L115.685,8.18 L118.793,8.18 L118.793,14.172 Z M113.165,22.292 L110.057,22.292 L110.057,15.432 L113.165,15.432 L113.165,22.292 Z M118.793,22.292 L115.685,22.292 L115.685,15.432 L118.793,15.432 L118.793,22.292 Z M136.2335,9.104 L136.4575,10.056 C136.9895,9.972 137.5215,9.86 138.0255,9.748 L138.0255,10.392 L145.8375,10.392 L145.835144,12.9887033 C145.808189,13.9129807 145.511682,14.0540606 143.0655,13.528 L142.7855,14.396 C146.0615,16.72 148.1335,15.656 148.1335,13.696 L148.1335,10.392 L151.1575,10.392 L151.1575,9.188 L148.1335,9.188 L148.1335,7.2 L145.8375,7.2 L145.8375,9.188 L140.1255,9.188 C145.1375,7.648 148.2735,5.016 149.8135,3.084 L147.4335,1.768 L146.9295,2.104 L143.0375,2.104 C143.3175,1.768 143.5695,1.432 143.8215,1.096 L141.4695,0.312 C140.4615,2.188 139.0615,4.036 136.2615,5.716 L136.6535,6.5 C137.2135,6.276 137.7735,6.052 138.2775,5.772 C138.6695,6.388 139.0335,7.088 139.4255,7.872 L140.8535,6.808 C140.3215,6.22 139.6775,5.688 139.1175,5.324 C139.6775,4.988 140.1815,4.652 140.6575,4.288 C141.1895,4.82 141.8895,5.604 142.3935,6.248 L143.5975,4.932 C142.9255,4.456 142.0855,4.036 141.3855,3.728 C141.5815,3.56 141.7775,3.392 141.9455,3.224 L146.5095,3.224 C144.6615,5.492 140.7975,8.18 136.2335,9.104 Z M127.1335,16.02 L127.6375,16.804 C130.5215,15.544 131.8935,12.828 131.9495,10.028 L133.7135,10.028 L133.7135,16.16 L136.0655,16.16 L136.0655,0.536 L133.7135,0.536 L133.7135,5.128 L131.1655,5.128 L131.1655,0.956 L128.9255,0.956 L128.9255,7.676 L131.1655,7.676 L131.1655,6.332 L133.7135,6.332 L133.7135,8.824 L127.2455,8.824 L127.2455,10.028 L129.6815,10.028 C129.5975,12.828 128.9535,14.788 127.1335,16.02 Z M139.6215,10.588 L139.1735,11.344 C140.0415,12.156 141.0775,13.22 141.8335,14.144 L143.1495,12.492 C142.2535,11.764 140.7135,10.98 139.6215,10.588 Z M140.4335,18.876 C143.6255,22.768 149.9535,23.3 151.4375,23.412 L150.0655,26.296 L149.723277,26.2422911 C147.662732,25.8774533 141.975147,24.2141176 139.3135,19.128 C137.5775,23.664 133.2655,25.82 126.7695,26.716 L126.4615,25.764 C132.1175,24.532 135.2815,22.292 136.5695,18.876 L126.8815,18.876 L126.8815,17.616 L136.9615,17.616 C137.1855,16.72 137.2695,15.768 137.2975,14.732 L140.1535,14.984 C140.0975,15.936 139.9855,16.804 139.7895,17.616 L143.2335,17.616 L142.63448,16.9955918 C142.102643,16.4502857 141.5055,15.856 140.9655,15.376 L141.3575,14.676 C142.3655,15.012 143.8215,15.656 144.9415,16.468 L144.0175,17.616 L151.1015,17.616 L151.1015,18.876 L140.4335,18.876 Z" id="幸福抽獎" fill="#696969" fill-rule="nonzero"></path>
            <path d="M54.804,47.832 C51.468,50.052 47.136,51.012 42.744,51.012 C40.368,51.012 38.628,50.448 37.368,49.98 C38.448,48.972 39.528,47.46 40.656,45.876 C41.04,45.336 41.424,44.784 41.82,44.244 L42.6690962,44.2287464 C43.3542857,44.22 43.98,44.22 44.52,44.22 C49.176,44.22 50.556,41.736 50.556,40.776 C50.556,39.924 50.04,39.048 48.072,39.048 C45.684,39.048 43.548,41.352 41.652,43.884 L40.9217395,43.9043751 C36.6424066,44.0512621 31.44,44.7418909 31.44,47.964 C31.44,48.153 31.46025,48.342 31.5058125,48.520875 L31.56,48.696 C31.56,48.696 31.704,48.984 31.896,48.576 C31.836,48.384 31.8,48.18 31.8,47.964 C31.8,45.024 37.152,44.4 41.376,44.268 C41.144,44.58 40.9173333,44.892 40.696,45.2004444 L39.8340464,46.4023177 C38.8608994,47.7497751 37.9181538,49.0033846 36.984,49.836 L36.4694321,49.6453498 C35.8838519,49.4364444 35.3466667,49.284 34.824,49.284 C33.516,49.284 33.336,49.884 33.336,50.232 C33.336,50.868 33.888,51.18 34.92,51.18 C35.652,51.18 36.36,50.832 37.068,50.244 L37.6532012,50.4651778 C38.8765714,50.913551 40.44,51.372 42.744,51.372 C47.184,51.372 51.444,50.424 55.008,48.132 C55.008,47.664 54.804,47.832 54.804,47.832 Z M48.072,39.408 C49.752,39.408 50.196,40.092 50.196,40.776 L50.1873348,40.9049988 C50.0677058,41.841709 48.6848372,43.86 44.52,43.86 L43.5631137,43.8609446 C43.1071837,43.8622041 42.6154286,43.8651429 42.108,43.872 L42.4825118,43.3829615 C44.1774507,41.2075291 46.0051034,39.408 48.072,39.408 Z M34.92,50.82 C34.2,50.82 33.696,50.616 33.696,50.232 C33.696,50.004 33.828,49.644 34.824,49.644 C35.412,49.644 36,49.836 36.672,50.088 C36.084,50.556 35.496,50.82 34.92,50.82 Z M65.616,48.144 L65.615352,48.056196 C65.6088,47.93952 65.5752,47.7564 65.424,47.832 C63.084,49.404 61.176,49.548 60.192,49.548 C59.076,49.548 58.668,48.828 58.668,48.216 C58.668,47.664 58.848,47.172 58.848,47.172 L58.8489737,47.132565 C58.8420496,47.0726281 58.7912727,46.9734545 58.512,47.052 C58.044,47.688 57.096,48.6 56.544,48.612 C56.388,48.612 56.34,48.516 56.34,48.384 C56.34,47.952 56.688,47.04 56.988,46.764 L56.988,46.6466667 C56.98,46.5186667 56.94,46.348 56.772,46.476 C56.244,46.884 55.404,47.46 54.828,47.82 L54.8138813,47.8986266 C54.7976529,48.0202314 54.7952727,48.2312727 54.996,48.144 C55.404,47.904 55.812,47.628 56.244,47.316 C56.088,47.676 55.98,48.096 55.98,48.384 C55.98,48.732 56.124,48.972 56.544,48.972 C57.048,48.96 57.78,48.396 58.332,47.82 C58.308,47.94 58.308,48.084 58.308,48.216 C58.308,48.996 58.788,49.908 60.192,49.908 L60.4593132,49.9024335 C61.557696,49.8578496 63.48528,49.524 65.616,48.144 Z M73.404,47.832 C71.772,48.792 69.084,49.62 67.008,49.62 C66.06,49.62 65.448,49.404 65.448,48.672 C65.448,47.724 67.116,46.8 67.86,46.8 C68.256,46.8 68.316,47.004 68.256,47.124 C68.328,47.496 68.568,47.292 68.568,47.292 C68.736,46.968 68.676,46.44 67.86,46.44 C66.996,46.44 65.088,47.532 65.088,48.672 C65.088,49.692 65.844,49.98 67.008,49.98 C69.144,49.98 71.916,49.128 73.596,48.144 C73.668,47.7 73.404,47.832 73.404,47.832 Z M78.048,46.896 L78.1422222,46.8328889 C78.24,46.7573333 78.352,46.632 78.144,46.56 C77.568,46.392 77.076,45.972 76.728,45.48 C77.1,44.94 77.352,44.352 77.352,43.776 C77.352,43.296 77.136,42.996 76.632,42.996 C76.044,42.996 75.84,43.536 75.84,44.064 C75.84,44.484 76.008,45 76.308,45.468 C75.564,46.44 74.364,47.316 73.44,47.82 C73.332,48.288 73.608,48.132 73.608,48.132 C74.532,47.616 75.732,46.764 76.512,45.768 C76.8,46.152 77.172,46.488 77.592,46.716 C76.836,47.148 76.38,47.928 76.38,48.684 C76.38,49.476 76.86,50.148 78.048,50.148 C79.992,50.148 82.392,49.476 84.396,48.144 C84.456,47.688 84.204,47.832 84.204,47.832 C82.272,49.2 79.932,49.788 78.048,49.788 C77.124,49.788 76.74,49.284 76.74,48.684 C76.74,47.952 77.232,47.22 78.048,46.896 Z M76.2,44.064 C76.2,43.752 76.308,43.356 76.632,43.356 C76.896,43.356 76.992,43.512 76.992,43.776 C76.992,44.244 76.812,44.712 76.524,45.168 C76.32,44.796 76.2,44.4 76.2,44.064 Z M90.432,46.908 L90.432,46.896 L90.39975,46.8346875 C90.339,46.7295 90.204,46.545 90.096,46.752 C89.82,47.412 88.56,49.068 87.36,49.068 C86.124,49.068 86.28,47.628 86.376,46.836 L86.3842222,46.7987778 C86.3986667,46.6926667 86.402,46.406 86.172,46.536 C85.428,47.076 84.828,47.46 84.264,47.808 L84.2498813,47.8866266 C84.2336529,48.0082314 84.2312727,48.2192727 84.432,48.132 L85.017408,47.757408 C85.3224,47.56128 85.6464,47.3496 85.992,47.112 C85.8,48.444 86.244,49.428 87.36,49.428 C88.26,49.428 89.196,48.612 89.808,47.868 C89.496,48.924 89.112,49.968 88.716,50.892 L88.2778264,51.0950833 C86.7056667,51.8476667 85.536,52.691 85.536,53.736 C85.536,54.156 85.776,54.42 86.256,54.42 C87.132,54.42 88.14,53.052 89.016,51.084 C91.32,50.088 94.308,49.2 95.772,48.144 C95.796,47.652 95.568,47.844 95.568,47.844 C94.284,48.828 91.5,49.692 89.196,50.676 C89.664,49.548 90.096,48.252 90.432,46.908 Z M86.256,54.06 C86.016,54.06 85.896,53.94 85.896,53.736 C85.896,52.788 87.012,52.02 88.536,51.312 C87.792,52.92 86.964,54.06 86.256,54.06 Z M106.992,47.04 C109.704,47.04 111.9,46.692 113.808,46.068 L113.447273,46.7283516 C112.593,48.2428125 111.648,49.554 110.556,50.268 C110.256,50.136 109.992,49.98 109.764,49.848 L109.424576,49.6637037 C109.039259,49.4604444 108.677333,49.308 108.192,49.308 C107.388,49.308 107.052,49.608 107.052,50.208 C107.052,50.616 107.424,51.204 108.768,51.204 C109.428,51.204 110.04,51 110.616,50.664 C111.324,50.952 112.272,51.18 113.616,51.18 C119.424,51.18 123.924,48.372 123.924,44.184 C123.924,42.048 122.82,39.576 118.08,38.844 C118.5,38.328 118.932,37.968 119.388,37.824 L119.441134,37.7835376 C119.499337,37.7257278 119.550462,37.6126154 119.268,37.488 C118.692,37.668 118.176,38.136 117.672,38.784 C116.88,38.688 115.992,38.628 115.008,38.628 C107.892,38.628 103.212,41.304 103.212,44.136 C103.212,45.72 104.472,47.04 106.992,47.04 Z M118.070486,44.0434733 L118.527883,43.7527701 C118.579314,43.7128757 118.716,43.5738462 118.32,43.452 C117.132,44.232 115.908,44.892 114.552,45.42 C114.776,44.988 114.989333,44.5453333 115.199111,44.1062222 L115.899389,42.6388333 C116.541333,41.3013333 117.168,40.068 117.828,39.168 C122.484,39.828 123.564,42.168 123.564,44.184 C123.564,48.156 119.232,50.82 113.616,50.82 C112.428,50.82 111.6,50.652 110.964,50.424 C112.26,49.476 113.34,47.772 114.312,45.9 C115.666667,45.4093333 116.888593,44.7764444 118.070486,44.0434733 L118.070486,44.0434733 Z M115.585298,42.4532322 L115.176,43.308 C114.804,44.076 114.444,44.856 114.048,45.6 C112.092,46.296 109.824,46.68 106.992,46.68 C104.712,46.68 103.572,45.528 103.572,44.136 C103.572,41.496 108.108,38.988 115.008,38.988 C115.896,38.988 116.7,39.036 117.42,39.12 C116.791636,40.0134545 116.195405,41.1880661 115.585298,42.4532322 L115.585298,42.4532322 Z M109.596,50.16 C109.776,50.268 109.968,50.376 110.196,50.484 C109.752,50.712 109.272,50.844 108.768,50.844 C107.712,50.844 107.412,50.472 107.412,50.208 C107.412,49.848 107.64,49.668 108.192,49.668 C108.72,49.668 109.128,49.908 109.596,50.16 Z M134.905677,47.8237633 L134.892,47.832 C132.972,49.164 131.496,49.308 130.452,49.308 C129.108,49.308 128.7,48.936 128.676,48.468 C128.676,47.94 128.988,47.52 129.312,47.076 C129.324,46.788 129.276,46.704 129.072,46.752 C128.676,46.848 128.388,46.896 128.22,46.896 C127.98,46.896 127.656,46.872 127.44,46.788 C127.632,46.632 127.764,46.488 127.764,46.224 C127.764,46.02 127.656,45.876 127.38,45.876 C127.068,45.876 126.84,46.212 126.84,46.536 C126.84,46.62 126.852,46.692 126.888,46.752 L126.521063,47.0083125 C126.111,47.289 125.598,47.622 125.22,47.82 C125.124,48.312 125.4,48.132 125.4,48.132 C125.94,47.832 126.708,47.328 127.14,47.028 C127.428,47.208 127.884,47.256 128.22,47.256 L128.454,47.247 C128.541,47.241 128.634,47.232 128.724,47.22 C128.484,47.592 128.316,48.024 128.316,48.48 C128.34,49.152 128.832,49.668 130.452,49.668 L130.750934,49.6630213 C131.825149,49.6259887 133.199478,49.3601739 135.084,48.144 C135.104308,47.748 134.952781,47.7987692 134.905677,47.8237633 L134.905677,47.8237633 Z M127.38,46.236 C127.392,46.236 127.404,46.248 127.404,46.26 C127.404,46.344 127.272,46.452 127.2,46.512 C127.2,46.368 127.26,46.236 127.38,46.236 Z M136.956,47.088 C136.584,48.036 135.732,49.008 135.144,49.008 C134.988,49.008 134.904,48.9 134.904,48.72 C134.904,47.916 136.404,46.488 137.328,46.488 C137.46,46.488 137.532,46.524 137.544,46.584 C137.58,46.824 137.868,46.596 137.904,46.512 C137.844,46.26 137.664,46.128 137.328,46.128 C136.404,46.128 134.544,47.772 134.544,48.72 C134.544,49.152 134.748,49.368 135.144,49.368 C135.708,49.368 136.452,48.708 136.944,47.916 C137.028,48.744 137.424,49.872 139.032,49.872 L139.297943,49.8662339 C140.385869,49.8202368 142.24368,49.47888 144.264,48.132 L144.258492,48.039984 C144.24564,47.91852 144.2028,47.7312 144.06,47.832 C142.044,49.26 140.016,49.512 139.032,49.512 C136.932,49.512 137.316,47.136 137.316,47.136 C137.34,46.836 136.956,47.088 136.956,47.088 Z M146.22,46.824 L146.225355,46.7482945 C146.227736,46.6320992 146.204727,46.4345455 146.004,46.548 L145.491563,46.9153125 C145.01625,47.25 144.627,47.502 144.096,47.808 L144.081881,47.8866266 C144.065653,48.0082314 144.063273,48.2192727 144.264,48.132 L144.83712,47.769312 C145.1064,47.5968 145.3584,47.4312 145.632,47.244 C145.464,47.7 145.416,48.096 145.416,48.408 C145.416,48.852 145.704,49.2 146.22,49.2 C146.892,49.2 148.068,48.456 148.8,47.652 C148.932,48.876 149.412,49.596 150.18,49.596 C150.78,49.596 151.788,48.936 152.496,48.192 C153.024,48.744 154.02,49.176 155.796,49.164 C157.788,49.152 158.868,48.612 159.6,48.132 C159.588,47.664 159.408,47.832 159.408,47.832 C158.688,48.336 157.704,48.792 155.796,48.804 C154.092,48.816 153.18,48.432 152.724,47.928 C153.048,47.532 153.276,47.112 153.276,46.788 C153.276,46.44 153.156,46.008 152.592,46.008 C152.148,46.008 151.944,46.416 151.944,46.848 C151.944,47.184 152.028,47.58 152.292,47.952 C151.668,48.624 150.732,49.236 150.18,49.236 C149.566105,49.236 149.199922,48.5467147 149.132468,47.3211926 L149.122689,47.0932544 C149.115479,47.0307692 149.068615,46.848 148.764,47.112 C148.152,47.964 146.868,48.84 146.22,48.84 C145.944,48.84 145.812,48.612 145.812,48.384 C145.812,48 145.932,47.4 146.22,46.824 Z M152.304,46.848 C152.304,46.584 152.388,46.368 152.592,46.368 C152.832,46.368 152.916,46.608 152.916,46.788 C152.916,47.04 152.76,47.352 152.52,47.664 C152.364,47.388 152.304,47.112 152.304,46.848 Z" id="LuckyDraw" fill="#696969" fill-rule="nonzero"></path>
            <g id="Group-3" transform="translate(177.000000, 5.000000)">
                <mask id="mask-2" fill="white">
                    <use xlink:href="#path-1"></use>
                </mask>
                <g id="Clip-2"></g>
                <path d="M9.78812224,19 C10.9811752,19 11.9486059,18.0347594 11.9486059,16.8429144 C11.9486059,16.7199198 11.9378938,16.5989305 11.9178088,16.4812834 C12.1025914,16.5213904 12.294069,16.5427807 12.4909026,16.5427807 C13.9838926,16.5427807 15.193683,15.3355615 15.193683,13.8449198 C15.193683,13.3509358 15.0597826,12.8877005 14.8274653,12.4899733 C16.0888075,12.078877 17,10.8963904 17,9.5 C17,8.10360963 16.0888075,6.92112299 14.8274653,6.50935829 C15.0597826,6.11163102 15.193683,5.64906417 15.193683,5.15508021 C15.193683,3.66510695 13.9838926,2.4565508 12.4909026,2.4565508 C12.294069,2.4565508 12.1025914,2.47794118 11.9178088,2.51804813 C11.9378938,2.40040107 11.9486059,2.27941176 11.9486059,2.15708556 C11.9486059,0.965240642 10.9811752,0 9.78812224,0 C9.00279616,0 8.31521739,0.419117647 7.93694865,1.04612299 C6.8008034,2.50601604 2.6117281,7.77606952 0,9.5 C2.6117281,11.2239305 6.8008034,16.493984 7.93694865,17.9545455 C8.31521739,18.5808824 9.00212665,19 9.78812224,19" id="Fill-1" fill="#C29898" mask="url(#mask-2)"></path>
            </g>
            <g id="Group-3-Copy" transform="translate(8.500000, 13.500000) rotate(-180.000000) translate(-8.500000, -13.500000) translate(0.000000, 4.000000)">
                <mask id="mask-4" fill="white">
                    <use xlink:href="#path-3"></use>
                </mask>
                <g id="Clip-2"></g>
                <path d="M9.78812224,19 C10.9811752,19 11.9486059,18.0347594 11.9486059,16.8429144 C11.9486059,16.7199198 11.9378938,16.5989305 11.9178088,16.4812834 C12.1025914,16.5213904 12.294069,16.5427807 12.4909026,16.5427807 C13.9838926,16.5427807 15.193683,15.3355615 15.193683,13.8449198 C15.193683,13.3509358 15.0597826,12.8877005 14.8274653,12.4899733 C16.0888075,12.078877 17,10.8963904 17,9.5 C17,8.10360963 16.0888075,6.92112299 14.8274653,6.50935829 C15.0597826,6.11163102 15.193683,5.64906417 15.193683,5.15508021 C15.193683,3.66510695 13.9838926,2.4565508 12.4909026,2.4565508 C12.294069,2.4565508 12.1025914,2.47794118 11.9178088,2.51804813 C11.9378938,2.40040107 11.9486059,2.27941176 11.9486059,2.15708556 C11.9486059,0.965240642 10.9811752,0 9.78812224,0 C9.00279616,0 8.31521739,0.419117647 7.93694865,1.04612299 C6.8008034,2.50601604 2.6117281,7.77606952 0,9.5 C2.6117281,11.2239305 6.8008034,16.493984 7.93694865,17.9545455 C8.31521739,18.5808824 9.00212665,19 9.78812224,19" id="Fill-1" fill="#C29898" mask="url(#mask-4)"></path>
            </g>
        </g>
    </g>
</svg>