<?xml version="1.0" encoding="UTF-8"?>
<svg width="278px" height="52px" viewBox="0 0 278 52" version="1.1" xmlns="http://www.w3.org/2000/svg" xmlns:xlink="http://www.w3.org/1999/xlink">
    <!-- Generator: Sketch 58 (84663) - https://sketch.com -->
    <title>Group 2 Copy 3</title>
    <desc>Created with Sketch.</desc>
    <defs>
        <polygon id="path-1" points="0 0 17 0 17 19 0 19"></polygon>
        <polygon id="path-3" points="0 0 17 0 17 19 0 19"></polygon>
    </defs>
    <g id="Page-1" stroke="none" stroke-width="1" fill="none" fill-rule="evenodd">
        <g id="Group-2-Copy-3">
            <path d="M68.84,24 L72.2,24 L64.864,3.448 L61.588,3.448 L54.336,24 L57.08,24 L59.152,17.7 L66.796,17.7 L68.84,24 Z M63.94,9.132 L66.236,16.02 L59.712,16.02 L61.672,9.496 C62.092,8.348 62.484,7.172 62.82,6.024 L62.988,6.024 C63.24,7.06 63.576,8.096 63.94,9.132 Z M89.1085,9.608 C89.1085,7.984 88.6045,6.78 87.7645,5.772 C86.5885,4.344 84.4045,3.448 81.4085,3.42 C79.3085,3.392 77.2925,3.476 75.3885,3.644 L75.3885,24.084 L78.3005,24.084 L78.3005,16.104 C79.1965,16.244 80.1485,16.328 81.2685,16.328 C83.4525,16.328 85.2725,15.824 86.5605,14.9 C88.0165,13.836 89.1085,12.044 89.1085,9.608 Z M86.0565,9.608 C86.0565,12.828 84.1245,14.284 81.0165,14.424 C80.1205,14.452 79.1685,14.396 78.3005,14.256 L78.3005,5.436 C79.1685,5.324 79.8965,5.296 80.7645,5.296 C83.5365,5.296 86.0565,6.416 86.0565,9.608 Z M107.081,9.608 C107.081,7.984 106.577,6.78 105.737,5.772 C104.561,4.344 102.377,3.448 99.381,3.42 C97.281,3.392 95.265,3.476 93.361,3.644 L93.361,24.084 L96.273,24.084 L96.273,16.104 C97.169,16.244 98.121,16.328 99.241,16.328 C101.425,16.328 103.245,15.824 104.533,14.9 C105.989,13.836 107.081,12.044 107.081,9.608 Z M104.029,9.608 C104.029,12.828 102.097,14.284 98.989,14.424 C98.093,14.452 97.141,14.396 96.273,14.256 L96.273,5.436 C97.141,5.324 97.869,5.296 98.737,5.296 C101.509,5.296 104.029,6.416 104.029,9.608 Z M118.5855,0.984 L115.8415,0.34 C114.6095,7.648 112.3415,12.24 110.4375,14.844 L111.1655,15.572 C112.1175,14.704 113.1815,13.472 114.1895,11.904 L114.1895,26.296 L116.5975,26.296 L116.5695,7.368 C117.3535,5.492 118.0535,3.364 118.5855,0.984 Z M125.4735,21.564 C126.3975,20.052 127.1255,18.064 127.4615,15.376 L133.5655,15.376 L133.5655,8.068 L127.6855,8.068 L127.6855,5.548 L135.1895,5.548 L135.1895,4.288 L127.6855,4.288 L127.6855,0.62 L125.1095,0.62 L125.1095,4.288 L118.1935,4.288 L118.1935,5.548 L125.1095,5.548 L125.1095,8.068 L119.1175,8.068 L119.1175,15.376 L124.8855,15.376 C124.6335,17.532 124.1855,19.212 123.5695,20.528 C122.9255,20.052 122.2815,19.52 121.6935,18.876 C121.0775,18.204 120.2655,17.168 119.5935,16.076 L118.8095,16.552 C119.3975,18.092 120.2095,19.38 121.1335,20.444 C121.6375,21.032 122.1695,21.564 122.7015,22.04 C121.2455,24.056 119.2295,24.868 117.1015,25.54 L117.4655,26.492 L117.966762,26.3862111 C119.927036,25.9589248 122.30726,25.25104 124.2135,23.216 C127.8535,25.652 131.8015,25.876 134.7975,25.848 L135.8615,22.852 L134.719847,22.8973197 C131.854274,22.9891776 128.47958,22.89456 125.4735,21.564 Z M121.5815,14.116 L121.5815,9.328 L125.1095,9.328 L125.1095,11.148 C125.1095,12.212 125.0815,13.22 124.9975,14.116 L121.5815,14.116 Z M131.1015,9.328 L131.1015,14.116 L127.6015,14.116 C127.6575,13.304 127.6855,12.464 127.6855,11.54 L127.6855,9.328 L131.1015,9.328 Z M161.87,2.188 L142.158,2.188 L142.156405,14.287548 C142.139808,20.2989738 141.954571,22.8897143 139.918,25.932 L140.674,26.576 L140.933587,26.3301675 C142.812268,24.5165444 144.136261,22.4088696 144.538,16.356 L150.698,16.356 L150.698,25.568 L153.162,25.568 L153.162,16.356 L159.35,16.356 L159.378,22.488 L159.3726,22.700003 C159.298889,24.0600635 158.436667,24.3546667 154.73,23.608 L154.45,24.588 C159.77,27.416 161.87,26.072 161.87,23.132 L161.87,2.188 Z M150.698,8.516 L144.678,8.516 L144.678,3.448 L150.698,3.448 L150.698,8.516 Z M159.35,8.516 L153.162,8.516 L153.162,3.448 L159.35,3.448 L159.35,8.516 Z M150.698,15.096 L144.622,15.096 L144.6605,13.5875 C144.671,13.059 144.678,12.506 144.678,11.932 L144.678,9.776 L150.698,9.776 L150.698,15.096 Z M159.35,15.096 L153.162,15.096 L153.162,9.776 L159.35,9.776 L159.35,15.096 Z M187.7385,19.156 C189.6425,16.02 190.5105,12.184 190.7065,7.816 L192.3025,7.816 L192.3025,6.556 L185.3305,6.556 C185.8905,4.736 186.3665,2.804 186.7305,0.9 L184.0145,0.34 C183.5665,5.632 182.3065,11.204 180.5705,14.34 L181.4105,14.872 C182.3065,13.696 183.1185,12.156 183.8745,10.448 C184.0705,14.144 184.6025,16.916 185.3865,19.1 C183.7345,21.788 181.2705,23.888 177.7705,25.428 L178.1905,26.352 C181.7465,25.176 184.3785,23.412 186.2825,21.172 C187.4865,23.552 189.0825,25.148 190.8185,26.632 L192.8065,23.832 C190.6785,22.516 188.9985,21.004 187.7385,19.156 Z M181.9145,17.7 L181.6625,16.776 C180.2905,17.168 178.4705,17.56 176.5665,17.924 L176.5665,16.496 C178.0225,15.6 179.6465,14.312 180.4865,13.304 L178.1905,11.764 L177.6305,12.156 L175.6425,12.156 C176.4545,11.316 177.2665,10.448 177.9945,9.496 L181.9705,9.496 L181.9705,8.236 L178.9465,8.236 C180.3185,6.332 181.4945,4.232 182.3345,1.992 L179.9265,1.04 C179.5345,2.244 179.0585,3.42 178.5545,4.484 L178.5545,3.924 L175.3065,3.924 L175.3065,0.536 L172.8985,0.536 L172.8985,3.924 L168.8945,3.924 L168.8945,5.184 L172.8985,5.184 L172.8985,8.236 L167.8865,8.236 L167.8865,9.496 L175.5585,9.496 C174.8585,10.448 174.1025,11.344 173.3465,12.156 L169.3705,12.156 L169.3705,13.416 L172.1145,13.416 C170.6025,14.9 169.0345,16.104 167.6065,17.084 L168.1665,17.896 C170.1545,16.804 172.2825,15.292 174.3545,13.416 L177.4905,13.416 C177.0425,14.284 176.4545,15.208 175.7545,15.992 L174.1865,15.684 L174.1865,18.316 L173.068963,18.4789444 C171.214611,18.7414444 169.421833,18.9553333 167.9985,19.072 L168.6425,21.536 C170.0705,21.312 172.0865,20.864 174.1865,20.304 L174.1865,22.964 C174.1865,24.336 173.5425,24.616 170.2665,23.552 L169.8465,24.476 C173.6545,27.612 176.5665,26.24 176.5665,23.916 L176.5665,19.632 C178.6105,19.016 180.5705,18.344 181.9145,17.7 Z M175.3065,8.236 L175.3065,5.184 L178.2185,5.184 C177.6865,6.276 177.0705,7.284 176.4545,8.236 L175.3065,8.236 Z M184.7145,8.32 C184.7985,8.152 184.8545,7.984 184.9105,7.816 L188.1865,7.816 C188.1025,11.288 187.5705,14.34 186.5065,16.944 C185.4705,14.62 184.8825,11.82 184.7145,8.32 Z M199.607,12.66 L218.227,12.66 L218.227,16.3 L220.691,16.3 L220.691,11.4 L218.143,11.4 C218.395,8.124 218.563,4.736 218.759,1.488 L216.715,0.984 L216.183,1.516 L212.319,1.516 L212.319,2.776 L216.407,2.776 L216.323,4.932 L212.515,4.932 L212.515,6.192 L216.295,6.192 C216.267,6.864 216.211,7.564 216.183,8.236 L212.319,8.236 L212.319,9.496 L216.127,9.496 C216.099,10.14 216.071,10.756 216.015,11.4 L211.003,11.4 L212.291,10 C211.703,9.468 211.115,9.02 210.499,8.6 C211.087,8.04 211.591,7.508 212.011,7.004 L210.275,5.772 C209.883,6.444 209.463,7.088 208.987,7.676 C208.259,7.284 207.503,6.948 206.691,6.584 L206.271,7.368 C206.915,7.816 207.503,8.264 208.063,8.74 C207.363,9.496 206.523,10.14 205.571,10.672 L205.907,11.4 L201.763,11.4 C201.763,10.728 201.735,10.084 201.707,9.412 L205.487,9.412 L205.487,8.152 L201.679,8.152 C201.651,7.424 201.651,6.668 201.623,5.94 L205.291,5.94 L205.291,4.68 L201.567,4.68 C201.539,4.176 201.511,3.672 201.511,3.168 C203.079,2.916 204.871,2.216 205.963,1.656 L204.507,0.088 C203.387,1.152 202.519,1.796 201.455,2.272 L199.243,1.796 C199.411,4.988 199.523,8.208 199.607,11.4 L197.143,11.4 L197.143,16.384 L199.607,16.384 L199.607,12.66 Z M205.795,5.436 L206.299,6.136 C207.251,5.632 208.259,4.932 209.183,4.148 C209.743,4.736 210.219,5.352 210.583,5.828 L212.067,4.316 C211.535,3.84 211.003,3.392 210.415,2.944 C210.975,2.356 211.451,1.768 211.815,1.208 L209.939,0.172 C209.659,0.732 209.323,1.32 208.959,1.908 C208.203,1.432 207.475,0.984 206.775,0.648 L206.355,1.46 C206.915,1.908 207.531,2.468 208.119,3.056 C207.447,3.924 206.663,4.736 205.795,5.436 Z M209.183,9.748 C209.687,10.252 210.191,10.812 210.667,11.4 L206.355,11.4 C207.363,11.008 208.315,10.42 209.183,9.748 Z M220.971,19.128 L220.971,20.388 L210.807,20.388 L210.807,23.608 C210.807,26.128 208.595,27.584 203.639,24.672 L203.891,23.72 L204.410563,23.8316755 C207.980203,24.5762331 208.287,24.1225778 208.287,22.544 L208.287,20.388 L196.919,20.388 L196.919,19.128 L208.287,19.128 L208.287,17.112 L210.163,17.392 C211.199,16.804 212.235,15.992 213.047,15.292 L201.203,15.292 L201.203,14.032 L213.691,14.032 L214.447,13.696 L216.715,15.516 C214.923,16.776 212.515,17.756 210.807,18.26 L210.807,19.128 L220.971,19.128 Z" id="APP使用教學" fill="#696969" fill-rule="nonzero"></path>
            <path d="M37.682802,45.4222827 C34.5664653,44.3692447 32.0783998,41.06 28.92,41.06 C27.144,41.06 25.74,41.984 25.74,43.88 C25.74,45.752 27.852,47.444 30.768,47.444 C33.7036275,47.444 36.1178075,46.7965653 37.717601,45.8078646 C38.2983377,45.9916273 38.8998306,46.1 39.528,46.1 C42.348,46.1 44.748,45.5 46.8,44.132 C46.788,43.676 46.62,43.832 46.608,43.832 C44.616,45.212 42.276,45.74 39.528,45.74 C39.0370583,45.74 38.5643327,45.6710263 38.1059156,45.5498257 C39.2258871,44.7487389 39.852,43.7620546 39.852,42.728 C39.852,39.296 34.116,40.136 34.116,37.496 C34.116,37.3055399 34.150085,37.1251048 34.2130094,36.9548695 C34.9581178,37.1917126 35.8225161,37.34 36.792,37.34 L37.1352996,37.3374578 C38.7674133,37.31232 40.764,37.0816 40.764,35.816 C40.764,34.964 39.984,34.556 38.472,34.556 C36.9687756,34.556 34.7906444,35.2309069 34.030233,36.5161334 C32.7511455,36.0512171 31.8995517,35.3192366 31.5707595,34.7117264 L31.512,34.592 C31.512,34.592 31.344,34.316 31.176,34.736 C31.4830635,35.426893 32.4236247,36.2994868 33.8751635,36.8385693 C33.7980195,37.044385 33.756,37.2635995 33.756,37.496 C33.756,40.424 39.492,39.668 39.492,42.728 C39.492,43.6588612 38.9200356,44.5485879 37.8940235,45.2784723 L37.682802,45.4222827 L37.682802,45.4222827 Z M34.3737846,36.6311746 C35.0806095,35.5091249 37.0886839,34.916 38.472,34.916 C39.744,34.916 40.404,35.204 40.404,35.816 C40.404,36.86 38.328,36.98 36.792,36.98 C35.9965115,36.98 35.2765762,36.8772125 34.6409892,36.7077689 L34.3737846,36.6311746 L34.3737846,36.6311746 Z M37.2921576,45.6588448 C35.756672,46.5232328 33.4968088,47.084 30.768,47.084 C28.068,47.084 26.1,45.56 26.1,43.88 C26.1,42.224 27.336,41.42 28.92,41.42 C31.658039,41.42 34.0736854,44.2775702 36.968499,45.5268781 L37.2921576,45.6588448 L37.2921576,45.6588448 Z M48.756,42.824 L48.7613554,42.7482945 C48.7637355,42.6320992 48.7407273,42.4345455 48.54,42.548 L48.0275625,42.9153125 C47.55225,43.25 47.163,43.502 46.632,43.808 L46.6178813,43.8866266 C46.6016529,44.0082314 46.5992727,44.2192727 46.8,44.132 L47.37312,43.769312 C47.6424,43.5968 47.8944,43.4312 48.168,43.244 C48,43.7 47.952,44.096 47.952,44.408 C47.952,44.852 48.24,45.2 48.756,45.2 C49.428,45.2 50.604,44.456 51.336,43.652 C51.468,44.876 51.948,45.596 52.716,45.596 C53.316,45.596 54.324,44.936 55.032,44.192 C55.56,44.744 56.556,45.176 58.332,45.164 C60.324,45.152 61.404,44.612 62.136,44.132 C62.124,43.664 61.944,43.832 61.944,43.832 C61.224,44.336 60.24,44.792 58.332,44.804 C56.628,44.816 55.716,44.432 55.26,43.928 C55.584,43.532 55.812,43.112 55.812,42.788 C55.812,42.44 55.692,42.008 55.128,42.008 C54.684,42.008 54.48,42.416 54.48,42.848 C54.48,43.184 54.564,43.58 54.828,43.952 C54.204,44.624 53.268,45.236 52.716,45.236 C52.1021053,45.236 51.7359224,44.5467147 51.6684677,43.3211926 L51.6586891,43.0932544 C51.6514793,43.0307692 51.6046154,42.848 51.3,43.112 C50.688,43.964 49.404,44.84 48.756,44.84 C48.48,44.84 48.348,44.612 48.348,44.384 C48.348,44 48.468,43.4 48.756,42.824 Z M54.84,42.848 C54.84,42.584 54.924,42.368 55.128,42.368 C55.368,42.368 55.452,42.608 55.452,42.788 C55.452,43.04 55.296,43.352 55.056,43.664 C54.9,43.388 54.84,43.112 54.84,42.848 Z M69.924,43.82 C68.436,44.684 65.808,45.764 63.096,45.764 C62.184,45.764 61.86,45.476 61.848,45.056 C61.848,44.732 61.956,44.42 62.124,44.144 C62.484,44.264 62.868,44.324 63.228,44.324 C63.732,44.324 64.644,44.024 64.644,43.292 C64.644,42.98 64.416,42.704 63.924,42.704 C62.784,42.704 61.488,43.832 61.488,45.056 C61.5,45.692 61.932,46.124 63.096,46.124 C65.892,46.124 68.58,45.02 70.092,44.144 C70.128,43.724 69.924,43.82 69.924,43.82 Z M63.924,43.064 C64.176,43.064 64.284,43.172 64.284,43.292 C64.284,43.76 63.612,43.964 63.228,43.964 C62.94,43.964 62.652,43.916 62.364,43.832 C62.772,43.376 63.372,43.064 63.924,43.064 Z M77.892,43.82 C76.404,44.684 73.776,45.764 71.064,45.764 C70.152,45.764 69.828,45.476 69.816,45.056 C69.816,44.732 69.924,44.42 70.092,44.144 C70.452,44.264 70.836,44.324 71.196,44.324 C71.7,44.324 72.612,44.024 72.612,43.292 C72.612,42.98 72.384,42.704 71.892,42.704 C70.752,42.704 69.456,43.832 69.456,45.056 C69.468,45.692 69.9,46.124 71.064,46.124 C73.86,46.124 76.548,45.02 78.06,44.144 C78.096,43.724 77.892,43.82 77.892,43.82 Z M71.892,43.064 C72.144,43.064 72.252,43.172 72.252,43.292 C72.252,43.76 71.58,43.964 71.196,43.964 C70.908,43.964 70.62,43.916 70.332,43.832 C70.74,43.376 71.34,43.064 71.892,43.064 Z M89.364,40.232 L89.4047028,40.2187274 C89.4807337,40.1872663 89.6113846,40.0935385 89.316,39.872 C86.82,40.268 84.396,40.52 81.996,40.652 C82.196,40.196 82.396,39.756 82.5995556,39.3248889 L82.908,38.684 C82.908,38.684 83.028,38.384 82.596,38.516 C82.236,39.26 81.876,40.004 81.408,40.676 C78.936,40.796 76.512,40.808 74.076,40.736 C73.716,41.084 74.076,41.096 74.076,41.096 C76.416,41.168 78.756,41.168 81.132,41.06 C80.316,42.104 79.272,42.98 77.892,43.82 C77.784,44.312 78.084,44.132 78.084,44.132 C79.38,43.316 80.412,42.488 81.228,41.516 C80.844,42.488 80.544,43.52 80.544,44.36 C80.544,45.704 81.492,46.148 82.776,46.148 C84.732,46.148 86.952,45.5 89.112,44.144 C89.124,43.988 89.064,43.736 88.92,43.832 C86.928,45.176 84.672,45.788 82.776,45.788 L82.5214305,45.7820586 C81.6775537,45.7404959 80.904,45.4618182 80.904,44.36 C80.904,43.4 81.336,42.176 81.828,41.024 C84.3,40.892 86.796,40.64 89.364,40.232 Z M96.324,44.144 L96.3279184,44.0656168 C96.3287603,43.9446612 96.3065455,43.736 96.132,43.832 C94.5,44.96 92.46,45.392 90.852,45.392 C89.676,45.392 89.1,45.044 89.124,44.312 C89.124,44.168 89.148,44.036 89.184,43.904 C89.28,43.712 89.028,43.688 88.824,43.892 C88.788,44.048 88.764,44.156 88.764,44.312 C88.74,45.284 89.436,45.752 90.852,45.752 C92.52,45.752 94.632,45.224 96.324,44.144 Z M89.028,41.948 C89.628,41.948 89.928,41.396 89.244,41.396 C89.196,41.588 88.68,41.924 89.028,41.948 Z M109.36812,44.132 L109.364854,44.039984 C109.354739,43.91852 109.3152,43.7312 109.164,43.832 C107.232,45.248 104.364,45.824 102.804,45.824 C100.692,45.824 100.944,44.744 100.956,43.916 L100.955248,43.6882662 C100.94836,43.1337578 100.880471,42.704 100.224,42.704 C99.6752,42.704 98.656,43.36256 97.9176462,43.9967289 L97.344142,44.5057478 C96.8861538,44.9044734 96.4707692,45.224 96.24,45.224 C96.156,45.224 96.132,45.14 96.132,45.032 C96.132,44.684 96.36,44.192 96.444,44.012 C96.336,43.616 96.12,43.844 96.12,43.844 C96.012,44.048 95.772,44.636 95.772,45.032 C95.772,45.356 95.892,45.584 96.24,45.584 C96.5815385,45.584 97.0366864,45.2431716 97.5398999,44.8073045 L98.004,44.396 C98.724,43.748 99.744,43.064 100.224,43.064 C100.608,43.064 100.596,43.448 100.596,43.916 L100.583468,44.4773403 C100.582413,45.3324959 100.781455,46.184 102.804,46.184 C104.412,46.184 107.16,45.632 109.36812,44.132 Z M118.404,43.844 C116.928,44.84 114.108,46.016 111.792,47.228 C112.404,45.824 112.908,44.312 113.196,43.22 C113.244,42.956 112.836,43.124 112.836,43.124 L112.6365,43.3655 C112.551,43.463 112.446,43.574 112.32,43.688 C112.344,43.58 112.356,43.46 112.356,43.34 C112.356,42.656 112.044,42.308 111.42,42.308 C110.592,42.308 109.62,43.316 109.62,44.024 C109.62,44.528 109.92,44.804 110.412,44.804 C110.82,44.804 111.168,44.732 111.48,44.624 C111.048,45.092 110.376,45.368 109.716,45.368 C109.512,45.368 109.188,45.26 109.188,44.84 C109.188,44.636 109.284,44.276 109.428,44.06 L109.41023,43.9877025 C109.377124,43.8782149 109.293818,43.6989091 109.128,43.856 C108.936,44.144 108.828,44.6 108.828,44.84 C108.828,45.548 109.368,45.728 109.716,45.728 C110.724,45.728 111.72,45.188 112.14,44.288 C112.32,44.168 112.476,44.036 112.608,43.916 C112.284,44.996 111.828,46.304 111.312,47.492 C109.5,48.488 108.108,49.508 108.108,50.492 C108.108,50.9 108.36,51.224 108.84,51.224 C109.692,51.224 110.712,49.628 111.576,47.744 C113.94,46.46 117.06,45.152 118.608,44.144 C118.632,43.64 118.404,43.844 118.404,43.844 Z M110.412,44.444 C110.136,44.444 109.98,44.264 109.98,44.024 C109.98,43.484 110.76,42.668 111.42,42.668 C111.804,42.668 111.996,42.896 111.996,43.34 C111.996,43.604 111.948,43.832 111.852,44.048 C111.48,44.276 111,44.444 110.412,44.444 Z M108.84,50.864 C108.6,50.864 108.468,50.708 108.468,50.492 C108.468,49.748 109.56,48.896 111.06,48.032 L110.858452,48.4522795 C110.180826,49.8226777 109.450909,50.864 108.84,50.864 Z M129.012,35.288 L128.994563,35.2499375 C128.958,35.1875 128.859,35.093 128.652,35.336 C127.464,35.972 126,36.404 124.524,36.596 C124.188,36.932 124.572,36.956 124.572,36.956 C126.024,36.776 127.488,36.344 128.7,35.708 L128.786022,36.2667156 C129.259118,39.1136899 130.57471,44.0027097 133.224,47.348 C133.428,47.552 133.596,47.3 133.596,47.3 C134.652,46.004 135.624,44.456 136.296,43.1 C136.704,44.444 137.388,45.98 138.408,47.3 C138.72,47.576 138.816,47.288 138.816,47.288 L139.874507,44.9838544 C142.20956,39.9731938 145.315862,34.016 148.44,34.016 C149.712,34.016 150.192,34.784 150.372,35.528 C150.792,35.804 150.732,35.456 150.732,35.456 C150.516,34.592 149.904,33.704 148.44,33.656 C144.588,33.656 140.988,41.648 138.576,46.94 C137.544,45.56 136.896,43.964 136.524,42.62 C136.968,41.624 137.244,40.76 137.244,40.208 C137.244,39.584 136.944,39.14 136.548,39.14 C136.176,39.14 135.78,39.548 135.78,40.28 C135.78,40.808 135.888,41.624 136.14,42.572 C135.492,43.964 134.484,45.608 133.368,47 C130.608,43.304 129.312,37.76 129.012,35.288 Z M136.14,40.28 C136.14,39.764 136.344,39.5 136.548,39.5 C136.728,39.5 136.884,39.776 136.884,40.208 C136.884,40.64 136.692,41.288 136.38,42.044 C136.212,41.324 136.14,40.7 136.14,40.28 Z M153.576,43.82 C152.088,44.684 149.46,45.764 146.748,45.764 C145.836,45.764 145.512,45.476 145.5,45.056 C145.5,44.732 145.608,44.42 145.776,44.144 C146.136,44.264 146.52,44.324 146.88,44.324 C147.384,44.324 148.296,44.024 148.296,43.292 C148.296,42.98 148.068,42.704 147.576,42.704 C146.436,42.704 145.14,43.832 145.14,45.056 C145.152,45.692 145.584,46.124 146.748,46.124 C149.544,46.124 152.232,45.02 153.744,44.144 C153.78,43.724 153.576,43.82 153.576,43.82 Z M147.576,43.064 C147.828,43.064 147.936,43.172 147.936,43.292 C147.936,43.76 147.264,43.964 146.88,43.964 C146.592,43.964 146.304,43.916 146.016,43.832 C146.424,43.376 147.024,43.064 147.576,43.064 Z M163.968,44.144 C164.028,43.688 163.776,43.832 163.776,43.832 C162.072,44.912 160.452,45.188 159.468,45.188 C158.448,45.188 158.016,44.636 158.016,43.652 C158.016,42.452 158.748,40.028 159.24,39.044 L159.243188,39.001625 C159.2415,38.9285 159.201,38.798 158.904,38.924 L158.638593,39.4967832 C157.197675,42.5206367 155.364706,45.008 153.84,45.008 C153.684,45.008 153.6,44.9 153.6,44.72 C153.6,43.916 154.704,42.836 155.556,42.836 C155.688,42.836 155.76,42.872 155.772,42.932 C155.796,43.16 156.06,43.04 156.132,42.86 C156.072,42.608 155.892,42.476 155.556,42.476 C154.56,42.476 153.24,43.772 153.24,44.72 C153.24,45.116 153.444,45.368 153.84,45.368 C155.28,45.368 156.696,43.784 158.028,41.456 C157.788,42.308 157.656,43.052 157.656,43.652 C157.656,44.876 158.184,45.548 159.468,45.548 C160.5,45.548 162.216,45.272 163.968,44.144 Z M174.204,44.144 C174.264,43.688 174.012,43.832 174.012,43.832 C172.308,44.912 170.688,45.188 169.704,45.188 C168.684,45.188 168.252,44.636 168.252,43.652 C168.252,42.452 168.984,40.028 169.476,39.044 L169.479187,39.001625 C169.4775,38.9285 169.437,38.798 169.14,38.924 L168.874593,39.4967832 C167.433675,42.5206367 165.600706,45.008 164.076,45.008 C163.92,45.008 163.836,44.9 163.836,44.72 C163.836,43.916 164.94,42.836 165.792,42.836 C165.924,42.836 165.996,42.872 166.008,42.932 C166.032,43.16 166.296,43.04 166.368,42.86 C166.308,42.608 166.128,42.476 165.792,42.476 C164.796,42.476 163.476,43.772 163.476,44.72 C163.476,45.116 163.68,45.368 164.076,45.368 C165.516,45.368 166.932,43.784 168.264,41.456 C168.024,42.308 167.892,43.052 167.892,43.652 C167.892,44.876 168.42,45.548 169.704,45.548 C170.736,45.548 172.452,45.272 174.204,44.144 Z M181.44,44.144 L181.443918,44.0656168 C181.44476,43.9446612 181.422545,43.736 181.248,43.832 C179.616,44.96 177.576,45.392 175.968,45.392 C174.792,45.392 174.216,45.044 174.24,44.312 C174.24,44.168 174.264,44.036 174.3,43.904 C174.396,43.712 174.144,43.688 173.94,43.892 C173.904,44.048 173.88,44.156 173.88,44.312 C173.856,45.284 174.552,45.752 175.968,45.752 C177.636,45.752 179.748,45.224 181.44,44.144 Z M174.144,41.948 C174.744,41.948 175.044,41.396 174.36,41.396 C174.312,41.588 173.796,41.924 174.144,41.948 Z M194.48412,44.132 L194.480854,44.039984 C194.470739,43.91852 194.4312,43.7312 194.28,43.832 C192.348,45.248 189.48,45.824 187.92,45.824 C185.808,45.824 186.06,44.744 186.072,43.916 L186.071248,43.6882662 C186.06436,43.1337578 185.996471,42.704 185.34,42.704 C184.7912,42.704 183.772,43.36256 183.033646,43.9967289 L182.460142,44.5057478 C182.002154,44.9044734 181.586769,45.224 181.356,45.224 C181.272,45.224 181.248,45.14 181.248,45.032 C181.248,44.684 181.476,44.192 181.56,44.012 C181.452,43.616 181.236,43.844 181.236,43.844 C181.128,44.048 180.888,44.636 180.888,45.032 C180.888,45.356 181.008,45.584 181.356,45.584 C181.697538,45.584 182.152686,45.2431716 182.6559,44.8073045 L183.12,44.396 C183.84,43.748 184.86,43.064 185.34,43.064 C185.724,43.064 185.712,43.448 185.712,43.916 L185.699468,44.4773403 C185.698413,45.3324959 185.897455,46.184 187.92,46.184 C189.528,46.184 192.276,45.632 194.48412,44.132 Z M203.570775,43.8126263 L203.52,43.844 C202.044,44.84 199.224,46.016 196.908,47.228 C197.52,45.824 198.024,44.312 198.312,43.22 C198.36,42.956 197.952,43.124 197.952,43.124 L197.7525,43.3655 C197.667,43.463 197.562,43.574 197.436,43.688 C197.46,43.58 197.472,43.46 197.472,43.34 C197.472,42.656 197.16,42.308 196.536,42.308 C195.708,42.308 194.736,43.316 194.736,44.024 C194.736,44.528 195.036,44.804 195.528,44.804 C195.936,44.804 196.284,44.732 196.596,44.624 C196.164,45.092 195.492,45.368 194.832,45.368 C194.628,45.368 194.304,45.26 194.304,44.84 C194.304,44.636 194.4,44.276 194.544,44.06 L194.52623,43.9877025 C194.493124,43.8782149 194.409818,43.6989091 194.244,43.856 C194.052,44.144 193.944,44.6 193.944,44.84 C193.944,45.548 194.484,45.728 194.832,45.728 C195.84,45.728 196.836,45.188 197.256,44.288 C197.436,44.168 197.592,44.036 197.724,43.916 C197.4,44.996 196.944,46.304 196.428,47.492 C194.616,48.488 193.224,49.508 193.224,50.492 C193.224,50.9 193.476,51.224 193.956,51.224 C194.808,51.224 195.828,49.628 196.692,47.744 C199.056,46.46 202.176,45.152 203.724,44.144 C203.740615,43.7950769 203.63645,43.7854911 203.570775,43.8126263 Z M195.528,44.444 C195.252,44.444 195.096,44.264 195.096,44.024 C195.096,43.484 195.876,42.668 196.536,42.668 C196.92,42.668 197.112,42.896 197.112,43.34 C197.112,43.604 197.064,43.832 196.968,44.048 C196.596,44.276 196.116,44.444 195.528,44.444 Z M193.956,50.864 C193.716,50.864 193.584,50.708 193.584,50.492 C193.584,49.748 194.676,48.896 196.176,48.032 L195.974452,48.4522795 C195.296826,49.8226777 194.566909,50.864 193.956,50.864 Z M212.46,42.86 L212.43573,42.7864493 C212.383636,42.6607603 212.265818,42.4956364 212.148,42.692 C211.872,43.232 211.716,43.808 211.716,44.372 C211.716,45.92 212.76,47.372 215.232,47.372 C216.264,47.372 217.68,47.24 219.264,46.892 C220.26,47.24 221.592,47.468 223.392,47.468 C225.444,47.468 227.256,47.348 228.84,47.144 C228.948,47.348 229.056,47.54 229.152,47.744 L229.152,47.768 C229.416,48.14 229.512,47.792 229.512,47.792 C229.524,47.54 229.548,47.288 229.572,47.048 C234.06,46.388 236.664,45.08 238.14,44.132 C238.14,43.64 237.912,43.844 237.912,43.844 C236.448,44.84 233.94,46.064 229.608,46.7 C230.004,42.776 231.036,39.968 232.392,36.608 C232.5,36.368 232.608,36.116 232.704,35.864 L232.692,35.852 C232.752,35.564 232.38,35.756 232.368,35.744 L232.155556,36.2595556 C232.121333,36.344 232.088,36.428 232.056,36.512 C230.652,39.728 228.492,41.996 226.152,43.592 C224.34,42.176 222.24,41.3 220.608,41.3 C218.244,41.3 216.828,42.332 216.828,43.928 C216.828,44.948 217.308,45.968 218.688,46.64 C217.332,46.916 216.132,47.012 215.232,47.012 C213.024,47.012 212.076,45.728 212.076,44.372 C212.076,43.856 212.208,43.328 212.46,42.86 Z M217.188,43.928 C217.188,42.548 218.46,41.66 220.608,41.66 C222.144,41.66 224.112,42.476 225.84,43.796 C223.656,45.212 221.328,46.052 219.288,46.508 C217.728,45.908 217.188,44.924 217.188,43.928 Z M223.392,47.108 C221.952,47.108 220.812,46.964 219.936,46.724 C221.904,46.22 224.076,45.38 226.128,44.024 C227.1,44.816 227.976,45.776 228.636,46.832 C227.112,47 225.372,47.108 223.392,47.108 Z M226.44,43.82 C228.12,42.668 229.704,41.156 230.988,39.212 C230.088,41.648 229.488,43.808 229.224,46.748 L229.044,46.784 C228.36,45.668 227.448,44.66 226.44,43.82 Z M239.028,43.436 L239.031187,43.3990625 C239.0295,43.3355 238.989,43.223 238.692,43.34 L238.257408,43.637216 C238.15392,43.70672 238.0512,43.772 237.96,43.82 C237.852,44.312 238.152,44.132 238.152,44.132 C238.26,44.072 238.404,43.976 238.536,43.88 L237.750005,46.7810068 C237.439934,47.9082314 237.109091,49.04 236.664,50.336 C236.808,50.684 236.976,50.48 237,50.456 L237.170851,50.0726122 C238.043633,48.1480816 240.557143,43.016 241.56,43.016 C242.4,43.016 241.956,45.872 244.26,45.872 C245.844,45.872 248.016,45.092 249.408,44.132 C249.396,43.664 249.204,43.832 249.204,43.832 C247.86,44.792 245.916,45.512 244.26,45.512 C242.184,45.512 242.796,42.656 241.56,42.656 C240.564,42.656 239.1,45.368 237.732,48.152 C238.188,46.58 238.56,45.104 239.028,43.436 Z M250.296,43.436 C249.828,45.104 249.456,46.58 249,48.152 L249.386817,47.3730737 C250.638387,44.8833359 251.925375,42.656 252.828,42.656 C254.064,42.656 253.452,45.512 255.528,45.512 C257.086588,45.512 258.900291,44.8742145 260.228776,43.9988227 L260.484279,43.8229986 C260.526817,43.7953609 260.665846,43.736 260.676,44.132 C259.284,45.092 257.112,45.872 255.528,45.872 C253.224,45.872 253.668,43.016 252.828,43.016 C251.748,43.016 248.916,48.968 248.268,50.456 L248.241638,50.4825424 C248.183702,50.5359339 248.049818,50.6207273 247.932,50.336 C248.748,47.96 249.18,46.136 249.804,43.88 C249.716,43.944 249.622667,44.008 249.538222,44.0613333 L249.401276,44.1416787 C249.337349,44.1714793 249.136615,44.2363077 249.228,43.82 C249.456,43.7 249.756,43.472 249.96,43.34 C250.356,43.184 250.296,43.436 250.296,43.436 Z" id="SweetingWeddingApp" fill="#696969" fill-rule="nonzero"></path>
            <g id="Group-3-Copy-2" transform="translate(261.000000, 5.000000)">
                <mask id="mask-2" fill="white">
                    <use xlink:href="#path-1"></use>
                </mask>
                <g id="Clip-2"></g>
                <path d="M9.78812224,19 C10.9811752,19 11.9486059,18.0347594 11.9486059,16.8429144 C11.9486059,16.7199198 11.9378938,16.5989305 11.9178088,16.4812834 C12.1025914,16.5213904 12.294069,16.5427807 12.4909026,16.5427807 C13.9838926,16.5427807 15.193683,15.3355615 15.193683,13.8449198 C15.193683,13.3509358 15.0597826,12.8877005 14.8274653,12.4899733 C16.0888075,12.078877 17,10.8963904 17,9.5 C17,8.10360963 16.0888075,6.92112299 14.8274653,6.50935829 C15.0597826,6.11163102 15.193683,5.64906417 15.193683,5.15508021 C15.193683,3.66510695 13.9838926,2.4565508 12.4909026,2.4565508 C12.294069,2.4565508 12.1025914,2.47794118 11.9178088,2.51804813 C11.9378938,2.40040107 11.9486059,2.27941176 11.9486059,2.15708556 C11.9486059,0.965240642 10.9811752,0 9.78812224,0 C9.00279616,0 8.31521739,0.419117647 7.93694865,1.04612299 C6.8008034,2.50601604 2.6117281,7.77606952 0,9.5 C2.6117281,11.2239305 6.8008034,16.493984 7.93694865,17.9545455 C8.31521739,18.5808824 9.00212665,19 9.78812224,19" id="Fill-1" fill="#C29898" mask="url(#mask-2)"></path>
            </g>
            <g id="Group-3-Copy-3" transform="translate(8.500000, 13.500000) rotate(-180.000000) translate(-8.500000, -13.500000) translate(0.000000, 4.000000)">
                <mask id="mask-4" fill="white">
                    <use xlink:href="#path-3"></use>
                </mask>
                <g id="Clip-2"></g>
                <path d="M9.78812224,19 C10.9811752,19 11.9486059,18.0347594 11.9486059,16.8429144 C11.9486059,16.7199198 11.9378938,16.5989305 11.9178088,16.4812834 C12.1025914,16.5213904 12.294069,16.5427807 12.4909026,16.5427807 C13.9838926,16.5427807 15.193683,15.3355615 15.193683,13.8449198 C15.193683,13.3509358 15.0597826,12.8877005 14.8274653,12.4899733 C16.0888075,12.078877 17,10.8963904 17,9.5 C17,8.10360963 16.0888075,6.92112299 14.8274653,6.50935829 C15.0597826,6.11163102 15.193683,5.64906417 15.193683,5.15508021 C15.193683,3.66510695 13.9838926,2.4565508 12.4909026,2.4565508 C12.294069,2.4565508 12.1025914,2.47794118 11.9178088,2.51804813 C11.9378938,2.40040107 11.9486059,2.27941176 11.9486059,2.15708556 C11.9486059,0.965240642 10.9811752,0 9.78812224,0 C9.00279616,0 8.31521739,0.419117647 7.93694865,1.04612299 C6.8008034,2.50601604 2.6117281,7.77606952 0,9.5 C2.6117281,11.2239305 6.8008034,16.493984 7.93694865,17.9545455 C8.31521739,18.5808824 9.00212665,19 9.78812224,19" id="Fill-1" fill="#C29898" mask="url(#mask-4)"></path>
            </g>
        </g>
    </g>
</svg>