<?xml version="1.0" encoding="UTF-8"?>
<svg width="236px" height="53px" viewBox="0 0 236 53" version="1.1" xmlns="http://www.w3.org/2000/svg" xmlns:xlink="http://www.w3.org/1999/xlink">
    <!-- Generator: Sketch 55.2 (78181) - https://sketchapp.com -->
    <title>Group 2 Copy 2</title>
    <desc>Created with Sketch.</desc>
    <defs>
        <polygon id="path-1" points="0 0 17 0 17 19 0 19"></polygon>
        <polygon id="path-3" points="0 0 17 0 17 19 0 19"></polygon>
    </defs>
    <g id="Page-1" stroke="none" stroke-width="1" fill="none" fill-rule="evenodd">
        <g id="Group-2-Copy-2" transform="translate(0.000000, -1.000000)">
            <path d="M43.564,12.96 C43.424,12.232 43.2,11.448 42.948,10.664 C40.876,12.12 37.964,13.492 35.192,14.556 L33.932,11.952 C34.66,11.84 35.444,11.7 36.256,11.504 L36.256,3.524 L38.524,4.056 C40.54,3.3 41.94,2.348 43.34,1.172 L45.468,3.216 C43.62,4.168 41.1,4.924 38.72,5.232 L38.72,10.86 C40.036,10.468 41.352,10.02 42.584,9.516 C42.248,8.536 41.884,7.584 41.52,6.688 L42.388,6.156 C43.872,7.724 45.216,9.908 46.028,11.84 L43.564,12.96 Z M46.112,3.076 L56.388,3.076 C56.276,8.172 56.052,10.272 55.716,11.868 C55.296,13.912 53.084,14.836 49.64,11.784 L50.06,10.86 C52.972,11.84 53.252,11.616 53.476,10.272 C53.672,9.096 53.896,7.248 53.868,4.336 L51.292,4.336 C50.788,9.488 48.8,12.876 44.432,14.668 L43.9,13.8 C47.372,11.7 48.464,9.124 48.744,4.336 L46.112,4.336 L46.112,3.076 Z M36.9,27.24 L36.9,14.892 L55.1,14.892 L55.1,27.212 L52.692,27.212 L52.692,25.7 L39.308,25.7 L39.308,27.24 L36.9,27.24 Z M39.308,16.152 L39.308,19.456 L44.824,19.456 L44.824,16.152 L39.308,16.152 Z M47.176,16.152 L47.176,19.456 L52.692,19.456 L52.692,16.152 L47.176,16.152 Z M44.824,20.716 L39.308,20.716 L39.308,24.44 L44.824,24.44 L44.824,20.716 Z M47.176,20.716 L47.176,24.44 L52.692,24.44 L52.692,20.716 L47.176,20.716 Z M87.0165,4.84 L75.2285,4.84 L75.2285,10.076 C78.9805,11.924 81.8925,13.772 84.6365,16.124 L82.4245,18.756 C80.2405,16.18 77.9445,13.772 75.2285,11.476 L75.2285,27.38 L72.5405,27.38 L72.5405,4.84 L62.9365,4.84 L62.9365,3.3 L87.0165,3.3 L87.0165,4.84 Z M99.165,1.788 C98.521,4.028 97.765,6.1 96.841,7.948 L96.841,27.408 L94.489,27.408 L94.489,11.812 C93.509,13.128 92.389,14.332 91.129,15.396 L90.457,14.64 C93.481,10.748 95.273,6.212 96.421,0.976 L99.165,1.788 Z M112.017,7.752 L108.181,7.752 L108.181,24.664 C108.181,27.268 105.577,28.808 100.649,25 L100.985,24.048 C105.241,25.448 105.717,25.056 105.717,23.6 L105.717,7.752 L102.049,7.752 C101.125,9.6 99.949,11.42 98.521,13.184 L97.653,12.596 C99.641,9.236 100.705,5.82 101.265,1.312 L104.121,1.928 C103.785,3.468 103.309,5.008 102.637,6.492 L112.073,6.492 L112.633,6.044 L115.405,7.64 C114.173,9.348 112.605,10.86 111.289,11.868 L110.477,11.196 C111.177,10.048 111.737,8.9 112.017,7.752 Z M101.293,12.96 L103.953,13.8 C102.945,16.992 101.181,20.828 98.549,23.824 L97.737,23.208 C99.417,20.24 100.649,16.712 101.293,12.96 Z M110.673,13.044 C112.717,15.648 114.761,19.204 116.021,22.228 L113.221,23.46 C112.353,20.156 111.009,16.292 109.833,13.576 L110.673,13.044 Z M127.5535,1.732 C126.9655,3.272 125.9015,5.26 125.0055,6.716 L130.0735,6.716 L130.0735,26.232 L127.6095,26.232 L127.6095,23.684 L122.7935,23.684 L122.7935,26.764 L120.3295,26.764 L120.3295,6.716 L123.6615,6.716 C124.0535,4.924 124.3895,2.544 124.5295,1.088 L127.5535,1.732 Z M135.1975,6.772 L143.2055,6.772 C143.1495,16.572 142.9815,21.276 142.5335,23.936 C141.9175,27.576 138.6415,28.612 133.3775,24.076 L133.8535,23.18 C138.3615,25 139.6215,25.14 139.9855,22.872 C140.2375,21.248 140.5735,17.524 140.6015,8.032 L134.7215,8.032 C133.8535,10.188 132.6775,12.456 131.0255,14.556 L130.2135,13.94 C132.2295,9.992 133.2095,4.84 133.6575,1.172 L136.5975,1.76 C136.3455,3.048 135.8975,4.812 135.1975,6.772 Z M127.6095,14.164 L127.6095,7.976 L122.7935,7.976 L122.7935,14.164 L127.6095,14.164 Z M138.9495,18.112 L136.4015,19.54 C135.4775,16.88 134.3855,14.528 133.2095,12.316 L134.0215,11.672 C135.8695,13.38 137.8855,15.928 138.9495,18.112 Z M122.7935,22.424 L127.6095,22.424 L127.6095,15.424 L122.7935,15.424 L122.7935,22.424 Z M157.426,18.616 C156.726,17.272 155.858,15.9 154.906,14.584 L154.906,27.324 L152.498,27.324 L152.498,16.152 C151.21,17.468 149.754,18.56 148.186,19.316 L147.71,18.448 C151.91,15.452 153.646,11.616 154.85,7.696 L148.494,7.696 L148.494,6.436 L152.89,6.436 C152.358,5.232 151.294,3.048 150.426,1.676 L151.098,1.088 C152.526,2.18 154.066,3.552 155.214,5.008 L153.282,6.436 L155.018,6.436 L155.494,6.016 L157.902,7.108 C157.202,9.18 156.278,11.14 155.102,12.932 C156.754,14.08 158.518,15.62 159.498,16.796 L157.426,18.616 Z M172.322,19.512 C173.946,26.232 173.05,26.708 169.41,26.708 C165.658,26.708 165.21,26.456 165.21,24.188 L165.21,13.576 L163.67,13.576 C163.502,22.172 160.478,25.532 155.97,27.492 L155.494,26.624 C159.554,24.16 161.066,20.968 161.206,13.576 L158.434,13.576 L158.434,3.328 L170.39,3.328 L170.39,13.576 L167.618,13.576 L167.618,23.432 C167.618,24.272 167.702,24.636 169.466,24.608 C171.146,24.58 171.342,24.272 171.314,19.512 L172.322,19.512 Z M160.786,4.588 L160.786,12.316 L168.038,12.316 L168.038,4.588 L160.786,4.588 Z M183.4625,5.232 L181.2225,6.744 C180.5225,4.952 179.6825,3.356 178.7305,1.676 L179.5705,1.088 C181.1105,2.348 182.3985,3.72 183.4625,5.232 Z M200.8505,3.356 L200.8505,4.616 L185.9825,4.616 L185.9825,3.356 L200.8505,3.356 Z M186.4025,15.284 L200.8785,15.284 L200.8785,27.296 L198.4145,27.296 L198.4145,25.728 L188.8665,25.728 L188.8665,27.38 L186.4025,27.38 L186.4025,16.796 L184.8905,18.084 C184.3305,17.02 183.7705,16.012 183.0985,14.948 L183.0985,27.436 L180.6905,27.436 L180.6905,15.844 C179.5985,16.88 178.3385,17.888 176.8265,18.924 L176.2665,18.056 C180.0185,14.724 181.8385,11.588 183.1545,8.256 L177.0225,8.256 L177.0225,6.996 L183.3505,6.996 L183.8265,6.632 L186.0385,7.808 C185.1705,9.852 184.2465,11.56 183.0985,13.1 L183.0985,13.128 C184.3025,14.024 185.4505,15.004 186.4025,16.068 L186.4025,15.284 Z M199.2265,12.876 L187.9145,12.876 L187.9145,6.968 L199.2265,6.968 L199.2265,12.876 Z M190.2665,8.228 L190.2665,11.616 L196.8185,11.616 L196.8185,8.228 L190.2665,8.228 Z M192.3385,19.792 L192.3385,16.544 L188.8665,16.544 L188.8665,19.792 L192.3385,19.792 Z M198.4145,19.792 L198.4145,16.544 L194.7465,16.544 L194.7465,19.792 L198.4145,19.792 Z M192.3385,24.468 L192.3385,20.996 L188.8665,20.996 L188.8665,24.468 L192.3385,24.468 Z M198.4145,24.468 L198.4145,20.996 L194.7465,20.996 L194.7465,24.468 L198.4145,24.468 Z" id="留下你的祝福" fill="#696969" fill-rule="nonzero"></path>
            <path d="M35.576,45.144 C33.8,46.272 31.592,47.088 29.444,47.916 C29.18,48.012 28.916,48.12 28.652,48.216 C27.992,50.448 26.828,53.604 24.392,53.604 C23.324,53.604 22.628,53.064 22.628,52.08 C22.628,50.34 25.28,49.152 28.376,47.952 C28.52,47.448 28.58,47.232 28.652,47.028 C27.308,47.856 25.1,48.348 23.324,48.348 C19.184,48.348 17.576,46.92 17.576,44.772 C17.576,43.056 18.368,41.496 19.616,40.2 C18.836,39.84 18.08,39.408 17.396,38.88 C17.144,38.616 17.612,38.592 17.612,38.592 C18.32,39.132 19.076,39.576 19.88,39.924 C22.34,37.56 26.3,36.096 29.528,36.096 C31.772,36.096 33.512,36.516 33.512,37.8 C33.512,40.38 28.316,41.316 25.004,41.316 C23.288,41.316 21.56,41.004 19.952,40.344 C18.728,41.604 17.936,43.104 17.936,44.772 C17.936,46.704 19.448,47.988 23.324,47.988 C25.256,47.988 27.716,47.4 28.88,46.428 C29.216,46.404 29.156,46.656 29.12,46.692 C29.024,47.052 28.904,47.424 28.784,47.784 C28.964,47.724 29.144,47.652 29.324,47.58 C31.352,46.8 33.716,45.972 35.384,44.832 C35.552,44.7 35.612,45.06 35.576,45.144 Z M29.528,36.456 C26.42,36.456 22.616,37.836 20.24,40.068 C21.752,40.668 23.384,40.956 25.004,40.956 C28.172,40.956 33.152,40.116 33.152,37.8 C33.152,36.78 31.58,36.456 29.528,36.456 Z M24.392,53.244 C26.576,53.244 27.632,50.46 28.244,48.372 C25.352,49.512 22.988,50.592 22.988,52.08 C22.988,52.824 23.54,53.244 24.392,53.244 Z M42.8,45.144 C41.108,46.224 38.996,46.752 37.328,46.752 C35.912,46.752 35.216,46.284 35.24,45.312 C35.24,45.156 35.264,45.048 35.3,44.892 C35.504,44.688 35.756,44.712 35.66,44.904 C35.624,45.036 35.6,45.168 35.6,45.312 C35.576,46.044 36.152,46.392 37.328,46.392 C38.936,46.392 40.976,45.96 42.608,44.832 C42.848,44.7 42.8,45.144 42.8,45.144 Z M35.504,42.948 C36.104,42.948 36.404,42.396 35.72,42.396 C35.672,42.588 35.156,42.924 35.504,42.948 Z M54.968,44.832 C54.968,44.832 55.148,44.664 55.16,45.132 C54.428,45.612 53.348,46.152 51.356,46.164 C49.568,46.176 48.572,45.732 48.044,45.18 C47.264,46.008 46.1,46.8 45.476,46.8 C44.66,46.8 44.36,45.54 44.3,44.1 C43.796,44.484 43.376,44.784 42.824,45.132 C42.548,45.252 42.656,44.808 42.656,44.808 C43.304,44.4 43.76,44.064 44.444,43.536 C44.72,43.38 44.66,43.824 44.66,43.824 C44.696,45.18 44.828,46.44 45.476,46.44 C46.04,46.44 47.144,45.696 47.84,44.928 C47.588,44.568 47.504,44.184 47.504,43.848 C47.504,43.416 47.708,43.008 48.152,43.008 C48.716,43.008 48.836,43.44 48.836,43.788 C48.836,44.1 48.608,44.508 48.272,44.916 C48.728,45.42 49.628,45.816 51.356,45.804 C53.264,45.792 54.248,45.336 54.968,44.832 Z M47.864,43.848 C47.864,44.1 47.924,44.376 48.08,44.652 C48.32,44.34 48.476,44.028 48.476,43.788 C48.476,43.608 48.392,43.368 48.152,43.368 C47.948,43.368 47.864,43.584 47.864,43.848 Z M62.948,44.82 C62.948,44.82 63.152,44.724 63.116,45.144 C61.604,46.02 58.916,47.124 56.12,47.124 C54.956,47.124 54.524,46.692 54.512,46.056 C54.512,44.832 55.808,43.704 56.948,43.704 C57.44,43.704 57.668,43.98 57.668,44.292 C57.668,45.024 56.756,45.324 56.252,45.324 C55.892,45.324 55.508,45.264 55.148,45.144 C54.98,45.42 54.872,45.732 54.872,46.056 C54.884,46.476 55.208,46.764 56.12,46.764 C58.832,46.764 61.46,45.684 62.948,44.82 Z M56.948,44.064 C56.396,44.064 55.796,44.376 55.388,44.832 C55.676,44.916 55.964,44.964 56.252,44.964 C56.636,44.964 57.308,44.76 57.308,44.292 C57.308,44.172 57.2,44.064 56.948,44.064 Z M90.02,44.832 C90.176,44.724 90.248,44.976 90.212,45.144 C88.136,46.488 85.832,47.148 83.876,47.148 C82.592,47.148 81.644,46.704 81.644,45.36 C81.644,45.264 81.644,45.156 81.656,45.048 C80.444,46.98 78.488,48.42 76.688,48.42 C75.248,48.42 74.468,47.592 74.468,46.128 C74.468,44.736 75.344,42.684 76.064,40.968 C76.628,39.624 77.228,38.196 77.228,37.488 C77.228,36.552 76.652,36.18 75.776,36.18 C73.844,36.18 71.54,37.716 71.54,39.144 C71.54,39.768 71.9,40.272 72.452,40.464 C72.452,40.464 72.788,40.62 72.332,40.8 C71.636,40.56 71.18,39.924 71.18,39.144 C71.18,37.548 73.676,35.82 75.776,35.82 C76.868,35.82 77.588,36.288 77.588,37.488 C77.588,38.316 77.012,39.648 76.4,41.112 C75.656,42.852 74.828,44.772 74.828,46.128 C74.828,47.352 75.488,48.06 76.688,48.06 C78.668,48.06 80.876,46.152 81.908,43.812 C82.448,41.856 83.648,39.096 84.272,37.464 C84.704,37.332 84.584,37.632 84.584,37.632 C84.044,39.072 82.772,41.964 82.232,43.956 C82.088,44.508 82.004,45 82.004,45.36 C82.004,46.572 82.94,46.788 83.876,46.788 C85.772,46.788 88.016,46.212 90.02,44.832 Z M99.716,44.856 C99.716,44.856 99.98,44.628 99.944,45.144 C98.144,46.344 96.752,46.656 95.336,46.656 C95.12,46.656 94.916,46.62 94.712,46.56 C94.22,47.304 93.128,47.58 92.348,47.58 C91.172,47.58 90.632,47.016 90.632,46.344 C90.632,45.516 91.388,45.144 92.108,45.144 C92.948,45.144 93.704,45.816 94.532,46.128 C94.58,45.996 94.616,45.84 94.616,45.672 C94.616,44.856 92.648,44.328 92.468,43.464 C91.7,44.124 90.716,44.82 90.212,45.132 C90.212,45.132 89.948,45.3 90.044,44.82 C90.656,44.436 92,43.452 92.78,42.672 C93.212,42.696 93.044,42.936 93.044,42.936 L92.924,43.056 C92.852,43.152 92.816,43.248 92.816,43.332 C92.816,44.04 94.976,44.664 94.976,45.672 C94.976,45.888 94.94,46.068 94.88,46.236 C95.024,46.272 95.18,46.296 95.336,46.296 C96.692,46.296 98.048,46.02 99.716,44.856 Z M92.348,47.22 C92.996,47.22 93.908,46.992 94.352,46.44 C93.56,46.104 92.852,45.504 92.108,45.504 C91.556,45.504 90.992,45.756 90.992,46.344 C90.992,46.8 91.412,47.22 92.348,47.22 Z M110.984,44.088 C110.984,44.088 111.368,43.836 111.344,44.136 C111.344,44.136 110.96,46.512 113.06,46.512 C114.044,46.512 116.072,46.26 118.088,44.832 C118.292,44.688 118.292,45.132 118.292,45.132 C116.096,46.596 114.092,46.872 113.06,46.872 C111.452,46.872 111.056,45.744 110.972,44.916 C110.48,45.708 109.736,46.368 109.172,46.368 C108.776,46.368 108.572,46.152 108.572,45.72 C108.572,44.772 110.432,43.128 111.356,43.128 C111.692,43.128 111.872,43.26 111.932,43.512 C111.896,43.596 111.608,43.824 111.572,43.584 C111.56,43.524 111.488,43.488 111.356,43.488 C110.432,43.488 108.932,44.916 108.932,45.72 C108.932,45.9 109.016,46.008 109.172,46.008 C109.76,46.008 110.612,45.036 110.984,44.088 Z M127.7,44.184 C127.712,44.22 127.856,44.604 127.556,44.52 C126.524,44.112 125.96,43.296 125.96,42 C125.96,38.988 131.84,35.64 138.224,35.64 C139.208,35.64 140.048,35.724 140.78,35.856 C141.308,35.172 141.848,34.68 142.436,34.488 C142.772,34.692 142.556,34.824 142.556,34.824 C142.076,34.98 141.62,35.376 141.176,35.94 C144.08,36.612 144.92,38.34 144.92,39.936 C144.92,43.14 141.98,44.544 139.916,45.048 C140.048,45.312 140.12,45.648 140.12,46.056 C140.12,46.944 138.944,48.18 136.784,48.18 C135.44,48.18 134.492,47.952 133.784,47.664 C133.208,48 132.596,48.204 131.936,48.204 C130.592,48.204 130.22,47.616 130.22,47.208 C130.22,46.608 130.556,46.308 131.36,46.308 C131.984,46.308 132.404,46.56 132.932,46.848 C133.16,46.98 133.424,47.136 133.724,47.268 C136.652,45.36 138.248,39.42 140.552,36.18 C139.88,36.06 139.112,36 138.224,36 C132.032,36 126.32,39.156 126.32,42 C126.32,43.116 126.812,43.824 127.7,44.184 Z M144.56,39.936 C144.56,38.448 143.744,36.864 140.936,36.252 C138.572,39.552 137.48,44.724 134.132,47.424 C134.768,47.652 135.596,47.82 136.784,47.82 C138.656,47.82 139.76,46.8 139.76,46.056 C139.76,45.66 139.676,45.36 139.544,45.132 C138.992,45.24 138.524,45.288 138.248,45.288 C137.6,45.288 137.348,45.084 137.348,44.772 C137.348,44.364 137.828,44.16 138.248,44.16 C138.836,44.16 139.364,44.316 139.712,44.724 C141.668,44.28 144.56,42.996 144.56,39.936 Z M131.936,47.844 C132.44,47.844 132.92,47.712 133.364,47.484 C133.148,47.376 132.944,47.268 132.764,47.16 C132.296,46.908 131.888,46.668 131.36,46.668 C130.808,46.668 130.58,46.848 130.58,47.208 C130.58,47.472 130.88,47.844 131.936,47.844 Z M138.248,44.928 C138.476,44.928 138.848,44.892 139.28,44.82 C139.004,44.604 138.644,44.52 138.248,44.52 C137.996,44.52 137.708,44.604 137.708,44.772 C137.708,44.868 137.864,44.928 138.248,44.928 Z M154.808,44.832 C154.808,44.832 155.024,44.676 155,45.144 C153.044,46.404 150.584,47.16 148.628,47.148 C147.524,47.148 146.468,46.824 146.432,45.408 C146.432,43.62 148.616,39.996 149.816,39.996 C150.32,39.996 150.572,40.296 150.572,40.776 C150.572,42.516 148.34,44.292 146.816,45.132 C146.804,45.132 146.804,45.144 146.804,45.144 C146.792,45.24 146.792,45.324 146.792,45.408 C146.816,46.536 147.704,46.788 148.628,46.788 C150.524,46.8 152.972,46.128 154.808,44.832 Z M149.816,40.356 C148.868,40.356 147.272,42.924 146.876,44.688 C148.316,43.848 150.212,42.288 150.212,40.776 C150.212,40.512 150.08,40.356 149.816,40.356 Z M162.8,44.82 C162.8,44.82 163.004,44.724 162.968,45.144 C161.456,46.02 158.768,47.124 155.972,47.124 C154.808,47.124 154.376,46.692 154.364,46.056 C154.364,44.832 155.66,43.704 156.8,43.704 C157.292,43.704 157.52,43.98 157.52,44.292 C157.52,45.024 156.608,45.324 156.104,45.324 C155.744,45.324 155.36,45.264 155,45.144 C154.832,45.42 154.724,45.732 154.724,46.056 C154.736,46.476 155.06,46.764 155.972,46.764 C158.684,46.764 161.312,45.684 162.8,44.82 Z M156.8,44.064 C156.248,44.064 155.648,44.376 155.24,44.832 C155.528,44.916 155.816,44.964 156.104,44.964 C156.488,44.964 157.16,44.76 157.16,44.292 C157.16,44.172 157.052,44.064 156.8,44.064 Z M172.472,44.856 C172.472,44.856 172.736,44.628 172.7,45.144 C170.9,46.344 169.508,46.656 168.092,46.656 C167.876,46.656 167.672,46.62 167.468,46.56 C166.976,47.304 165.884,47.58 165.104,47.58 C163.928,47.58 163.388,47.016 163.388,46.344 C163.388,45.516 164.144,45.144 164.864,45.144 C165.704,45.144 166.46,45.816 167.288,46.128 C167.336,45.996 167.372,45.84 167.372,45.672 C167.372,44.856 165.404,44.328 165.224,43.464 C164.456,44.124 163.472,44.82 162.968,45.132 C162.968,45.132 162.704,45.3 162.8,44.82 C163.412,44.436 164.756,43.452 165.536,42.672 C165.968,42.696 165.8,42.936 165.8,42.936 L165.68,43.056 C165.608,43.152 165.572,43.248 165.572,43.332 C165.572,44.04 167.732,44.664 167.732,45.672 C167.732,45.888 167.696,46.068 167.636,46.236 C167.78,46.272 167.936,46.296 168.092,46.296 C169.448,46.296 170.804,46.02 172.472,44.856 Z M165.104,47.22 C165.752,47.22 166.664,46.992 167.108,46.44 C166.316,46.104 165.608,45.504 164.864,45.504 C164.312,45.504 163.748,45.756 163.748,46.344 C163.748,46.8 164.168,47.22 165.104,47.22 Z M182.204,44.856 C182.204,44.856 182.468,44.628 182.432,45.144 C180.632,46.344 179.24,46.656 177.824,46.656 C177.608,46.656 177.404,46.62 177.2,46.56 C176.708,47.304 175.616,47.58 174.836,47.58 C173.66,47.58 173.12,47.016 173.12,46.344 C173.12,45.516 173.876,45.144 174.596,45.144 C175.436,45.144 176.192,45.816 177.02,46.128 C177.068,45.996 177.104,45.84 177.104,45.672 C177.104,44.856 175.136,44.328 174.956,43.464 C174.188,44.124 173.204,44.82 172.7,45.132 C172.7,45.132 172.436,45.3 172.532,44.82 C173.144,44.436 174.488,43.452 175.268,42.672 C175.7,42.696 175.532,42.936 175.532,42.936 L175.412,43.056 C175.34,43.152 175.304,43.248 175.304,43.332 C175.304,44.04 177.464,44.664 177.464,45.672 C177.464,45.888 177.428,46.068 177.368,46.236 C177.512,46.272 177.668,46.296 177.824,46.296 C179.18,46.296 180.536,46.02 182.204,44.856 Z M174.836,47.22 C175.484,47.22 176.396,46.992 176.84,46.44 C176.048,46.104 175.34,45.504 174.596,45.504 C174.044,45.504 173.48,45.756 173.48,46.344 C173.48,46.8 173.9,47.22 174.836,47.22 Z M189.656,45.144 C187.964,46.224 185.852,46.752 184.184,46.752 C182.768,46.752 182.072,46.284 182.096,45.312 C182.096,45.156 182.12,45.048 182.156,44.892 C182.36,44.688 182.612,44.712 182.516,44.904 C182.48,45.036 182.456,45.168 182.456,45.312 C182.432,46.044 183.008,46.392 184.184,46.392 C185.792,46.392 187.832,45.96 189.464,44.832 C189.704,44.7 189.656,45.144 189.656,45.144 Z M182.36,42.948 C182.96,42.948 183.26,42.396 182.576,42.396 C182.528,42.588 182.012,42.924 182.36,42.948 Z M202.700237,45.132 C200.492,46.632 197.744,47.184 196.136,47.184 C193.664,47.184 193.916,45.912 193.928,44.916 C193.928,44.448 193.94,44.064 193.556,44.064 C193.076,44.064 192.056,44.748 191.336,45.396 C190.652,46.008 190.016,46.584 189.572,46.584 C189.224,46.584 189.104,46.356 189.104,46.032 C189.104,45.636 189.344,45.048 189.452,44.844 C189.452,44.844 189.668,44.616 189.776,45.012 C189.692,45.192 189.464,45.684 189.464,46.032 C189.464,46.14 189.488,46.224 189.572,46.224 C189.872,46.224 190.484,45.684 191.096,45.132 C191.84,44.46 192.968,43.704 193.556,43.704 C194.3,43.704 194.288,44.256 194.288,44.916 C194.276,45.744 194.024,46.824 196.136,46.824 C197.696,46.824 200.564,46.248 202.496,44.832 C202.712,44.688 202.700237,45.132 202.700237,45.132 Z M211.736,44.844 C211.736,44.844 211.964,44.64 211.94,45.144 C210.392,46.152 207.272,47.46 204.908,48.744 C204.044,50.628 203.024,52.224 202.172,52.224 C201.692,52.224 201.44,51.9 201.44,51.492 C201.44,50.508 202.832,49.488 204.644,48.492 C205.16,47.304 205.616,45.996 205.94,44.916 C205.808,45.036 205.652,45.168 205.472,45.288 C205.052,46.188 204.056,46.728 203.048,46.728 C202.7,46.728 202.16,46.548 202.16,45.84 C202.16,45.6 202.268,45.144 202.46,44.856 C202.688,44.64 202.76,45.06 202.76,45.06 C202.616,45.276 202.52,45.636 202.52,45.84 C202.52,46.26 202.844,46.368 203.048,46.368 C203.708,46.368 204.38,46.092 204.812,45.624 C204.5,45.732 204.152,45.804 203.744,45.804 C203.252,45.804 202.952,45.528 202.952,45.024 C202.952,44.316 203.924,43.308 204.752,43.308 C205.376,43.308 205.688,43.656 205.688,44.34 C205.688,44.46 205.676,44.58 205.652,44.688 C205.904,44.46 206.072,44.244 206.168,44.124 C206.168,44.124 206.576,43.956 206.528,44.22 C206.24,45.312 205.736,46.824 205.124,48.228 C207.44,47.016 210.26,45.84 211.736,44.844 Z M203.744,45.444 C204.332,45.444 204.812,45.276 205.184,45.048 C205.28,44.832 205.328,44.604 205.328,44.34 C205.328,43.896 205.136,43.668 204.752,43.668 C204.092,43.668 203.312,44.484 203.312,45.024 C203.312,45.264 203.468,45.444 203.744,45.444 Z M202.172,51.864 C202.844,51.864 203.66,50.604 204.392,49.032 C202.892,49.896 201.8,50.748 201.8,51.492 C201.8,51.708 201.932,51.864 202.172,51.864 Z" id="GiveUsaBlessing" fill="#696969" fill-rule="nonzero"></path>
            <g id="Group-3-Copy-2" transform="translate(219.000000, 6.000000)">
                <mask id="mask-2" fill="white">
                    <use xlink:href="#path-1"></use>
                </mask>
                <g id="Clip-2"></g>
                <path d="M9.78812224,19 C10.9811752,19 11.9486059,18.0347594 11.9486059,16.8429144 C11.9486059,16.7199198 11.9378938,16.5989305 11.9178088,16.4812834 C12.1025914,16.5213904 12.294069,16.5427807 12.4909026,16.5427807 C13.9838926,16.5427807 15.193683,15.3355615 15.193683,13.8449198 C15.193683,13.3509358 15.0597826,12.8877005 14.8274653,12.4899733 C16.0888075,12.078877 17,10.8963904 17,9.5 C17,8.10360963 16.0888075,6.92112299 14.8274653,6.50935829 C15.0597826,6.11163102 15.193683,5.64906417 15.193683,5.15508021 C15.193683,3.66510695 13.9838926,2.4565508 12.4909026,2.4565508 C12.294069,2.4565508 12.1025914,2.47794118 11.9178088,2.51804813 C11.9378938,2.40040107 11.9486059,2.27941176 11.9486059,2.15708556 C11.9486059,0.965240642 10.9811752,0 9.78812224,0 C9.00279616,0 8.31521739,0.419117647 7.93694865,1.04612299 C6.8008034,2.50601604 2.6117281,7.77606952 0,9.5 C2.6117281,11.2239305 6.8008034,16.493984 7.93694865,17.9545455 C8.31521739,18.5808824 9.00212665,19 9.78812224,19" id="Fill-1" fill="#C29898" mask="url(#mask-2)"></path>
            </g>
            <g id="Group-3-Copy-3" transform="translate(8.500000, 14.500000) rotate(-180.000000) translate(-8.500000, -14.500000) translate(0.000000, 5.000000)">
                <mask id="mask-4" fill="white">
                    <use xlink:href="#path-3"></use>
                </mask>
                <g id="Clip-2"></g>
                <path d="M9.78812224,19 C10.9811752,19 11.9486059,18.0347594 11.9486059,16.8429144 C11.9486059,16.7199198 11.9378938,16.5989305 11.9178088,16.4812834 C12.1025914,16.5213904 12.294069,16.5427807 12.4909026,16.5427807 C13.9838926,16.5427807 15.193683,15.3355615 15.193683,13.8449198 C15.193683,13.3509358 15.0597826,12.8877005 14.8274653,12.4899733 C16.0888075,12.078877 17,10.8963904 17,9.5 C17,8.10360963 16.0888075,6.92112299 14.8274653,6.50935829 C15.0597826,6.11163102 15.193683,5.64906417 15.193683,5.15508021 C15.193683,3.66510695 13.9838926,2.4565508 12.4909026,2.4565508 C12.294069,2.4565508 12.1025914,2.47794118 11.9178088,2.51804813 C11.9378938,2.40040107 11.9486059,2.27941176 11.9486059,2.15708556 C11.9486059,0.965240642 10.9811752,0 9.78812224,0 C9.00279616,0 8.31521739,0.419117647 7.93694865,1.04612299 C6.8008034,2.50601604 2.6117281,7.77606952 0,9.5 C2.6117281,11.2239305 6.8008034,16.493984 7.93694865,17.9545455 C8.31521739,18.5808824 9.00212665,19 9.78812224,19" id="Fill-1" fill="#C29898" mask="url(#mask-4)"></path>
            </g>
        </g>
    </g>
</svg>