<?xml version="1.0" encoding="UTF-8"?>
<svg width="190px" height="52px" viewBox="0 0 190 52" version="1.1" xmlns="http://www.w3.org/2000/svg" xmlns:xlink="http://www.w3.org/1999/xlink">
    <!-- Generator: Sketch 55.2 (78181) - https://sketchapp.com -->
    <title>Group 2 Copy 2</title>
    <desc>Created with Sketch.</desc>
    <defs>
        <polygon id="path-1" points="0 0 17 0 17 19 0 19"></polygon>
        <polygon id="path-3" points="0 0 17 0 17 19 0 19"></polygon>
    </defs>
    <g id="Page-1" stroke="none" stroke-width="1" fill="none" fill-rule="evenodd">
        <g id="Group-2-Copy-2" transform="translate(0.000000, -1.000000)">
            <path d="M80.9,10.02 C82.552,14.556 80.704,16.74 77.512,14.696 C75.524,13.408 74.18,11.448 73.424,8.788 L69.616,8.788 L69.616,12.456 C71.044,12.176 72.444,11.84 73.676,11.504 L74.068,12.428 C71.716,13.856 68.832,14.864 66.256,15.676 L65.388,13.1 C65.976,13.044 66.592,12.96 67.208,12.876 L67.208,3.356 L69.308,3.776 C72.024,3.3 75.608,2.236 77.68,1.116 L80.116,2.992 C78.464,3.412 76.672,3.776 74.908,4.112 C74.964,5.288 75.104,6.464 75.356,7.528 L81.18,7.528 L81.18,8.788 L75.72,8.788 C76.308,10.524 77.232,11.924 78.604,12.764 C79.892,13.548 80.032,12.652 79.948,10.02 L80.9,10.02 Z M65.92,7.248 C65.696,11.812 65.108,15.928 63.708,19.4 C64.688,20.1 65.668,20.94 66.704,21.948 L64.744,24.048 C64.1,23.152 63.428,22.256 62.7,21.444 C61.384,23.824 59.536,25.812 56.96,27.324 L56.372,26.568 C58.304,24.916 60.04,23.012 61.3,19.96 C60.712,19.372 60.096,18.812 59.452,18.28 C59.284,18.924 59.116,19.54 58.948,20.072 L56.708,19.568 C57.632,16.74 58.5,12.456 59.172,8.508 L56.736,8.508 L56.736,7.248 L59.368,7.248 C59.732,5.008 59.984,2.936 60.152,1.424 L62.504,1.732 C62.364,3.02 62.084,5.008 61.72,7.248 L65.92,7.248 Z M69.616,7.528 L73.116,7.528 C72.92,6.576 72.78,5.568 72.696,4.476 C71.604,4.616 70.568,4.756 69.616,4.812 L69.616,7.528 Z M59.76,17.076 C60.516,17.468 61.244,17.832 61.944,18.252 C62.728,15.788 63.26,12.624 63.428,8.508 L61.496,8.508 C61.02,11.336 60.404,14.444 59.76,17.076 Z M67.824,27.324 L67.824,16.096 L79.64,16.096 L79.64,27.324 L77.232,27.324 L77.232,25.588 L70.232,25.588 L70.232,27.324 L67.824,27.324 Z M70.232,17.356 L70.232,20.156 L77.232,20.156 L77.232,17.356 L70.232,17.356 Z M70.232,21.36 L70.232,24.328 L77.232,24.328 L77.232,21.36 L70.232,21.36 Z M85.2365,16.096 C85.9645,16.068 86.7205,16.04 87.5325,15.956 C88.9045,14.304 90.1365,12.596 91.3405,10.244 C89.7165,10.776 87.8685,11.28 86.3005,11.588 L85.7965,9.18 C86.3285,9.18 86.8885,9.18 87.4485,9.152 C88.5405,6.8 89.4645,3.86 89.9965,1.2 L92.6845,2.012 C91.6765,4.532 90.1365,7.22 88.7645,9.096 C89.8845,9.04 91.0325,8.956 92.0405,8.872 C92.4325,8.004 92.8525,7.052 93.2725,6.016 L95.6805,7.192 C93.5245,10.832 91.1725,13.744 89.0165,15.788 C90.4725,15.592 91.9565,15.312 93.3005,15.004 C93.0485,14.36 92.8245,13.744 92.5445,13.156 L93.3845,12.596 C94.5605,13.94 95.7365,15.592 96.5485,17.356 L94.3085,18.336 C94.0845,17.496 93.8605,16.712 93.6085,15.928 C91.1445,17.104 88.0085,18.252 85.9645,18.644 L85.2365,16.096 Z M97.0525,16.46 L97.4445,15.536 C100.6645,16.488 101.1965,16.264 101.1965,14.64 L101.1965,1.452 L103.6045,1.452 L103.6885,15.172 C103.7165,18.308 101.5605,19.988 97.0525,16.46 Z M110.3525,12.484 L107.8885,13.8 C107.1325,11.504 105.9845,8.48 104.5845,6.156 L105.3685,5.512 C107.3565,7.556 109.3445,10.356 110.3525,12.484 Z M95.7645,14.612 L94.9525,14.024 C96.0445,12.12 96.8845,8.816 97.2765,5.848 L99.7405,6.548 C98.9845,9.796 97.4725,12.652 95.7645,14.612 Z M92.3205,26.568 C99.5445,24.692 103.9125,20.884 106.6005,14.108 L108.9525,15.284 C105.8165,22.48 100.2165,26.204 92.6005,27.492 L92.3205,26.568 Z M92.4325,18.7 L93.3005,18.224 C94.4205,19.596 95.7365,21.612 96.5765,23.376 L94.1685,24.44 C93.8045,22.732 93.0765,20.324 92.4325,18.7 Z M92.7405,25.392 L90.1085,25.896 C90.1925,24.132 90.1645,21.388 89.9405,19.344 L90.9205,19.12 C91.6485,21.024 92.4325,23.824 92.7405,25.392 Z M87.4205,19.344 L88.4285,19.484 C88.4565,22.508 88.1205,25.224 87.5605,27.044 L84.9005,25.98 C85.9085,24.3 86.8045,22.34 87.4205,19.344 Z M123.621,11.504 C126.953,9.684 128.129,7.304 128.465,3.776 L124.993,3.776 L124.993,2.516 L137.761,2.516 C137.733,4.28 137.369,8.116 136.977,9.544 C136.445,11.532 133.981,12.316 130.369,9.376 L130.761,8.452 C134.037,9.432 134.513,9.292 134.709,8.564 C134.961,7.668 135.185,5.764 135.269,3.776 L131.041,3.776 C130.509,8.088 128.493,10.832 124.069,12.428 L123.621,11.504 Z M123.397,19.624 L121.101,19.624 L121.101,17.776 L117.685,17.776 L117.685,20.128 L115.333,20.128 L115.333,2.656 L123.397,2.656 L123.397,19.624 Z M117.685,3.916 L117.685,9.46 L121.101,9.46 L121.101,3.916 L117.685,3.916 Z M117.685,16.516 L121.101,16.516 L121.101,10.664 L117.685,10.664 L117.685,16.516 Z M137.341,19.848 L134.933,19.848 L134.933,18.616 L127.681,18.616 L127.681,19.96 L125.329,19.96 L125.329,11.952 L137.341,11.952 L137.341,19.848 Z M127.681,17.356 L134.933,17.356 L134.933,13.212 L127.681,13.212 L127.681,17.356 Z M134.093,20.324 C135.745,21.836 137.845,24.048 138.853,25.728 L136.277,27.268 C135.633,25.616 134.401,22.9 133.309,20.884 L134.093,20.324 Z M127.317,20.94 L128.157,20.436 C129.529,21.976 131.153,24.244 132.133,25.98 L129.473,27.268 C128.997,25.644 128.185,23.012 127.317,20.94 Z M113.513,25.896 C115.053,24.72 116.985,22.788 117.993,20.632 L118.945,20.996 C118.413,23.768 117.013,26.428 115.837,27.856 L113.513,25.896 Z M121.829,21.024 L122.753,20.66 C123.761,22.34 124.993,24.972 125.581,26.624 L122.781,27.324 C122.557,25.644 122.165,22.956 121.829,21.024 Z" id="婚紗照" fill="#696969" fill-rule="nonzero"></path>
            <path d="M5.144,48.264 C5.144,48.264 4.808,48.132 5.24,47.928 C5.48,47.988 5.72,48.012 5.948,48.012 C7.64,48.012 8.9,46.152 9.968,43.872 C8.948,43.356 8.42,42.516 8.42,41.712 C8.42,40.248 9.74,39.06 11.216,39.06 C11.216,39.06 11.66,39.084 11.216,39.42 C9.932,39.42 8.78,40.44 8.78,41.712 C8.78,42.396 9.236,43.104 10.124,43.548 C10.472,42.78 10.808,41.976 11.132,41.184 C11.864,39.372 12.644,37.512 13.592,36.18 C13.112,36.156 12.644,36.132 12.176,36.132 C7.688,36.132 1.028,38.508 1.028,42.192 C1.028,43.692 2.132,44.172 3.164,44.172 C3.5,44.496 3.164,44.532 3.164,44.532 C1.964,44.532 0.668,43.956 0.668,42.192 C0.668,38.292 7.544,35.772 12.176,35.772 C12.728,35.772 13.292,35.796 13.856,35.844 C14.408,35.148 15.008,34.644 15.704,34.44 C16.04,34.68 15.8,34.776 15.8,34.776 C15.224,34.944 14.72,35.34 14.264,35.88 C16.904,36.156 19.316,37.092 19.316,39.6 C19.316,43.044 15.572,44.388 12.392,44.388 C11.576,44.388 10.88,44.256 10.304,44.028 C9.188,46.44 7.904,48.372 5.948,48.372 C5.708,48.372 5.444,48.348 5.144,48.264 Z M18.956,39.6 C18.956,37.272 16.568,36.444 13.988,36.216 C13.04,37.488 12.26,39.408 11.468,41.328 C11.132,42.132 10.808,42.936 10.46,43.704 C10.988,43.908 11.624,44.028 12.392,44.028 C15.404,44.028 18.956,42.78 18.956,39.6 Z M28.988,44.832 C28.988,44.832 29.204,44.676 29.18,45.144 C27.116,46.476 25.664,46.668 24.548,46.668 C22.928,46.668 22.436,46.152 22.412,45.48 C22.412,45.024 22.58,44.592 22.82,44.22 C22.64,44.244 22.448,44.256 22.316,44.256 C21.98,44.256 21.524,44.208 21.236,44.028 C20.804,44.328 20.036,44.832 19.496,45.132 C19.496,45.132 19.22,45.312 19.316,44.82 C19.82,44.556 20.564,44.052 20.984,43.752 C20.948,43.692 20.936,43.62 20.936,43.536 C20.936,43.212 21.164,42.876 21.476,42.876 C21.752,42.876 21.86,43.02 21.86,43.224 C21.86,43.488 21.728,43.632 21.536,43.788 C21.752,43.872 22.076,43.896 22.316,43.896 C22.484,43.896 22.772,43.848 23.168,43.752 C23.372,43.704 23.42,43.788 23.408,44.076 C23.084,44.52 22.772,44.94 22.772,45.468 C22.796,45.936 23.204,46.308 24.548,46.308 C25.592,46.308 27.068,46.164 28.988,44.832 Z M21.476,43.236 C21.356,43.236 21.296,43.368 21.296,43.512 C21.368,43.452 21.5,43.344 21.5,43.26 C21.5,43.248 21.488,43.236 21.476,43.236 Z M36.98,44.82 C36.98,44.82 37.184,44.724 37.148,45.144 C35.636,46.02 32.948,47.124 30.152,47.124 C28.988,47.124 28.556,46.692 28.544,46.056 C28.544,44.832 29.84,43.704 30.98,43.704 C31.472,43.704 31.7,43.98 31.7,44.292 C31.7,45.024 30.788,45.324 30.284,45.324 C29.924,45.324 29.54,45.264 29.18,45.144 C29.012,45.42 28.904,45.732 28.904,46.056 C28.916,46.476 29.24,46.764 30.152,46.764 C32.864,46.764 35.492,45.684 36.98,44.82 Z M30.98,44.064 C30.428,44.064 29.828,44.376 29.42,44.832 C29.708,44.916 29.996,44.964 30.284,44.964 C30.668,44.964 31.34,44.76 31.34,44.292 C31.34,44.172 31.232,44.064 30.98,44.064 Z M47.552,36.288 C47.852,38.76 49.148,44.304 51.908,48 C53.024,46.608 54.032,44.964 54.68,43.572 C54.428,42.624 54.32,41.808 54.32,41.28 C54.32,40.548 54.716,40.14 55.088,40.14 C55.484,40.14 55.784,40.584 55.784,41.208 C55.784,41.76 55.508,42.624 55.064,43.62 C55.436,44.964 56.084,46.56 57.116,47.94 C59.528,42.648 63.128,34.656 66.98,34.656 C68.444,34.704 69.056,35.592 69.272,36.456 C69.272,36.456 69.332,36.804 68.912,36.528 C68.732,35.784 68.252,35.016 66.98,35.016 C63.356,35.016 59.756,43.032 57.356,48.288 C57.356,48.288 57.26,48.576 56.948,48.3 C55.928,46.98 55.244,45.444 54.836,44.1 C54.164,45.456 53.192,47.004 52.136,48.3 C52.136,48.3 51.968,48.552 51.764,48.348 C48.932,44.772 47.624,39.432 47.24,36.708 C46.028,37.344 44.564,37.776 43.112,37.956 C43.112,37.956 42.728,37.932 43.064,37.596 C44.54,37.404 46.004,36.972 47.192,36.336 C47.468,36.012 47.552,36.288 47.552,36.288 Z M54.68,41.28 C54.68,41.7 54.752,42.324 54.92,43.044 C55.232,42.288 55.424,41.64 55.424,41.208 C55.424,40.776 55.268,40.5 55.088,40.5 C54.884,40.5 54.68,40.764 54.68,41.28 Z M72.116,44.82 C72.116,44.82 72.32,44.724 72.284,45.144 C70.772,46.02 68.084,47.124 65.288,47.124 C64.124,47.124 63.692,46.692 63.68,46.056 C63.68,44.832 64.976,43.704 66.116,43.704 C66.608,43.704 66.836,43.98 66.836,44.292 C66.836,45.024 65.924,45.324 65.42,45.324 C65.06,45.324 64.676,45.264 64.316,45.144 C64.148,45.42 64.04,45.732 64.04,46.056 C64.052,46.476 64.376,46.764 65.288,46.764 C68,46.764 70.628,45.684 72.116,44.82 Z M66.116,44.064 C65.564,44.064 64.964,44.376 64.556,44.832 C64.844,44.916 65.132,44.964 65.42,44.964 C65.804,44.964 66.476,44.76 66.476,44.292 C66.476,44.172 66.368,44.064 66.116,44.064 Z M82.508,45.144 C80.756,46.272 79.04,46.548 78.008,46.548 C76.724,46.548 76.196,45.876 76.196,44.652 C76.196,44.052 76.328,43.308 76.568,42.456 C75.236,44.784 73.82,46.368 72.38,46.368 C71.984,46.368 71.78,46.116 71.78,45.72 C71.78,44.772 73.1,43.476 74.096,43.476 C74.432,43.476 74.612,43.608 74.672,43.86 C74.6,44.04 74.336,44.16 74.312,43.932 C74.3,43.872 74.228,43.836 74.096,43.836 C73.244,43.836 72.14,44.916 72.14,45.72 C72.14,45.9 72.224,46.008 72.38,46.008 C74,46.008 75.968,43.2 77.444,39.924 C77.84,39.756 77.78,40.044 77.78,40.044 C77.288,41.028 76.556,43.452 76.556,44.652 C76.556,45.636 76.988,46.188 78.008,46.188 C78.992,46.188 80.612,45.912 82.316,44.832 C82.316,44.832 82.568,44.688 82.508,45.144 Z M92.744,45.144 C90.992,46.272 89.276,46.548 88.244,46.548 C86.96,46.548 86.432,45.876 86.432,44.652 C86.432,44.052 86.564,43.308 86.804,42.456 C85.472,44.784 84.056,46.368 82.616,46.368 C82.22,46.368 82.016,46.116 82.016,45.72 C82.016,44.772 83.336,43.476 84.332,43.476 C84.668,43.476 84.848,43.608 84.908,43.86 C84.836,44.04 84.572,44.16 84.548,43.932 C84.536,43.872 84.464,43.836 84.332,43.836 C83.48,43.836 82.376,44.916 82.376,45.72 C82.376,45.9 82.46,46.008 82.616,46.008 C84.236,46.008 86.204,43.2 87.68,39.924 C88.076,39.756 88.016,40.044 88.016,40.044 C87.524,41.028 86.792,43.452 86.792,44.652 C86.792,45.636 87.224,46.188 88.244,46.188 C89.228,46.188 90.848,45.912 92.552,44.832 C92.552,44.832 92.804,44.688 92.744,45.144 Z M99.98,45.144 C98.288,46.224 96.176,46.752 94.508,46.752 C93.092,46.752 92.396,46.284 92.42,45.312 C92.42,45.156 92.444,45.048 92.48,44.892 C92.684,44.688 92.936,44.712 92.84,44.904 C92.804,45.036 92.78,45.168 92.78,45.312 C92.756,46.044 93.332,46.392 94.508,46.392 C96.116,46.392 98.156,45.96 99.788,44.832 C100.028,44.7 99.98,45.144 99.98,45.144 Z M92.684,42.948 C93.284,42.948 93.584,42.396 92.9,42.396 C92.852,42.588 92.336,42.924 92.684,42.948 Z M113.024237,45.132 C110.816,46.632 108.068,47.184 106.46,47.184 C103.988,47.184 104.24,45.912 104.252,44.916 C104.252,44.448 104.264,44.064 103.88,44.064 C103.4,44.064 102.38,44.748 101.66,45.396 C100.976,46.008 100.34,46.584 99.896,46.584 C99.548,46.584 99.428,46.356 99.428,46.032 C99.428,45.636 99.668,45.048 99.776,44.844 C99.776,44.844 99.992,44.616 100.1,45.012 C100.016,45.192 99.788,45.684 99.788,46.032 C99.788,46.14 99.812,46.224 99.896,46.224 C100.196,46.224 100.808,45.684 101.42,45.132 C102.164,44.46 103.292,43.704 103.88,43.704 C104.624,43.704 104.612,44.256 104.612,44.916 C104.6,45.744 104.348,46.824 106.46,46.824 C108.02,46.824 110.888,46.248 112.82,44.832 C113.036,44.688 113.024237,45.132 113.024237,45.132 Z M122.06,44.844 C122.06,44.844 122.288,44.64 122.264,45.144 C120.716,46.152 117.596,47.46 115.232,48.744 C114.368,50.628 113.348,52.224 112.496,52.224 C112.016,52.224 111.764,51.9 111.764,51.492 C111.764,50.508 113.156,49.488 114.968,48.492 C115.484,47.304 115.94,45.996 116.264,44.916 C116.132,45.036 115.976,45.168 115.796,45.288 C115.376,46.188 114.38,46.728 113.372,46.728 C113.024,46.728 112.484,46.548 112.484,45.84 C112.484,45.6 112.592,45.144 112.784,44.856 C113.012,44.64 113.084,45.06 113.084,45.06 C112.94,45.276 112.844,45.636 112.844,45.84 C112.844,46.26 113.168,46.368 113.372,46.368 C114.032,46.368 114.704,46.092 115.136,45.624 C114.824,45.732 114.476,45.804 114.068,45.804 C113.576,45.804 113.276,45.528 113.276,45.024 C113.276,44.316 114.248,43.308 115.076,43.308 C115.7,43.308 116.012,43.656 116.012,44.34 C116.012,44.46 116,44.58 115.976,44.688 C116.228,44.46 116.396,44.244 116.492,44.124 C116.492,44.124 116.9,43.956 116.852,44.22 C116.564,45.312 116.06,46.824 115.448,48.228 C117.764,47.016 120.584,45.84 122.06,44.844 Z M114.068,45.444 C114.656,45.444 115.136,45.276 115.508,45.048 C115.604,44.832 115.652,44.604 115.652,44.34 C115.652,43.896 115.46,43.668 115.076,43.668 C114.416,43.668 113.636,44.484 113.636,45.024 C113.636,45.264 113.792,45.444 114.068,45.444 Z M112.496,51.864 C113.168,51.864 113.984,50.604 114.716,49.032 C113.216,49.896 112.124,50.748 112.124,51.492 C112.124,51.708 112.256,51.864 112.496,51.864 Z M134.228,48.264 C134.228,48.264 133.892,48.132 134.324,47.928 C134.564,47.988 134.804,48.012 135.032,48.012 C136.724,48.012 137.984,46.152 139.052,43.872 C138.032,43.356 137.504,42.516 137.504,41.712 C137.504,40.248 138.824,39.06 140.3,39.06 C140.3,39.06 140.744,39.084 140.3,39.42 C139.016,39.42 137.864,40.44 137.864,41.712 C137.864,42.396 138.32,43.104 139.208,43.548 C139.556,42.78 139.892,41.976 140.216,41.184 C140.948,39.372 141.728,37.512 142.676,36.18 C142.196,36.156 141.728,36.132 141.26,36.132 C136.772,36.132 130.112,38.508 130.112,42.192 C130.112,43.692 131.216,44.172 132.248,44.172 C132.584,44.496 132.248,44.532 132.248,44.532 C131.048,44.532 129.752,43.956 129.752,42.192 C129.752,38.292 136.628,35.772 141.26,35.772 C141.812,35.772 142.376,35.796 142.94,35.844 C143.492,35.148 144.092,34.644 144.788,34.44 C145.124,34.68 144.884,34.776 144.884,34.776 C144.308,34.944 143.804,35.34 143.348,35.88 C145.988,36.156 148.4,37.092 148.4,39.6 C148.4,43.044 144.656,44.388 141.476,44.388 C140.66,44.388 139.964,44.256 139.388,44.028 C138.272,46.44 136.988,48.372 135.032,48.372 C134.792,48.372 134.528,48.348 134.228,48.264 Z M148.04,39.6 C148.04,37.272 145.652,36.444 143.072,36.216 C142.124,37.488 141.344,39.408 140.552,41.328 C140.216,42.132 139.892,42.936 139.544,43.704 C140.072,43.908 140.708,44.028 141.476,44.028 C144.488,44.028 148.04,42.78 148.04,39.6 Z M151.172,46.584 C151.172,46.584 151.076,46.872 150.812,46.512 C151.028,45.3 151.412,43.824 151.94,42.3 C151.124,43.392 150.068,44.304 148.592,45.132 C148.592,45.132 148.292,45.312 148.4,44.82 C150.812,43.452 151.928,42.036 153.08,39.528 C153.524,39.372 153.416,39.672 153.416,39.672 C152.468,41.568 151.856,43.584 151.328,45.78 C152.048,44.868 153.236,43.656 154.232,43.656 C155.468,43.656 154.856,46.512 156.932,46.512 C158.588,46.512 160.532,45.792 161.876,44.832 C161.876,44.832 162.068,44.664 162.08,45.132 C160.688,46.092 158.516,46.872 156.932,46.872 C154.628,46.872 155.072,44.016 154.232,44.016 C153.152,44.016 151.7,45.804 151.172,46.584 Z M170.252,45.144 C168.404,46.344 166.544,46.8 164.876,46.8 C164.324,46.8 163.868,46.716 163.508,46.548 C163.172,46.656 162.812,46.716 162.464,46.716 C161.804,46.716 161.552,46.308 161.552,45.828 C161.552,45.504 161.672,45.156 161.84,44.868 C162.068,44.58 162.152,45.06 162.152,45.06 C162.008,45.3 161.912,45.576 161.912,45.828 C161.912,46.116 162.068,46.356 162.464,46.356 C162.68,46.356 162.896,46.332 163.112,46.284 C162.824,46.02 162.668,45.66 162.68,45.228 C162.68,44.388 163.268,43.176 164.348,43.176 C164.96,43.176 165.272,43.752 165.272,44.148 C165.272,45.204 164.72,45.924 163.988,46.332 C164.24,46.404 164.54,46.44 164.876,46.44 C166.484,46.44 168.344,46.056 170.06,44.832 C170.288,44.7 170.252,45.144 170.252,45.144 Z M164.912,44.148 C164.912,43.896 164.72,43.536 164.348,43.536 C163.508,43.536 163.04,44.532 163.04,45.228 C163.028,45.612 163.208,45.936 163.556,46.14 C164.312,45.828 164.912,45.168 164.912,44.148 Z M181.556,41.232 C178.988,41.64 176.492,41.892 174.02,42.024 C173.528,43.176 173.096,44.4 173.096,45.36 C173.096,46.572 174.032,46.788 174.968,46.788 C176.864,46.788 179.12,46.176 181.112,44.832 C181.256,44.736 181.316,44.988 181.304,45.144 C179.144,46.5 176.924,47.148 174.968,47.148 C173.684,47.148 172.736,46.704 172.736,45.36 C172.736,44.52 173.036,43.488 173.42,42.516 C172.604,43.488 171.572,44.316 170.276,45.132 C170.276,45.132 169.976,45.312 170.084,44.82 C171.464,43.98 172.508,43.104 173.324,42.06 C170.948,42.168 168.608,42.168 166.268,42.096 C166.268,42.096 165.908,42.084 166.268,41.736 C168.704,41.808 171.128,41.796 173.6,41.676 C174.068,41.004 174.428,40.26 174.788,39.516 C175.22,39.384 175.1,39.684 175.1,39.684 C174.788,40.32 174.488,40.968 174.188,41.652 C176.588,41.52 179.012,41.268 181.508,40.872 C181.892,41.16 181.556,41.232 181.556,41.232 Z M189.476,45.144 C187.628,46.344 185.768,46.8 184.1,46.8 C183.548,46.8 183.092,46.716 182.732,46.548 C182.396,46.656 182.036,46.716 181.688,46.716 C181.028,46.716 180.776,46.308 180.776,45.828 C180.776,45.504 180.896,45.156 181.064,44.868 C181.292,44.58 181.376,45.06 181.376,45.06 C181.232,45.3 181.136,45.576 181.136,45.828 C181.136,46.116 181.292,46.356 181.688,46.356 C181.904,46.356 182.12,46.332 182.336,46.284 C182.048,46.02 181.892,45.66 181.904,45.228 C181.904,44.388 182.492,43.176 183.572,43.176 C184.184,43.176 184.496,43.752 184.496,44.148 C184.496,45.204 183.944,45.924 183.212,46.332 C183.464,46.404 183.764,46.44 184.1,46.44 C185.708,46.44 187.568,46.056 189.284,44.832 C189.512,44.7 189.476,45.144 189.476,45.144 Z M184.136,44.148 C184.136,43.896 183.944,43.536 183.572,43.536 C182.732,43.536 182.264,44.532 182.264,45.228 C182.252,45.612 182.432,45.936 182.78,46.14 C183.536,45.828 184.136,45.168 184.136,44.148 Z" id="PreWeddingPhoto" fill="#696969" fill-rule="nonzero"></path>
            <g id="Group-3-Copy-2" transform="translate(160.000000, 6.000000)">
                <mask id="mask-2" fill="white">
                    <use xlink:href="#path-1"></use>
                </mask>
                <g id="Clip-2"></g>
                <path d="M9.78812224,19 C10.9811752,19 11.9486059,18.0347594 11.9486059,16.8429144 C11.9486059,16.7199198 11.9378938,16.5989305 11.9178088,16.4812834 C12.1025914,16.5213904 12.294069,16.5427807 12.4909026,16.5427807 C13.9838926,16.5427807 15.193683,15.3355615 15.193683,13.8449198 C15.193683,13.3509358 15.0597826,12.8877005 14.8274653,12.4899733 C16.0888075,12.078877 17,10.8963904 17,9.5 C17,8.10360963 16.0888075,6.92112299 14.8274653,6.50935829 C15.0597826,6.11163102 15.193683,5.64906417 15.193683,5.15508021 C15.193683,3.66510695 13.9838926,2.4565508 12.4909026,2.4565508 C12.294069,2.4565508 12.1025914,2.47794118 11.9178088,2.51804813 C11.9378938,2.40040107 11.9486059,2.27941176 11.9486059,2.15708556 C11.9486059,0.965240642 10.9811752,0 9.78812224,0 C9.00279616,0 8.31521739,0.419117647 7.93694865,1.04612299 C6.8008034,2.50601604 2.6117281,7.77606952 0,9.5 C2.6117281,11.2239305 6.8008034,16.493984 7.93694865,17.9545455 C8.31521739,18.5808824 9.00212665,19 9.78812224,19" id="Fill-1" fill="#C29898" mask="url(#mask-2)"></path>
            </g>
            <g id="Group-3-Copy-3" transform="translate(25.500000, 14.500000) rotate(-180.000000) translate(-25.500000, -14.500000) translate(17.000000, 5.000000)">
                <mask id="mask-4" fill="white">
                    <use xlink:href="#path-3"></use>
                </mask>
                <g id="Clip-2"></g>
                <path d="M9.78812224,19 C10.9811752,19 11.9486059,18.0347594 11.9486059,16.8429144 C11.9486059,16.7199198 11.9378938,16.5989305 11.9178088,16.4812834 C12.1025914,16.5213904 12.294069,16.5427807 12.4909026,16.5427807 C13.9838926,16.5427807 15.193683,15.3355615 15.193683,13.8449198 C15.193683,13.3509358 15.0597826,12.8877005 14.8274653,12.4899733 C16.0888075,12.078877 17,10.8963904 17,9.5 C17,8.10360963 16.0888075,6.92112299 14.8274653,6.50935829 C15.0597826,6.11163102 15.193683,5.64906417 15.193683,5.15508021 C15.193683,3.66510695 13.9838926,2.4565508 12.4909026,2.4565508 C12.294069,2.4565508 12.1025914,2.47794118 11.9178088,2.51804813 C11.9378938,2.40040107 11.9486059,2.27941176 11.9486059,2.15708556 C11.9486059,0.965240642 10.9811752,0 9.78812224,0 C9.00279616,0 8.31521739,0.419117647 7.93694865,1.04612299 C6.8008034,2.50601604 2.6117281,7.77606952 0,9.5 C2.6117281,11.2239305 6.8008034,16.493984 7.93694865,17.9545455 C8.31521739,18.5808824 9.00212665,19 9.78812224,19" id="Fill-1" fill="#C29898" mask="url(#mask-4)"></path>
            </g>
        </g>
    </g>
</svg>